{
.appVersion = "3091";
copyright = "Copyright 2021 The Albert Sans Project Authors (https://github.com/usted/Albert-Sans)";
customParameters = (
{
name = "Use Typo Metrics";
value = 1;
},
{
name = fsType;
value = (
);
},
{
name = "Variable Font Origin";
value = "9F107B1E-3A61-4335-981B-27DD48125C7E";
},
{
name = "Use Line Breaks";
value = 1;
},
{
name = license;
value = "This Font Software is licensed under the SIL Open Font License, Version 1.1. This license is available with a FAQ at: https://scripts.sil.org/OFL";
},
{
name = licenseURL;
value = "https://scripts.sil.org/OFL";
},
{
name = Axes;
value = (
{
Name = Weight;
Tag = wght;
}
);
}
);
date = "2021-08-28 16:00:04 +0000";
designer = "Andreas Rasmussen";
designerURL = "https://www.andreasrasmussen.net";
familyName = "Albert Sans";
featurePrefixes = (
{
automatic = 1;
code = "languagesystem DFLT dflt;

languagesystem latn dflt;
languagesystem latn ROM;
languagesystem latn MOL;
languagesystem latn CAT;
";
name = Languagesystems;
}
);
features = (
{
code = "feature locl;
feature sups;
feature frac;
feature ordn;
";
name = aalt;
},
{
automatic = 1;
code = "lookup ccmp_latn_1 {
	sub fi by f i;
	sub fl by f l;
} ccmp_latn_1;

script latn;
lookup ccmp_latn_1;
";
name = ccmp;
},
{
automatic = 1;
code = "lookup locl_latn_0 {
	script latn;
	language ROM;
	sub Scedilla by Scommaaccent;
	sub scedilla by scommaaccent;
	sub Tcedilla by Tcommaaccent;
	sub tcedilla by tcommaaccent;
	language MOL;
	sub Scedilla by Scommaaccent;
	sub scedilla by scommaaccent;
	sub Tcedilla by Tcommaaccent;
	sub tcedilla by tcommaaccent;
} locl_latn_0;

lookup locl_latn_1 {
	script latn;
	language CAT;
	sub  l' periodcentered' l by ldot;
	sub  L' periodcentered' L by Ldot;
} locl_latn_1;
";
name = locl;
},
{
automatic = 1;
code = "sub one by onesuperior;
sub two by twosuperior;
sub three by threesuperior;
sub four by foursuperior;
";
name = sups;
},
{
automatic = 1;
code = "sub one slash four by onequarter;
sub one slash two by onehalf;

glyphs = (
{
glyphname = A;
lastChange = "2021-09-02 15:54:38 +0000";
layers = (
{
anchors = (
{
name = ogonek;
position = "{585.772, 0}";
},
{
name = top;
position = "{443.01, 700}";
}
);
guideLines = (
{
angle = -70.8724;
position = "{572.391, 86.5}";
},
{
angle = 70.5773;
position = "{174.891, 86.5}";
}
);
hints = (
{
horizontal = 1;
place = "{105.381, 22.381}";
type = Stem;
},
{
horizontal = 1;
place = "{630.381, -20}";
target = down;
type = TopGhost;
},
{
horizontal = 1;
place = "{-69.619, 21}";
target = up;
type = BottomGhost;
}
);
layerId = "0CF0EA28-C756-4A9E-9D7C-CFEF350B4CFE";
paths = (
{
closed = 1;
nodes = (
"74.772 0 LINE",
"170.184 173 LINE",
"507.184 173 LINE",
"532.772 0 LINE",
"649.772 0 LINE",
"540.01 700 LINE",
"345.01 700 LINE",
"-42.228 0 LINE"
);
},
{
closed = 1;
nodes = (
"494.08 268 LINE",
"222.08 268 LINE",
"407.114 605 LINE",
"443.114 605 LINE"
);
}
);
width = 707;
},
{
anchors = (
{
name = ogonek;
position = "{527.772, 0}";
},
{
name = top;
position = "{398.01, 700}";
}
);
guideLines = (
{
angle = -69.1455;
position = "{561.391, 105}";
},
{
angle = 68.9077;
position = "{91.891, 105}";
}
);
hints = (
{
horizontal = 1;
place = "{630.381, -20}";
target = down;
type = TopGhost;
},
{
horizontal = 1;
place = "{-69.619, 21}";
target = up;
type = BottomGhost;
}
);
layerId = "6E968933-CD79-43C6-9231-80D77C940F4D";
paths = (
{
closed = 1;
nodes = (
"-18.228 0 LINE",
"104.543 210 LINE",
"493.543 210 LINE",
"531.772 0 LINE",
"553.772 0 LINE",
"426.01 700 LINE",
"367.01 700 LINE",
"-40.228 0 LINE"
);
},
{
closed = 1;
nodes = (
"490.522 230 LINE",
"115.522 230 LINE",
"377.032 680 LINE",
"409.032 680 LINE"
);
}
);
width = 612.99653;
},
{
anchors = (
{
name = ogonek;
position = "{663.969, 1}";
},
{
name = top;
position = "{488.008, 700}";
}
);
guideLines = (
{
angle = -70.3462;
position = "{606.389, 70}";
},
{
angle = 70.71;
position = "{229.889, 70}";
}
);
hints = (
{
horizontal = 1;
place = "{305.381, 71.381}";
type = Stem;
},
{
horizontal = 1;
place = "{227.381, -20}";
target = down;
type = TopGhost;
},
{
horizontal = 1;
place = "{-69.619, 21}";
target = up;
type = BottomGhost;
}
);
layerId = "BAF31694-0472-4296-B0EA-1654553C45D2";
paths = (
{
closed = 1;
nodes = (
"135.77 0 LINE",
"212.617 140 LINE",
"539.617 140 LINE",
"561.77 0 LINE",
"741.77 0 LINE",
"627.008 700 LINE",
"351.008 700 LINE",
"-44.23 0 LINE"
);
},
{
closed = 1;
nodes = (
"515.659 286 LINE",
"292.659 286 LINE",
"439.967 554 LINE",
"474.967 554 LINE"
);
}
);
width = 797.0027;
},
{
anchors = (
{
name = ogonek;
position = "{564.772, 0}";
},
{
name = top;
position = "{426.01, 700}";
}
);
guideLines = (
{
angle = 69.7174;
position = "{143.391, 92}";
},
{
angle = -69.9919;
position = "{568.891, 92}";
}
);
hints = (
{
horizontal = 1;
place = "{630.381, -20}";
target = down;
type = TopGhost;
},
{
horizontal = 1;
place = "{-69.619, 21}";
target = up;
type = BottomGhost;
}
);
layerId = "9F107B1E-3A61-4335-981B-27DD48125C7E";
paths = (
{
closed = 1;
nodes = (
"39.772 0 LINE",
"144.372 184 LINE",
"502.372 184 LINE",
"532.772 0 LINE",
"613.772 0 LINE",
"498.01 700 LINE",
"354.01 700 LINE",
"-41.228 0 LINE"
);
},
{
closed = 1;
nodes = (
"491.295 254 LINE",
"184.295 254 LINE",
"396.086 630 LINE",
"429.086 630 LINE"
);
}
);
width = 671.9967;
}
);
leftMetricsKey = "=H*0.1";
rightMetricsKey = "=H*0.1";
unicode = 0041;
},
{
glyphname = AA;
lastChange = "2021-09-01 20:34:49 +0000";
layers = (
{
anchors = (
{
name = ogonek;
position = "{1270.037, 1}";
},
{
name = top;
position = "{1094.076, 700}";
}
);
hints = (
{
horizontal = 1;
place = "{305.381, 71.381}";
type = Stem;
},
{
horizontal = 1;
place = "{227.381, -20}";
target = down;
type = TopGhost;
},
{
horizontal = 1;
place = "{-69.619, 21}";
target = up;
type = BottomGhost;
},
{
horizontal = 1;
place = "{305.381, 71.381}";
type = Stem;
},
{
horizontal = 1;
place = "{227.381, -20}";
target = down;
type = TopGhost;
},
{
horizontal = 1;
place = "{-69.619, 21}";
target = up;
type = BottomGhost;
}
);
layerId = "BAF31694-0472-4296-B0EA-1654553C45D2";
paths = (
{
closed = 1;
nodes = (
"135.77 0 LINE",
"212.617 140 LINE",
"539.617 140 LINE",
"561.77 0 LINE",
"741.77 0 LINE",
"627.008 700 LINE",
"351.008 700 LINE",
"-44.23 0 LINE"
);
},
{
closed = 1;
nodes = (
"515.659 286 LINE",
"292.659 286 LINE",
"439.967 554 LINE",
"474.967 554 LINE"
);
},
{
closed = 1;
nodes = (
"741.838 0 LINE",
"818.685 140 LINE",
"1145.685 140 LINE",
"1167.838 0 LINE",
"1347.838 0 LINE",
"1233.076 700 LINE",
"957.076 700 LINE",
"561.838 0 LINE"
);
},
{
closed = 1;
nodes = (
"1121.727 286 LINE",
"898.727 286 LINE",
"1046.035 554 LINE",
"1081.035 554 LINE"
);
}
);
width = 1403.0694;
},
{
anchors = (
{
name = ogonek;
position = "{1099.831, 0}";
},
{
name = top;
position = "{970.069, 700}";
}
);
hints = (
{
horizontal = 1;
place = "{630.381, -20}";
target = down;
type = TopGhost;
},
{
horizontal = 1;
place = "{-69.619, 21}";
target = up;
type = BottomGhost;
},
{
horizontal = 1;
place = "{630.381, -20}";
target = down;
type = TopGhost;
},
{
horizontal = 1;
place = "{-69.619, 21}";
target = up;
type = BottomGhost;
}
);
layerId = "6E968933-CD79-43C6-9231-80D77C940F4D";
paths = (
{
closed = 1;
nodes = (
"-18.228 0 LINE",
"104.543 210 LINE",
"493.543 210 LINE",
"531.772 0 LINE",
"553.772 0 LINE",
"426.01 700 LINE",
"367.01 700 LINE",
"-40.228 0 LINE"
);
},
{
closed = 1;
nodes = (
"490.522 230 LINE",
"115.522 230 LINE",
"377.032 680 LINE",
"409.032 680 LINE"
);
},
{
closed = 1;
nodes = (
"553.831 0 LINE",
"676.602 210 LINE",
"1065.602 210 LINE",
"1103.831 0 LINE",
"1125.831 0 LINE",
"998.069 700 LINE",
"939.069 700 LINE",
"531.831 0 LINE"
);
},
{
closed = 1;
nodes = (
"1062.581 230 LINE",
"687.581 230 LINE",
"949.091 680 LINE",
"981.091 680 LINE"
);
}
);
width = 1185.06306;
},
{
anchors = (
{
name = ogonek;
position = "{1138.818, 0}";
},
{
name = top;
position = "{1000.056, 700}";
}
);
hints = (
{
horizontal = 1;
place = "{630.381, -20}";
target = down;
type = TopGhost;
},
{
horizontal = 1;
place = "{-69.619, 21}";
target = up;
type = BottomGhost;
},
{
horizontal = 1;
place = "{630.381, -20}";
target = down;
type = TopGhost;
},
{
horizontal = 1;
place = "{-69.619, 21}";
target = up;
type = BottomGhost;
}
);
layerId = "9F107B1E-3A61-4335-981B-27DD48125C7E";
paths = (
{
closed = 1;
nodes = (
"39.772 0 LINE",
"144.372 184 LINE",
"502.372 184 LINE",
"532.772 0 LINE",
"613.772 0 LINE",
"498.01 700 LINE",
"354.01 700 LINE",
"-41.228 0 LINE"
);
},
{
closed = 1;
nodes = (
"491.295 254 LINE",
"184.295 254 LINE",
"396.086 630 LINE",
"429.086 630 LINE"
);
},
{
closed = 1;
nodes = (
"613.818 0 LINE",
"718.418 184 LINE",
"1076.418 184 LINE",
"1106.818 0 LINE",
"1187.818 0 LINE",
"1072.056 700 LINE",
"928.056 700 LINE",
"532.818 0 LINE"
);
},
{
closed = 1;
nodes = (
"1065.341 254 LINE",
"758.341 254 LINE",
"970.132 630 LINE",
"1003.132 630 LINE"
);
}
);
width = 1246.0434;
},
{
anchors = (
{
name = ogonek;
position = "{1160.845, 0}";
},
{
name = top;
position = "{1018.083, 700}";
}
);
hints = (
{
horizontal = 1;
place = "{105.381, 22.381}";
type = Stem;
},
{
horizontal = 1;
place = "{630.381, -20}";
target = down;
type = TopGhost;
},
{
horizontal = 1;
place = "{-69.619, 21}";
target = up;
type = BottomGhost;
},
{
horizontal = 1;
place = "{105.381, 22.381}";
type = Stem;
},
{
horizontal = 1;
place = "{630.381, -20}";
target = down;
type = TopGhost;
},
{
horizontal = 1;
place = "{-69.619, 21}";
target = up;
type = BottomGhost;
}
);
layerId = "0CF0EA28-C756-4A9E-9D7C-CFEF350B4CFE";
paths = (
{
closed = 1;
nodes = (
"74.772 0 LINE",
"170.184 173 LINE",
"507.184 173 LINE",
"532.772 0 LINE",
"649.772 0 LINE",
"540.01 700 LINE",
"345.01 700 LINE",
"-42.228 0 LINE"
);
},
{
closed = 1;
nodes = (
"494.08 268 LINE",
"222.08 268 LINE",
"407.114 605 LINE",
"443.114 605 LINE"
);
},
{
closed = 1;
nodes = (
"649.845 0 LINE",
"745.257 173 LINE",
"1082.257 173 LINE",
"1107.845 0 LINE",
"1224.845 0 LINE",
"1115.083 700 LINE",
"920.083 700 LINE",
"532.845 0 LINE"
);
},
{
closed = 1;
nodes = (
"1069.153 268 LINE",
"797.153 268 LINE",
"982.187 605 LINE",
"1018.187 605 LINE"
);
}
);
width = 1282.07;
}
);
leftMetricsKey = "=H*0.1";
rightMetricsKey = "=H*0.1";
unicode = A732;
subCategory = "";
},
{
glyphname = Aacute;
lastChange = "2021-09-02 15:54:38 +0000";
layers = (
{
anchors = (
{
name = ogonek;
position = "{585.772, 0}";
},
{
name = top;
position = "{443.011, 700}";
}
);
hints = (
{
horizontal = 1;
place = "{79.942, -3.058}";
type = Stem;
},
{
horizontal = 1;
place = "{604.942, -20}";
target = down;
type = TopGhost;
},
{
horizontal = 1;
place = "{-95.058, 21}";
target = up;
type = BottomGhost;
}
);
layerId = "0CF0EA28-C756-4A9E-9D7C-CFEF350B4CFE";
paths = (
{
closed = 1;
nodes = (
"74.772 0 LINE",
"170.184 173 LINE",
"507.184 173 LINE",
"532.772 0 LINE",
"649.772 0 LINE",
"540.011 700 LINE",
"345.011 700 LINE",
"-42.228 0 LINE"
);
},
{
closed = 1;
nodes = (
"494.08 268 LINE",
"222.08 268 LINE",
"407.114 605 LINE",
"443.114 605 LINE"
);
},
{
closed = 1;
nodes = (
"351.651 833.931 LINE",
"334.826 749.343 LINE",
"577.458 858.099 LINE",
"596.888 955.778 LINE"
);
}
);
width = 707;
},
{
anchors = (
{
name = ogonek;
position = "{527.774, 0}";
},
{
name = top;
position = "{398.013, 700}";
}
);
hints = (
{
horizontal = 1;
place = "{609.614, -20}";
target = down;
type = TopGhost;
},
{
horizontal = 1;
place = "{-90.386, 21}";
target = up;
type = BottomGhost;
}
);
layerId = "6E968933-CD79-43C6-9231-80D77C940F4D";
paths = (
{
closed = 1;
nodes = (
"-18.226 0 LINE",
"104.546 210 LINE",
"493.546 210 LINE",
"531.774 0 LINE",
"553.774 0 LINE",
"426.013 700 LINE",
"367.013 700 LINE",
"-40.226 0 LINE"
);
},
{
closed = 1;
nodes = (
"490.524 230 LINE",
"115.524 230 LINE",
"377.034 680 LINE",
"409.034 680 LINE"
);
},
{
closed = 1;
nodes = (
"306.044 775.567 LINE",
"301.89 754.686 LINE",
"514.602 883.945 LINE",
"519.546 908.803 LINE"
);
}
);
width = 613.00653;
},
{
anchors = (
{
name = ogonek;
position = "{663.974, 1}";
},
{
name = top;
position = "{488.014, 700}";
}
);
hints = (
{
horizontal = 1;
place = "{276.505, 42.505}";
type = Stem;
},
{
horizontal = 1;
place = "{198.505, -20}";
target = down;
type = TopGhost;
},
{
horizontal = 1;
place = "{-98.495, 21}";
target = up;
type = BottomGhost;
}
);
layerId = "BAF31694-0472-4296-B0EA-1654553C45D2";
paths = (
{
closed = 1;
nodes = (
"135.775 0 LINE",
"212.623 140 LINE",
"539.623 140 LINE",
"561.775 0 LINE",
"741.775 0 LINE",
"627.014 700 LINE",
"351.014 700 LINE",
"-44.225 0 LINE"
);
},
{
closed = 1;
nodes = (
"515.664 286 LINE",
"292.664 286 LINE",
"439.972 554 LINE",
"474.972 554 LINE"
);
},
{
closed = 1;
nodes = (
"398.218 876.986 LINE",
"374.287 756.675 LINE",
"636.867 855.111 LINE",
"663.765 990.336 LINE"
);
}
);
width = 797.0067;
},
{
anchors = (
{
name = ogonek;
position = "{564.768, 0}";
},
{
name = top;
position = "{426.007, 700}";
}
);
hints = (
{
horizontal = 1;
place = "{606.658, -20}";
target = down;
type = TopGhost;
},
{
horizontal = 1;
place = "{-93.342, 21}";
target = up;
type = BottomGhost;
}
);
layerId = "9F107B1E-3A61-4335-981B-27DD48125C7E";
paths = (
{
closed = 1;
nodes = (
"39.768 0 LINE",
"144.368 184 LINE",
"502.368 184 LINE",
"532.768 0 LINE",
"613.768 0 LINE",
"498.007 700 LINE",
"354.007 700 LINE",
"-41.232 0 LINE"
);
},
{
closed = 1;
nodes = (
"491.292 254 LINE",
"184.292 254 LINE",
"396.083 630 LINE",
"429.083 630 LINE"
);
},
{
closed = 1;
nodes = (
"334.533 813.249 LINE",
"322.572 753.117 LINE",
"553.498 868.37 LINE",
"567.452 938.524 LINE"
);
}
);
width = 671.9967;
}
);
leftMetricsKey = A;
rightMetricsKey = A;
unicode = 00C1;
},
{
glyphname = Abreve;
lastChange = "2021-09-02 09:18:01 +0000";
layers = (
{
anchors = (
{
name = ogonek;
position = "{585.768, 0}";
},
{
name = top;
position = "{443.006, 700}";
}
);
hints = (
{
horizontal = 1;
place = "{83.648, 0.648}";
type = Stem;
},
{
horizontal = 1;
place = "{608.648, -20}";
target = down;
type = TopGhost;
},
{
horizontal = 1;
place = "{-91.352, 21}";
target = up;
type = BottomGhost;
},
{
place = "{112.898, -25.897}";
type = Stem;
},
{
place = "{347.898, -24.89}";
type = Stem;
},
{
horizontal = 1;
place = "{665.04, -1.729}";
type = Stem;
},
{
horizontal = 1;
place = "{665.04, 70.775}";
type = Stem;
}
);
layerId = "0CF0EA28-C756-4A9E-9D7C-CFEF350B4CFE";
paths = (
{
closed = 1;
nodes = (
"74.768 0 LINE",
"170.179 173 LINE",
"507.179 173 LINE",
"532.768 0 LINE",
"649.768 0 LINE",
"540.006 700 LINE",
"345.006 700 LINE",
"-42.232 0 LINE"
);
},
{
closed = 1;
nodes = (
"494.076 268 LINE",
"222.076 268 LINE",
"407.11 605 LINE",
"443.11 605 LINE"
);
},
{
closed = 1;
nodes = (
"637.472 918.519 LINE",
"571.472 918.519 LINE",
"562.459 873.204 OFFCURVE",
"537.05 846.015 OFFCURVE",
"472.05 846.015 CURVE SMOOTH",
"407.05 846.015 OFFCURVE",
"392.459 873.204 OFFCURVE",
"401.472 918.519 CURVE",
"336.472 918.519 LINE",
"332.266 897.372 LINE SMOOTH",
"315.641 813.791 OFFCURVE",
"360.223 756.392 OFFCURVE",
"454.223 756.392 CURVE SMOOTH",
"549.223 756.392 OFFCURVE",
"616.44 812.784 OFFCURVE",
"633.066 896.365 CURVE SMOOTH"
);
}
);
width = 707;
},
{
anchors = (
{
name = ogonek;
position = "{527.767, 0}";
},
{
name = top;
position = "{398.006, 700}";
}
);
hints = (
{
horizontal = 1;
place = "{611.097, -20}";
target = down;
type = TopGhost;
},
{
horizontal = 1;
place = "{-88.903, 21}";
target = up;
type = BottomGhost;
},
{
place = "{114.347, -68.022}";
type = Stem;
},
{
place = "{326.347, -66.034}";
type = Stem;
},
{
horizontal = 1;
place = "{683.681, 21}";
target = up;
type = BottomGhost;
},
{
horizontal = 1;
place = "{789.077, -20}";
target = down;
type = TopGhost;
}
);
layerId = "6E968933-CD79-43C6-9231-80D77C940F4D";
paths = (
{
closed = 1;
nodes = (
"-18.233 0 LINE",
"104.539 210 LINE",
"493.539 210 LINE",
"531.767 0 LINE",
"553.767 0 LINE",
"426.006 700 LINE",
"367.006 700 LINE",
"-40.233 0 LINE"
);
},
{
closed = 1;
nodes = (
"490.517 230 LINE",
"115.517 230 LINE",
"377.028 680 LINE",
"409.028 680 LINE"
);
},
{
closed = 1;
nodes = (
"555.573 893.888 LINE",
"534.573 893.888 LINE",
"523.299 837.213 OFFCURVE",
"480.773 804.401 OFFCURVE",
"418.773 804.401 CURVE",
"356.773 804.401 OFFCURVE",
"328.299 837.213 OFFCURVE",
"339.573 893.888 CURVE",
"318.573 893.888 LINE",
"317.584 888.917 LINE SMOOTH",
"308.09 841.191 OFFCURVE",
"330.015 785.51 OFFCURVE",
"415.015 785.51 CURVE",
"501.015 785.51 OFFCURVE",
"545.09 841.191 OFFCURVE",
"554.584 888.917 CURVE SMOOTH"
);
}
);
width = 612.99653;
},
{
anchors = (
{
name = ogonek;
position = "{663.974, 1}";
},
{
name = top;
position = "{488.014, 700}";
}
);
hints = (
{
horizontal = 1;
place = "{280.065, 46.065}";
type = Stem;
},
{
horizontal = 1;
place = "{202.065, -20}";
target = down;
type = TopGhost;
},
{
horizontal = 1;
place = "{-94.935, 21}";
target = up;
type = BottomGhost;
},
{
place = "{130.315, -8.431}";
type = Stem;
},
{
place = "{387.315, -8.431}";
type = Stem;
},
{
horizontal = 1;
place = "{665.718, 33.33}";
type = Stem;
},
{
horizontal = 1;
place = "{665.718, 98.953}";
type = Stem;
}
);
layerId = "BAF31694-0472-4296-B0EA-1654553C45D2";
paths = (
{
closed = 1;
nodes = (
"135.775 0 LINE",
"212.623 140 LINE",
"539.623 140 LINE",
"561.775 0 LINE",
"741.775 0 LINE",
"627.014 700 LINE",
"351.014 700 LINE",
"-44.225 0 LINE"
);
},
{
closed = 1;
nodes = (
"515.664 286 LINE",
"292.664 286 LINE",
"439.972 554 LINE",
"474.972 554 LINE"
);
},
{
closed = 1;
nodes = (
"710.645 954.541 LINE",
"623.645 954.541 LINE",
"615.338 912.781 OFFCURVE",
"590.394 887.923 OFFCURVE",
"525.394 887.923 CURVE SMOOTH",
"460.394 887.923 OFFCURVE",
"445.338 912.781 OFFCURVE",
"453.645 954.541 CURVE",
"366.645 954.541 LINE",
"362.887 935.649 LINE SMOOTH",
"340.143 821.305 OFFCURVE",
"400.078 760.653 OFFCURVE",
"500.078 760.653 CURVE SMOOTH",
"601.078 760.653 OFFCURVE",
"684.143 821.305 OFFCURVE",
"706.887 935.649 CURVE SMOOTH"
);
}
);
width = 797.0067;
},
{
anchors = (
{
name = ogonek;
position = "{564.769, 0}";
},
{
name = top;
position = "{426.007, 700}";
}
);
hints = (
{
horizontal = 1;
place = "{609.549, -20}";
target = down;
type = TopGhost;
},
{
horizontal = 1;
place = "{-90.451, 21}";
target = up;
type = BottomGhost;
},
{
place = "{478.299, -26.311}";
type = Stem;
},
{
place = "{558.299, 18.788}";
type = Stem;
},
{
horizontal = 1;
place = "{297.865, 21}";
target = up;
type = BottomGhost;
},
{
horizontal = 1;
place = "{337.953, -20}";
target = down;
type = TopGhost;
}
);
layerId = "9F107B1E-3A61-4335-981B-27DD48125C7E";
paths = (
{
closed = 1;
nodes = (
"39.769 0 LINE",
"144.368 184 LINE",
"502.368 184 LINE",
"532.769 0 LINE",
"613.769 0 LINE",
"498.007 700 LINE",
"354.007 700 LINE",
"-41.231 0 LINE"
);
},
{
closed = 1;
nodes = (
"491.292 254 LINE",
"184.292 254 LINE",
"396.083 630 LINE",
"429.083 630 LINE"
);
},
{
closed = 1;
nodes = (
"606.671 909.46 LINE",
"557.671 909.46 LINE",
"547.704 859.35 OFFCURVE",
"515.923 830.286 OFFCURVE",
"451.923 830.286 CURVE",
"387.923 830.286 OFFCURVE",
"367.704 859.35 OFFCURVE",
"377.671 909.46 CURVE",
"329.671 909.46 LINE",
"326.681 894.427 LINE SMOOTH",
"312.727 824.273 OFFCURVE",
"348.364 767.148 OFFCURVE",
"439.364 767.148 CURVE",
"531.364 767.148 OFFCURVE",
"589.527 823.271 OFFCURVE",
"603.482 893.425 CURVE SMOOTH"
);
}
);
width = 671.9967;
}
);
leftMetricsKey = A;
rightMetricsKey = A;
unicode = 0102;
},
{
glyphname = Acircumflex;
lastChange = "2021-09-02 15:54:38 +0000";
layers = (
{
anchors = (
{
name = ogonek;
position = "{585.767, 0}";
},
{
name = top;
position = "{443.006, 700}";
}
);
hints = (
{
horizontal = 1;
place = "{83.247, 0.247}";
type = Stem;
},
{
horizontal = 1;
place = "{608.247, -20}";
target = down;
type = TopGhost;
},
{
horizontal = 1;
place = "{-91.753, 21}";
target = up;
type = BottomGhost;
}
);
layerId = "0CF0EA28-C756-4A9E-9D7C-CFEF350B4CFE";
paths = (
{
closed = 1;
nodes = (
"74.767 0 LINE",
"170.179 173 LINE",
"507.179 173 LINE",
"532.767 0 LINE",
"649.767 0 LINE",
"540.006 700 LINE",
"345.006 700 LINE",
"-42.233 0 LINE"
);
},
{
closed = 1;
nodes = (
"494.076 268 LINE",
"222.076 268 LINE",
"407.109 605 LINE",
"443.109 605 LINE"
);
},
{
closed = 1;
nodes = (
"613.648 838.966 LINE",
"487.273 922.547 LINE",
"327.648 838.966 LINE",
"309.821 749.343 LINE",
"470.047 835.945 LINE",
"595.821 749.343 LINE"
);
}
);
width = 707;
},
{
anchors = (
{
name = ogonek;
position = "{527.774, 0}";
},
{
name = top;
position = "{398.013, 700}";
}
);
hints = (
{
horizontal = 1;
place = "{611.394, -20}";
target = down;
type = TopGhost;
},
{
horizontal = 1;
place = "{-88.606, 21}";
target = up;
type = BottomGhost;
}
);
layerId = "6E968933-CD79-43C6-9231-80D77C940F4D";
paths = (
{
closed = 1;
nodes = (
"-18.226 0 LINE",
"104.546 210 LINE",
"493.546 210 LINE",
"531.774 0 LINE",
"553.774 0 LINE",
"426.013 700 LINE",
"367.013 700 LINE",
"-40.226 0 LINE"
);
},
{
closed = 1;
nodes = (
"490.524 230 LINE",
"115.524 230 LINE",
"377.034 680 LINE",
"409.034 680 LINE"
);
},
{
closed = 1;
nodes = (
"543.966 810.367 LINE",
"435.986 890.906 LINE",
"295.966 810.367 LINE",
"291.615 788.493 LINE",
"431.635 869.031 LINE",
"539.615 788.493 LINE"
);
}
);
width = 613.00653;
},
{
anchors = (
{
name = ogonek;
position = "{663.966, 1}";
},
{
name = top;
position = "{488.006, 700}";
}
);
hints = (
{
horizontal = 1;
place = "{279.867, 45.867}";
type = Stem;
},
{
horizontal = 1;
place = "{201.867, -20}";
target = down;
type = TopGhost;
},
{
horizontal = 1;
place = "{-95.133, 21}";
target = up;
type = BottomGhost;
}
);
layerId = "BAF31694-0472-4296-B0EA-1654553C45D2";
paths = (
{
closed = 1;
nodes = (
"135.767 0 LINE",
"212.615 140 LINE",
"539.615 140 LINE",
"561.767 0 LINE",
"741.767 0 LINE",
"627.006 700 LINE",
"351.006 700 LINE",
"-44.233 0 LINE"
);
},
{
closed = 1;
nodes = (
"515.656 286 LINE",
"292.656 286 LINE",
"439.965 554 LINE",
"474.965 554 LINE"
);
},
{
closed = 1;
nodes = (
"679.606 878.974 LINE",
"539.033 956.53 LINE",
"367.606 878.974 LINE",
"343.675 758.664 LINE",
"515.695 839.202 LINE",
"655.675 758.664 LINE"
);
}
);
width = 796.9967;
},
{
anchors = (
{
name = ogonek;
position = "{564.769, 0}";
},
{
name = top;
position = "{426.008, 700}";
}
);
hints = (
{
horizontal = 1;
place = "{609.449, -20}";
target = down;
type = TopGhost;
},
{
horizontal = 1;
place = "{-90.551, 21}";
target = up;
type = BottomGhost;
}
);
layerId = "9F107B1E-3A61-4335-981B-27DD48125C7E";
paths = (
{
closed = 1;
nodes = (
"39.769 0 LINE",
"144.369 184 LINE",
"502.369 184 LINE",
"532.769 0 LINE",
"613.769 0 LINE",
"498.008 700 LINE",
"354.008 700 LINE",
"-41.231 0 LINE"
);
},
{
closed = 1;
nodes = (
"491.293 254 LINE",
"184.293 254 LINE",
"396.084 630 LINE",
"429.084 630 LINE"
);
},
{
closed = 1;
nodes = (
"587.524 828.282 LINE",
"467.871 910.462 LINE",
"315.524 828.282 LINE",
"302.766 764.141 LINE",
"455.511 848.326 LINE",
"574.766 764.141 LINE"
);
}
);
width = 671.9967;
}
);
leftMetricsKey = A;
rightMetricsKey = A;
unicode = 00C2;
},
{
glyphname = Adieresis;
lastChange = "2021-09-02 15:54:38 +0000";
layers = (
{
anchors = (
{
name = ogonek;
position = "{585.77, 0}";
},
{
name = top;
position = "{443.009, 700}";
}
);
hints = (
{
horizontal = 1;
place = "{85.45, 2.45}";
type = Stem;
},
{
horizontal = 1;
place = "{610.45, -20}";
target = down;
type = TopGhost;
},
{
horizontal = 1;
place = "{-89.55, 21}";
target = up;
type = BottomGhost;
},
{
place = "{118.7, 31.29}";
type = Stem;
},
{
place = "{290.7, 31.29}";
type = Stem;
},
{
horizontal = 1;
place = "{690.003, 31.29}";
type = Stem;
}
);
layerId = "0CF0EA28-C756-4A9E-9D7C-CFEF350B4CFE";
paths = (
{
closed = 1;
nodes = (
"74.77 0 LINE",
"170.182 173 LINE",
"507.182 173 LINE",
"532.77 0 LINE",
"649.77 0 LINE",
"540.009 700 LINE",
"345.009 700 LINE",
"-42.23 0 LINE"
);
},
{
closed = 1;
nodes = (
"494.079 268 LINE",
"222.079 268 LINE",
"407.112 605 LINE",
"443.112 605 LINE"
);
},
{
closed = 1;
nodes = (
"405.833 779.553 OFFCURVE",
"438.041 805.735 OFFCURVE",
"444.851 839.973 CURVE SMOOTH",
"451.461 873.204 OFFCURVE",
"429.87 900.393 OFFCURVE",
"396.87 900.393 CURVE SMOOTH",
"362.87 900.393 OFFCURVE",
"331.461 873.204 OFFCURVE",
"324.851 839.973 CURVE SMOOTH",
"318.041 805.735 OFFCURVE",
"338.833 779.553 OFFCURVE",
"372.833 779.553 CURVE SMOOTH"
);
},
{
closed = 1;
nodes = (
"577.833 779.553 OFFCURVE",
"610.041 805.735 OFFCURVE",
"616.851 839.973 CURVE SMOOTH",
"623.461 873.204 OFFCURVE",
"601.87 900.393 OFFCURVE",
"568.87 900.393 CURVE SMOOTH",
"534.87 900.393 OFFCURVE",
"503.461 873.204 OFFCURVE",
"496.851 839.973 CURVE SMOOTH",
"490.041 805.735 OFFCURVE",
"510.833 779.553 OFFCURVE",
"544.833 779.553 CURVE SMOOTH"
);
}
);
width = 707;
},
{
anchors = (
{
name = ogonek;
position = "{527.768, 0}";
},
{
name = top;
position = "{398.007, 700}";
}
);
hints = (
{
horizontal = 1;
place = "{614.558, -20}";
target = down;
type = TopGhost;
},
{
horizontal = 1;
place = "{-85.442, 21}";
target = up;
type = BottomGhost;
},
{
place = "{126.808, -24.789}";
type = Stem;
},
{
place = "{261.808, -25.784}";
type = Stem;
},
{
horizontal = 1;
place = "{711.005, -24.789}";
type = Stem;
}
);
layerId = "6E968933-CD79-43C6-9231-80D77C940F4D";
paths = (
{
closed = 1;
nodes = (
"-18.232 0 LINE",
"104.54 210 LINE",
"493.54 210 LINE",
"531.768 0 LINE",
"553.768 0 LINE",
"426.007 700 LINE",
"367.007 700 LINE",
"-40.232 0 LINE"
);
},
{
closed = 1;
nodes = (
"490.518 230 LINE",
"115.518 230 LINE",
"377.029 680 LINE",
"409.029 680 LINE"
);
},
{
closed = 1;
nodes = (
"367.587 798.436 OFFCURVE",
"384.356 812.356 OFFCURVE",
"387.52 828.265 CURVE SMOOTH",
"390.883 845.168 OFFCURVE",
"379.652 859.088 OFFCURVE",
"362.652 859.088 CURVE SMOOTH",
"345.652 859.088 OFFCURVE",
"329.883 845.168 OFFCURVE",
"326.52 828.265 CURVE SMOOTH",
"323.356 812.356 OFFCURVE",
"333.587 798.436 OFFCURVE",
"350.587 798.436 CURVE SMOOTH"
);
},
{
closed = 1;
nodes = (
"501.587 798.436 OFFCURVE",
"518.356 812.356 OFFCURVE",
"521.52 828.265 CURVE SMOOTH",
"524.883 845.168 OFFCURVE",
"513.652 859.088 OFFCURVE",
"497.652 859.088 CURVE SMOOTH",
"480.652 859.088 OFFCURVE",
"463.883 845.168 OFFCURVE",
"460.52 828.265 CURVE SMOOTH",
"457.356 812.356 OFFCURVE",
"468.587 798.436 OFFCURVE",
"485.587 798.436 CURVE SMOOTH"
);
}
);
width = 612.99653;
},
{
anchors = (
{
name = ogonek;
position = "{663.967, 1}";
},
{
name = top;
position = "{488.007, 700}";
}
);
hints = (
{
horizontal = 1;
place = "{282.438, 48.438}";
type = Stem;
},
{
horizontal = 1;
place = "{204.438, -20}";
target = down;
type = TopGhost;
},
{
horizontal = 1;
place = "{-92.562, 21}";
target = up;
type = BottomGhost;
},
{
place = "{127.688, 56.583}";
type = Stem;
},
{
place = "{330.688, 56.583}";
type = Stem;
},
{
horizontal = 1;
place = "{688.971, 56.583}";
type = Stem;
}
);
layerId = "BAF31694-0472-4296-B0EA-1654553C45D2";
paths = (
{
closed = 1;
nodes = (
"135.768 0 LINE",
"212.616 140 LINE",
"539.616 140 LINE",
"561.768 0 LINE",
"741.768 0 LINE",
"627.007 700 LINE",
"351.007 700 LINE",
"-44.232 0 LINE"
);
},
{
closed = 1;
nodes = (
"515.657 286 LINE",
"292.657 286 LINE",
"439.966 554 LINE",
"474.966 554 LINE"
);
},
{
closed = 1;
nodes = (
"444.225 781.533 OFFCURVE",
"483.554 813.351 OFFCURVE",
"491.861 855.111 CURVE SMOOTH",
"500.365 897.866 OFFCURVE",
"473.892 930.678 OFFCURVE",
"430.892 930.678 CURVE SMOOTH",
"388.892 930.678 OFFCURVE",
"350.365 897.866 OFFCURVE",
"341.861 855.111 CURVE SMOOTH",
"333.554 813.351 OFFCURVE",
"359.225 781.533 OFFCURVE",
"401.225 781.533 CURVE SMOOTH"
);
},
{
closed = 1;
nodes = (
"647.225 781.533 OFFCURVE",
"685.554 813.351 OFFCURVE",
"693.861 855.111 CURVE SMOOTH",
"702.365 897.866 OFFCURVE",
"676.892 930.678 OFFCURVE",
"633.892 930.678 CURVE SMOOTH",
"591.892 930.678 OFFCURVE",
"553.365 897.866 OFFCURVE",
"544.861 855.111 CURVE SMOOTH",
"536.554 813.351 OFFCURVE",
"562.225 781.533 OFFCURVE",
"604.225 781.533 CURVE SMOOTH"
);
}
);
width = 796.9967;
},
{
anchors = (
{
name = ogonek;
position = "{564.77, 0}";
},
{
name = top;
position = "{426.009, 700}";
}
);
hints = (
{
horizontal = 1;
place = "{612.14, -20}";
target = down;
type = TopGhost;
},
{
horizontal = 1;
place = "{-87.86, 21}";
target = up;
type = BottomGhost;
},
{
place = "{120.89, 10.356}";
type = Stem;
},
{
place = "{278.89, 10.356}";
type = Stem;
},
{
horizontal = 1;
place = "{698.33, 10.356}";
type = Stem;
}
);
layerId = "9F107B1E-3A61-4335-981B-27DD48125C7E";
paths = (
{
closed = 1;
nodes = (
"39.77 0 LINE",
"144.37 184 LINE",
"502.37 184 LINE",
"532.77 0 LINE",
"613.77 0 LINE",
"498.009 700 LINE",
"354.009 700 LINE",
"-41.23 0 LINE"
);
},
{
closed = 1;
nodes = (
"491.294 254 LINE",
"184.294 254 LINE",
"396.085 630 LINE",
"429.085 630 LINE"
);
},
{
closed = 1;
nodes = (
"390.954 785.187 OFFCURVE",
"417.14 806.234 OFFCURVE",
"422.522 833.293 CURVE SMOOTH",
"427.905 860.352 OFFCURVE",
"410.49 883.403 OFFCURVE",
"383.49 883.403 CURVE SMOOTH",
"355.49 883.403 OFFCURVE",
"329.905 860.352 OFFCURVE",
"324.522 833.293 CURVE SMOOTH",
"319.14 806.234 OFFCURVE",
"335.954 785.187 OFFCURVE",
"363.954 785.187 CURVE SMOOTH"
);
},
{
closed = 1;
nodes = (
"547.954 785.187 OFFCURVE",
"575.14 806.234 OFFCURVE",
"580.522 833.293 CURVE SMOOTH",
"585.905 860.352 OFFCURVE",
"567.49 883.403 OFFCURVE",
"541.49 883.403 CURVE SMOOTH",
"513.49 883.403 OFFCURVE",
"487.905 860.352 OFFCURVE",
"482.522 833.293 CURVE SMOOTH",
"477.14 806.234 OFFCURVE",
"493.954 785.187 OFFCURVE",
"521.954 785.187 CURVE SMOOTH"
);
}
);
width = 671.9967;
}
);
leftMetricsKey = A;
rightMetricsKey = A;
unicode = 00C4;
},
{
glyphname = Agrave;
lastChange = "2021-09-02 15:54:38 +0000";
layers = (
{
anchors = (
{
name = ogonek;
position = "{585.772, 0}";
},
{
name = top;
position = "{443.011, 700}";
}
);
hints = (
{
horizontal = 1;
place = "{79.942, -3.058}";
type = Stem;
},
{
horizontal = 1;
place = "{604.942, -20}";
target = down;
type = TopGhost;
},
{
horizontal = 1;
place = "{-95.058, 21}";
target = up;
type = BottomGhost;
}
);
layerId = "0CF0EA28-C756-4A9E-9D7C-CFEF350B4CFE";
paths = (
{
closed = 1;
nodes = (
"74.772 0 LINE",
"170.184 173 LINE",
"507.184 173 LINE",
"532.772 0 LINE",
"649.772 0 LINE",
"540.011 700 LINE",
"345.011 700 LINE",
"-42.228 0 LINE"
);
},
{
closed = 1;
nodes = (
"494.08 268 LINE",
"222.08 268 LINE",
"407.114 605 LINE",
"443.114 605 LINE"
);
},
{
closed = 1;
nodes = (
"356.859 860.113 LINE",
"555.826 749.343 LINE",
"572.651 833.931 LINE",
"375.888 955.778 LINE"
);
}
);
width = 707;
},
{
anchors = (
{
name = ogonek;
position = "{527.774, 0}";
},
{
name = top;
position = "{398.013, 700}";
}
);
hints = (
{
horizontal = 1;
place = "{609.614, -20}";
target = down;
type = TopGhost;
},
{
horizontal = 1;
place = "{-90.386, 21}";
target = up;
type = BottomGhost;
}
);
layerId = "6E968933-CD79-43C6-9231-80D77C940F4D";
paths = (
{
closed = 1;
nodes = (
"-18.226 0 LINE",
"104.546 210 LINE",
"493.546 210 LINE",
"531.774 0 LINE",
"553.774 0 LINE",
"426.013 700 LINE",
"367.013 700 LINE",
"-40.226 0 LINE"
);
},
{
closed = 1;
nodes = (
"490.524 230 LINE",
"115.524 230 LINE",
"377.034 680 LINE",
"409.034 680 LINE"
);
},
{
closed = 1;
nodes = (
"327.602 883.945 LINE",
"488.89 754.686 LINE",
"493.044 775.567 LINE",
"332.546 908.803 LINE"
);
}
);
width = 613.00653;
},
{
anchors = (
{
name = ogonek;
position = "{663.974, 1}";
},
{
name = top;
position = "{488.014, 700}";
}
);
hints = (
{
horizontal = 1;
place = "{276.505, 42.505}";
type = Stem;
},
{
horizontal = 1;
place = "{198.505, -20}";
target = down;
type = TopGhost;
},
{
horizontal = 1;
place = "{-98.495, 21}";
target = up;
type = BottomGhost;
}
);
layerId = "BAF31694-0472-4296-B0EA-1654553C45D2";
paths = (
{
closed = 1;
nodes = (
"135.775 0 LINE",
"212.623 140 LINE",
"539.623 140 LINE",
"561.775 0 LINE",
"741.775 0 LINE",
"627.014 700 LINE",
"351.014 700 LINE",
"-44.225 0 LINE"
);
},
{
closed = 1;
nodes = (
"515.664 286 LINE",
"292.664 286 LINE",
"439.972 554 LINE",
"474.972 554 LINE"
);
},
{
closed = 1;
nodes = (
"393.867 855.111 LINE",
"617.287 756.675 LINE",
"641.218 876.986 LINE",
"420.765 990.336 LINE"
);
}
);
width = 797.0067;
},
{
anchors = (
{
name = ogonek;
position = "{564.768, 0}";
},
{
name = top;
position = "{426.007, 700}";
}
);
hints = (
{
horizontal = 1;
place = "{606.658, -20}";
target = down;
type = TopGhost;
},
{
horizontal = 1;
place = "{-93.342, 21}";
target = up;
type = BottomGhost;
}
);
layerId = "9F107B1E-3A61-4335-981B-27DD48125C7E";
paths = (
{
closed = 1;
nodes = (
"39.768 0 LINE",
"144.368 184 LINE",
"502.368 184 LINE",
"532.768 0 LINE",
"613.768 0 LINE",
"498.007 700 LINE",
"354.007 700 LINE",
"-41.232 0 LINE"
);
},
{
closed = 1;
nodes = (
"491.292 254 LINE",
"184.292 254 LINE",
"396.083 630 LINE",
"429.083 630 LINE"
);
},
{
closed = 1;
nodes = (
"345.697 869.372 LINE",
"530.572 753.117 LINE",
"542.533 813.249 LINE",
"359.452 938.524 LINE"
);
}
);
width = 671.9967;
}
);
leftMetricsKey = A;
rightMetricsKey = A;
unicode = 00C0;
},
{
glyphname = Amacron;
lastChange = "2021-09-02 09:18:01 +0000";
layers = (
{
anchors = (
{
name = ogonek;
position = "{585.775, 0}";
},
{
name = top;
position = "{443.014, 700}";
}
);
hints = (
{
horizontal = 1;
place = "{88.455, 5.455}";
type = Stem;
},
{
horizontal = 1;
place = "{613.455, -20}";
target = down;
type = TopGhost;
},
{
horizontal = 1;
place = "{-86.545, 21}";
target = up;
type = BottomGhost;
},
{
horizontal = 1;
place = "{698.043, -0.95}";
type = Stem;
}
);
layerId = "0CF0EA28-C756-4A9E-9D7C-CFEF350B4CFE";
paths = (
{
closed = 1;
nodes = (
"74.775 0 LINE",
"170.187 173 LINE",
"507.187 173 LINE",
"532.775 0 LINE",
"649.775 0 LINE",
"540.014 700 LINE",
"345.014 700 LINE",
"-42.225 0 LINE"
);
},
{
closed = 1;
nodes = (
"494.083 268 LINE",
"222.083 268 LINE",
"407.117 605 LINE",
"443.117 605 LINE"
);
},
{
closed = 1;
nodes = (
"276.839 784.588 LINE",
"642.839 784.588 LINE",
"659.865 870.183 LINE",
"293.865 870.183 LINE"
);
}
);
width = 707;
},
{
anchors = (
{
name = ogonek;
position = "{527.774, 0}";
},
{
name = top;
position = "{398.013, 700}";
}
);
hints = (
{
horizontal = 1;
place = "{616.734, -20}";
target = down;
type = TopGhost;
},
{
horizontal = 1;
place = "{-83.266, 21}";
target = up;
type = BottomGhost;
},
{
horizontal = 1;
place = "{721.135, 21}";
target = up;
type = BottomGhost;
},
{
horizontal = 1;
place = "{739.033, -20}";
target = down;
type = TopGhost;
}
);
layerId = "6E968933-CD79-43C6-9231-80D77C940F4D";
paths = (
{
closed = 1;
nodes = (
"-18.226 0 LINE",
"104.546 210 LINE",
"493.546 210 LINE",
"531.774 0 LINE",
"553.774 0 LINE",
"426.013 700 LINE",
"367.013 700 LINE",
"-40.226 0 LINE"
);
},
{
closed = 1;
nodes = (
"490.524 230 LINE",
"115.524 230 LINE",
"377.034 680 LINE",
"409.034 680 LINE"
);
},
{
closed = 1;
nodes = (
"266.35 817.327 LINE",
"576.35 817.327 LINE",
"580.306 837.213 LINE",
"270.306 837.213 LINE"
);
}
);
width = 613.00653;
},
{
anchors = (
{
name = ogonek;
position = "{663.972, 1}";
},
{
name = top;
position = "{488.011, 700}";
}
);
hints = (
{
horizontal = 1;
place = "{285.603, 51.603}";
type = Stem;
},
{
horizontal = 1;
place = "{207.603, -20}";
target = down;
type = TopGhost;
},
{
horizontal = 1;
place = "{-89.397, 21}";
target = up;
type = BottomGhost;
},
{
horizontal = 1;
place = "{690.147, 30.913}";
type = Stem;
}
);
layerId = "BAF31694-0472-4296-B0EA-1654553C45D2";
paths = (
{
closed = 1;
nodes = (
"135.773 0 LINE",
"212.621 140 LINE",
"539.621 140 LINE",
"561.773 0 LINE",
"741.773 0 LINE",
"627.011 700 LINE",
"351.011 700 LINE",
"-44.227 0 LINE"
);
},
{
closed = 1;
nodes = (
"515.662 286 LINE",
"292.662 286 LINE",
"439.97 554 LINE",
"474.97 554 LINE"
);
},
{
closed = 1;
nodes = (
"302.834 779.544 LINE",
"705.834 779.544 LINE",
"729.567 898.86 LINE",
"326.567 898.86 LINE"
);
}
);
width = 796.9967;
},
{
anchors = (
{
name = ogonek;
position = "{564.772, 0}";
},
{
name = top;
position = "{426.01, 700}";
}
);
hints = (
{
horizontal = 1;
place = "{614.732, -20}";
target = down;
type = TopGhost;
},
{
horizontal = 1;
place = "{-85.268, 21}";
target = up;
type = BottomGhost;
},
{
horizontal = 1;
place = "{309.061, 21}";
target = up;
type = BottomGhost;
},
{
horizontal = 1;
place = "{316.076, -20}";
target = down;
type = TopGhost;
}
);
layerId = "9F107B1E-3A61-4335-981B-27DD48125C7E";
paths = (
{
closed = 1;
nodes = (
"39.772 0 LINE",
"144.372 184 LINE",
"502.372 184 LINE",
"532.772 0 LINE",
"613.772 0 LINE",
"498.01 700 LINE",
"354.01 700 LINE",
"-41.228 0 LINE"
);
},
{
closed = 1;
nodes = (
"491.295 254 LINE",
"184.295 254 LINE",
"396.086 630 LINE",
"429.086 630 LINE"
);
},
{
closed = 1;
nodes = (
"273.347 797.214 LINE",
"618.347 797.214 LINE",
"630.308 857.346 LINE",
"285.308 857.346 LINE"
);
}
);
width = 671.9967;
}
);
leftMetricsKey = A;
rightMetricsKey = A;
unicode = 0100;
},
{
glyphname = Aogonek;
lastChange = "2021-09-02 09:18:01 +0000";
layers = (
{
anchors = (
{
name = _ogonek;
position = "{-383.725, 0}";
},
{
name = ogonek;
position = "{585.775, 0}";
},
{
name = top;
position = "{443.013, 700}";
}
);
hints = (
{
place = "{407.565, 44.565}";
type = Stem;
},
{
place = "{407.565, 165.565}";
type = Stem;
},
{
horizontal = 1;
place = "{-261.435, 25.565}";
type = Stem;
},
{
horizontal = 1;
place = "{126.565, 43.565}";
type = Stem;
},
{
horizontal = 1;
place = "{651.565, -20}";
target = down;
type = TopGhost;
},
{
horizontal = 1;
place = "{-48.435, 21}";
target = up;
type = BottomGhost;
}
);
layerId = "0CF0EA28-C756-4A9E-9D7C-CFEF350B4CFE";
paths = (
{
closed = 1;
nodes = (
"540.032 39 LINE SMOOTH",
"437.28 -5 OFFCURVE",
"394.732 -53 OFFCURVE",
"384.588 -104 CURVE SMOOTH",
"368.675 -184 OFFCURVE",
"432.907 -213 OFFCURVE",
"495.907 -213 CURVE SMOOTH",
"524.907 -213 OFFCURVE",
"555.299 -206 OFFCURVE",
"580.089 -197 CURVE",
"594.411 -125 LINE",
"569.621 -134 OFFCURVE",
"544.626 -139 OFFCURVE",
"525.626 -139 CURVE SMOOTH",
"491.626 -139 OFFCURVE",
"474.405 -120 OFFCURVE",
"479.975 -92 CURVE SMOOTH",
"484.749 -68 OFFCURVE",
"502.926 -47 OFFCURVE",
"550.302 -25 CURVE SMOOTH",
"604.275 0 LINE",
"585.812 58 LINE"
);
},
{
closed = 1;
nodes = (
"74.775 0 LINE",
"170.187 173 LINE",
"507.187 173 LINE",
"532.775 0 LINE",
"649.775 0 LINE",
"540.013 700 LINE",
"345.013 700 LINE",
"-42.225 0 LINE"
);
},
{
closed = 1;
nodes = (
"494.083 268 LINE",
"222.083 268 LINE",
"407.117 605 LINE",
"443.117 605 LINE"
);
}
);
width = 707;
},
{
anchors = (
{
name = _ogonek;
position = "{-319.732, 0}";
},
{
name = ogonek;
position = "{527.768, 0}";
},
{
name = top;
position = "{398.007, 700}";
}
);
hints = (
{
place = "{371.178, -29.822}";
type = Stem;
},
{
horizontal = 1;
place = "{-235.822, 21}";
target = up;
type = BottomGhost;
},
{
horizontal = 1;
place = "{649.178, -20}";
target = down;
type = TopGhost;
},
{
horizontal = 1;
place = "{-50.822, 21}";
target = up;
type = BottomGhost;
}
);
layerId = "6E968933-CD79-43C6-9231-80D77C940F4D";
paths = (
{
closed = 1;
nodes = (
"467.284 -15 LINE SMOOTH",
"398.715 -43 OFFCURVE",
"367.952 -77 OFFCURVE",
"360.393 -115 CURVE SMOOTH",
"350.248 -166 OFFCURVE",
"384.673 -189 OFFCURVE",
"436.673 -189 CURVE SMOOTH",
"455.673 -189 OFFCURVE",
"478.469 -185 OFFCURVE",
"501.06 -177 CURVE",
"505.238 -156 LINE",
"482.646 -164 OFFCURVE",
"459.652 -169 OFFCURVE",
"439.652 -169 CURVE SMOOTH",
"400.652 -169 OFFCURVE",
"374.033 -152 OFFCURVE",
"381.592 -114 CURVE SMOOTH",
"387.36 -85 OFFCURVE",
"411.129 -56 OFFCURVE",
"467.704 -33 CURVE SMOOTH",
"545.268 0 LINE",
"541.45 16 LINE"
);
},
{
closed = 1;
nodes = (
"-18.232 0 LINE",
"104.539 210 LINE",
"493.539 210 LINE",
"531.768 0 LINE",
"553.768 0 LINE",
"426.007 700 LINE",
"367.007 700 LINE",
"-40.232 0 LINE"
);
},
{
closed = 1;
nodes = (
"490.518 230 LINE",
"115.518 230 LINE",
"377.028 680 LINE",
"409.028 680 LINE"
);
}
);
width = 612.99553;
},
{
anchors = (
{
name = _ogonek;
position = "{231.471, 1}";
},
{
name = ogonek;
position = "{663.971, 1}";
},
{
name = top;
position = "{488.011, 700}";
}
);
hints = (
{
place = "{146.062, -8.938}";
type = Stem;
},
{
place = "{408.062, 132.062}";
type = Stem;
},
{
horizontal = 1;
place = "{-265.938, 51.062}";
type = Stem;
},
{
horizontal = 1;
place = "{327.062, 93.062}";
type = Stem;
},
{
horizontal = 1;
place = "{249.062, -20}";
target = down;
type = TopGhost;
},
{
horizontal = 1;
place = "{-47.938, 21}";
target = up;
type = BottomGhost;
}
);
layerId = "BAF31694-0472-4296-B0EA-1654553C45D2";
paths = (
{
closed = 1;
nodes = (
"605.599 67 LINE SMOOTH",
"464.858 13 OFFCURVE",
"418.912 -37 OFFCURVE",
"406.381 -100 CURVE SMOOTH",
"390.468 -180 OFFCURVE",
"446.909 -218 OFFCURVE",
"530.909 -218 CURVE SMOOTH",
"567.909 -218 OFFCURVE",
"603.103 -212 OFFCURVE",
"633.893 -203 CURVE",
"653.585 -104 LINE",
"623.596 -114 OFFCURVE",
"596.602 -119 OFFCURVE",
"575.602 -119 CURVE SMOOTH",
"547.602 -119 OFFCURVE",
"532.988 -107 OFFCURVE",
"537.166 -86 CURVE SMOOTH",
"540.945 -67 OFFCURVE",
"557.724 -48 OFFCURVE",
"617.697 -23 CURVE SMOOTH",
"668.073 -1 LINE",
"647.981 84 LINE"
);
},
{
closed = 1;
nodes = (
"135.772 0 LINE",
"212.62 140 LINE",
"539.62 140 LINE",
"561.772 0 LINE",
"741.772 0 LINE",
"627.011 700 LINE",
"351.011 700 LINE",
"-44.228 0 LINE"
);
},
{
closed = 1;
nodes = (
"515.661 286 LINE",
"292.661 286 LINE",
"439.97 554 LINE",
"474.97 554 LINE"
);
}
);
width = 796.99623;
},
{
anchors = (
{
name = _ogonek;
position = "{-359.73, 0}";
},
{
name = ogonek;
position = "{564.77, 0}";
},
{
name = top;
position = "{426.008, 700}";
}
);
hints = (
{
place = "{-24.33, 4.67}";
type = Stem;
},
{
horizontal = 1;
place = "{-118.33, 21}";
target = up;
type = BottomGhost;
},
{
horizontal = 1;
place = "{650.67, -20}";
target = down;
type = TopGhost;
},
{
horizontal = 1;
place = "{-49.33, 21}";
target = up;
type = BottomGhost;
}
);
layerId = "9F107B1E-3A61-4335-981B-27DD48125C7E";
paths = (
{
closed = 1;
nodes = (
"520.049 19 LINE SMOOTH",
"430.49 -19 OFFCURVE",
"391.937 -62 OFFCURVE",
"382.787 -108 CURVE SMOOTH",
"369.062 -177 OFFCURVE",
"422.692 -204 OFFCURVE",
"481.692 -204 CURVE SMOOTH",
"506.692 -204 OFFCURVE",
"533.885 -198 OFFCURVE",
"557.476 -190 CURVE",
"568.019 -137 LINE",
"544.427 -145 OFFCURVE",
"520.433 -150 OFFCURVE",
"501.433 -150 CURVE SMOOTH",
"465.433 -150 OFFCURVE",
"444.013 -132 OFFCURVE",
"450.378 -100 CURVE SMOOTH",
"455.55 -74 OFFCURVE",
"476.324 -50 OFFCURVE",
"526.7 -28 CURVE SMOOTH",
"589.27 0 LINE",
"576.624 42 LINE"
);
},
{
closed = 1;
nodes = (
"39.77 0 LINE",
"144.37 184 LINE",
"502.37 184 LINE",
"532.77 0 LINE",
"613.77 0 LINE",
"498.008 700 LINE",
"354.008 700 LINE",
"-41.23 0 LINE"
);
},
{
closed = 1;
nodes = (
"491.293 254 LINE",
"184.293 254 LINE",
"396.085 630 LINE",
"429.085 630 LINE"
);
}
);
width = 671.99707;
}
);
leftMetricsKey = A;
rightMetricsKey = A;
unicode = 0104;
},
{
glyphname = Aring;
lastChange = "2021-09-02 15:54:38 +0000";
layers = (
{
anchors = (
{
name = ogonek;
position = "{585.771, 0}";
},
{
name = top;
position = "{443.009, 700}";
}
);
hints = (
{
horizontal = 1;
place = "{79.041, -3.959}";
type = Stem;
},
{
horizontal = 1;
place = "{604.041, -20}";
target = down;
type = TopGhost;
},
{
horizontal = 1;
place = "{-95.959, 21}";
target = up;
type = BottomGhost;
},
{
place = "{146.291, -31.511}";
type = Stem;
},
{
place = "{307.291, -31.511}";
type = Stem;
},
{
horizontal = 1;
place = "{648.349, -36.546}";
type = Stem;
},
{
horizontal = 1;
place = "{810.476, -37.553}";
type = Stem;
}
);
layerId = "0CF0EA28-C756-4A9E-9D7C-CFEF350B4CFE";
paths = (
{
closed = 1;
nodes = (
"74.771 0 LINE",
"170.182 173 LINE",
"507.182 173 LINE",
"532.771 0 LINE",
"649.771 0 LINE",
"540.009 700 LINE",
"345.009 700 LINE",
"-42.229 0 LINE"
);
},
{
closed = 1;
nodes = (
"494.079 268 LINE",
"222.079 268 LINE",
"407.113 605 LINE",
"443.113 605 LINE"
);
},
{
closed = 1;
nodes = (
"600.277 922.547 OFFCURVE",
"558.689 964.841 OFFCURVE",
"495.689 964.841 CURVE SMOOTH",
"434.689 964.841 OFFCURVE",
"375.277 922.547 OFFCURVE",
"361.656 854.071 CURVE SMOOTH",
"348.235 786.602 OFFCURVE",
"390.823 744.308 OFFCURVE",
"451.823 744.308 CURVE SMOOTH",
"514.823 744.308 OFFCURVE",
"573.235 786.602 OFFCURVE",
"586.656 854.071 CURVE SMOOTH"
);
},
{
closed = 1;
nodes = (
"516.847 824.868 OFFCURVE",
"490.641 803.721 OFFCURVE",
"463.641 803.721 CURVE SMOOTH",
"437.641 803.721 OFFCURVE",
"419.847 824.868 OFFCURVE",
"425.856 855.078 CURVE SMOOTH",
"432.066 886.295 OFFCURVE",
"458.072 906.435 OFFCURVE",
"484.072 906.435 CURVE SMOOTH",
"511.072 906.435 OFFCURVE",
"529.066 886.295 OFFCURVE",
"522.856 855.078 CURVE SMOOTH"
);
}
);
width = 707;
},
{
anchors = (
{
name = ogonek;
position = "{527.773, 0}";
},
{
name = top;
position = "{398.011, 700}";
}
);
hints = (
{
horizontal = 1;
place = "{607.043, -20}";
target = down;
type = TopGhost;
},
{
horizontal = 1;
place = "{-92.957, 21}";
target = up;
type = BottomGhost;
},
{
place = "{128.293, -72.077}";
type = Stem;
},
{
place = "{294.293, -72.077}";
type = Stem;
},
{
horizontal = 1;
place = "{664.712, 83.034}";
type = Stem;
}
);
layerId = "6E968933-CD79-43C6-9231-80D77C940F4D";
paths = (
{
closed = 1;
nodes = (
"-18.227 0 LINE",
"104.544 210 LINE",
"493.544 210 LINE",
"531.773 0 LINE",
"553.773 0 LINE",
"426.011 700 LINE",
"367.011 700 LINE",
"-40.227 0 LINE"
);
},
{
closed = 1;
nodes = (
"490.523 230 LINE",
"115.523 230 LINE",
"377.033 680 LINE",
"409.033 680 LINE"
);
},
{
closed = 1;
nodes = (
"527.765 899.854 OFFCURVE",
"492.687 934.655 OFFCURVE",
"443.687 934.655 CURVE SMOOTH",
"394.687 934.655 OFFCURVE",
"346.765 899.854 OFFCURVE",
"335.689 844.173 CURVE SMOOTH",
"324.614 788.493 OFFCURVE",
"358.889 754.687 OFFCURVE",
"407.889 754.687 CURVE SMOOTH",
"456.889 754.687 OFFCURVE",
"505.614 788.493 OFFCURVE",
"516.689 844.173 CURVE SMOOTH"
);
},
{
closed = 1;
nodes = (
"486.987 800.424 OFFCURVE",
"451.647 773.578 OFFCURVE",
"411.647 773.578 CURVE SMOOTH",
"371.647 773.578 OFFCURVE",
"347.987 800.424 OFFCURVE",
"356.689 844.173 CURVE SMOOTH",
"365.589 888.917 OFFCURVE",
"399.929 915.763 OFFCURVE",
"439.929 915.763 CURVE SMOOTH",
"479.929 915.763 OFFCURVE",
"504.589 888.917 OFFCURVE",
"495.689 844.173 CURVE SMOOTH"
);
}
);
width = 612.99653;
},
{
anchors = (
{
name = ogonek;
position = "{663.966, 1}";
},
{
name = top;
position = "{488.006, 700}";
}
);
hints = (
{
horizontal = 1;
place = "{277.197, 43.197}";
type = Stem;
},
{
horizontal = 1;
place = "{199.197, -20}";
target = down;
type = TopGhost;
},
{
horizontal = 1;
place = "{-97.803, 21}";
target = up;
type = BottomGhost;
},
{
place = "{175.447, -21.242}";
type = Stem;
},
{
place = "{346.447, -21.242}";
type = Stem;
},
{
horizontal = 1;
place = "{641.97, -24.225}";
type = Stem;
},
{
horizontal = 1;
place = "{811.995, -24.225}";
type = Stem;
}
);
layerId = "BAF31694-0472-4296-B0EA-1654553C45D2";
paths = (
{
closed = 1;
nodes = (
"135.767 0 LINE",
"212.615 140 LINE",
"539.615 140 LINE",
"561.767 0 LINE",
"741.767 0 LINE",
"627.006 700 LINE",
"351.006 700 LINE",
"-44.233 0 LINE"
);
},
{
closed = 1;
nodes = (
"515.656 286 LINE",
"292.656 286 LINE",
"439.965 554 LINE",
"474.965 554 LINE"
);
},
{
closed = 1;
nodes = (
"658.077 936.644 OFFCURVE",
"612.373 983.376 OFFCURVE",
"544.373 983.376 CURVE SMOOTH",
"476.373 983.376 OFFCURVE",
"411.077 936.644 OFFCURVE",
"396.046 861.077 CURVE SMOOTH",
"381.213 786.505 OFFCURVE",
"427.917 739.772 OFFCURVE",
"495.917 739.772 CURVE SMOOTH",
"563.917 739.772 OFFCURVE",
"628.213 786.505 OFFCURVE",
"643.046 861.077 CURVE SMOOTH"
);
},
{
closed = 1;
nodes = (
"561.508 833.237 OFFCURVE",
"536.553 813.351 OFFCURVE",
"510.553 813.351 CURVE SMOOTH",
"484.553 813.351 OFFCURVE",
"467.508 833.237 OFFCURVE",
"473.244 862.071 CURVE SMOOTH",
"478.979 890.906 OFFCURVE",
"503.737 909.798 OFFCURVE",
"529.737 909.798 CURVE SMOOTH",
"555.737 909.798 OFFCURVE",
"572.979 890.906 OFFCURVE",
"567.244 862.071 CURVE SMOOTH"
);
}
);
width = 796.9967;
},
{
anchors = (
{
name = ogonek;
position = "{564.774, 0}";
},
{
name = top;
position = "{426.013, 700}";
}
);
hints = (
{
horizontal = 1;
place = "{604.764, -20}";
target = down;
type = TopGhost;
},
{
horizontal = 1;
place = "{-95.236, 21}";
target = up;
type = BottomGhost;
},
{
place = "{239.514, -47.13}";
type = Stem;
},
{
place = "{571.514, -50.137}";
type = Stem;
},
{
horizontal = 1;
place = "{759.103, 7.991}";
type = Stem;
}
);
layerId = "9F107B1E-3A61-4335-981B-27DD48125C7E";
paths = (
{
closed = 1;
nodes = (
"39.774 0 LINE",
"144.374 184 LINE",
"502.374 184 LINE",
"532.774 0 LINE",
"613.774 0 LINE",
"498.013 700 LINE",
"354.013 700 LINE",
"-41.226 0 LINE"
);
},
{
closed = 1;
nodes = (
"491.298 254 LINE",
"184.298 254 LINE",
"396.089 630 LINE",
"429.089 630 LINE"
);
},
{
closed = 1;
nodes = (
"573.272 917.478 OFFCURVE",
"534.246 957.566 OFFCURVE",
"477.246 957.566 CURVE SMOOTH",
"420.246 957.566 OFFCURVE",
"365.272 917.478 OFFCURVE",
"352.713 854.339 CURVE SMOOTH",
"340.154 791.201 OFFCURVE",
"379.379 752.115 OFFCURVE",
"436.379 752.115 CURVE SMOOTH",
"493.379 752.115 OFFCURVE",
"548.154 791.201 OFFCURVE",
"560.713 854.339 CURVE SMOOTH"
);
},
{
closed = 1;
nodes = (
"506.736 819.262 OFFCURVE",
"477.15 796.212 OFFCURVE",
"445.15 796.212 CURVE SMOOTH",
"413.15 796.212 OFFCURVE",
"393.736 819.262 OFFCURVE",
"400.713 854.339 CURVE SMOOTH",
"408.089 891.421 OFFCURVE",
"436.474 913.469 OFFCURVE",
"468.474 913.469 CURVE SMOOTH",
"500.474 913.469 OFFCURVE",
"521.089 891.421 OFFCURVE",
"513.713 854.339 CURVE SMOOTH"
);
}
);
width = 672.0067;
}
);
leftMetricsKey = A;
rightMetricsKey = A;
unicode = 00C5;
},
{
glyphname = Atilde;
lastChange = "2021-09-02 15:54:38 +0000";
layers = (
{
anchors = (
{
name = ogonek;
position = "{585.774, 0}";
},
{
name = top;
position = "{443.013, 700}";
}
);
hints = (
{
horizontal = 1;
place = "{87.954, 4.954}";
type = Stem;
},
{
horizontal = 1;
place = "{612.954, -20}";
target = down;
type = TopGhost;
},
{
horizontal = 1;
place = "{-87.046, 21}";
target = up;
type = BottomGhost;
},
{
horizontal = 1;
place = "{668.339, -11.521}";
type = Stem;
},
{
horizontal = 1;
place = "{670.353, 30.773}";
type = Stem;
},
{
horizontal = 1;
place = "{713.654, -12.528}";
type = Stem;
},
{
horizontal = 1;
place = "{668.339, 30.773}";
type = Stem;
}
);
layerId = "0CF0EA28-C756-4A9E-9D7C-CFEF350B4CFE";
paths = (
{
closed = 1;
nodes = (
"74.774 0 LINE",
"170.186 173 LINE",
"507.186 173 LINE",
"532.774 0 LINE",
"649.774 0 LINE",
"540.013 700 LINE",
"345.013 700 LINE",
"-42.226 0 LINE"
);
},
{
closed = 1;
nodes = (
"494.083 268 LINE",
"222.083 268 LINE",
"407.116 605 LINE",
"443.116 605 LINE"
);
},
{
closed = 1;
nodes = (
"355.43 757.399 LINE",
"365.239 786.602 OFFCURVE",
"385.043 800.7 OFFCURVE",
"407.043 800.7 CURVE SMOOTH",
"447.043 800.7 OFFCURVE",
"460.03 755.385 OFFCURVE",
"514.03 755.385 CURVE SMOOTH",
"572.03 755.385 OFFCURVE",
"623.641 793.651 OFFCURVE",
"650.465 873.204 CURVE",
"586.465 873.204 LINE",
"576.656 844.001 OFFCURVE",
"557.052 830.91 OFFCURVE",
"535.052 830.91 CURVE SMOOTH",
"495.052 830.91 OFFCURVE",
"481.866 875.218 OFFCURVE",
"427.866 875.218 CURVE SMOOTH",
"369.866 875.218 OFFCURVE",
"318.254 836.952 OFFCURVE",
"291.43 757.399 CURVE"
);
}
);
width = 707;
},
{
anchors = (
{
name = ogonek;
position = "{527.776, 0}";
},
{
name = top;
position = "{398.015, 700}";
}
);
hints = (
{
horizontal = 1;
place = "{617.426, -20}";
target = down;
type = TopGhost;
},
{
horizontal = 1;
place = "{-82.574, 21}";
target = up;
type = BottomGhost;
},
{
horizontal = 1;
place = "{666.147, 21}";
target = up;
type = BottomGhost;
},
{
horizontal = 1;
place = "{732.765, -20}";
target = down;
type = TopGhost;
}
);
layerId = "6E968933-CD79-43C6-9231-80D77C940F4D";
paths = (
{
closed = 1;
nodes = (
"-18.224 0 LINE",
"104.548 210 LINE",
"493.548 210 LINE",
"531.776 0 LINE",
"553.776 0 LINE",
"426.015 700 LINE",
"367.015 700 LINE",
"-40.224 0 LINE"
);
},
{
closed = 1;
nodes = (
"490.526 230 LINE",
"115.526 230 LINE",
"377.037 680 LINE",
"409.037 680 LINE"
);
},
{
closed = 1;
nodes = (
"312.673 763.635 LINE",
"323.199 796.447 OFFCURVE",
"341.166 811.362 OFFCURVE",
"364.166 811.362 CURVE SMOOTH",
"406.166 811.362 OFFCURVE",
"410.277 761.647 OFFCURVE",
"462.277 761.647 CURVE SMOOTH",
"496.277 761.647 OFFCURVE",
"529.013 790.481 OFFCURVE",
"538.33 827.27 CURVE",
"519.33 827.27 LINE",
"509.199 796.447 OFFCURVE",
"487.035 780.538 OFFCURVE",
"466.035 780.538 CURVE SMOOTH",
"419.035 780.538 OFFCURVE",
"417.924 830.253 OFFCURVE",
"367.924 830.253 CURVE SMOOTH",
"332.924 830.253 OFFCURVE",
"306.782 804.401 OFFCURVE",
"293.673 763.635 CURVE"
);
}
);
width = 613.00653;
},
{
anchors = (
{
name = ogonek;
position = "{663.971, 1}";
},
{
name = top;
position = "{488.01, 700}";
}
);
hints = (
{
horizontal = 1;
place = "{284.812, 50.812}";
type = Stem;
},
{
horizontal = 1;
place = "{206.812, -20}";
target = down;
type = TopGhost;
},
{
horizontal = 1;
place = "{-90.188, 21}";
target = up;
type = BottomGhost;
},
{
horizontal = 1;
place = "{320.471, -58.371}";
type = Stem;
},
{
horizontal = 1;
place = "{667.481, 32.111}";
type = Stem;
},
{
horizontal = 1;
place = "{711.231, 15.207}";
type = Stem;
},
{
horizontal = 1;
place = "{665.493, 59.951}";
type = Stem;
}
);
layerId = "BAF31694-0472-4296-B0EA-1654553C45D2";
paths = (
{
closed = 1;
nodes = (
"135.772 0 LINE",
"212.619 140 LINE",
"539.619 140 LINE",
"561.772 0 LINE",
"741.772 0 LINE",
"627.01 700 LINE",
"351.01 700 LINE",
"-44.228 0 LINE"
);
},
{
closed = 1;
nodes = (
"515.661 286 LINE",
"292.661 286 LINE",
"439.969 554 LINE",
"474.969 554 LINE"
);
},
{
closed = 1;
nodes = (
"384.284 756.676 LINE",
"395.415 787.499 OFFCURVE",
"414.184 801.419 OFFCURVE",
"437.184 801.419 CURVE SMOOTH",
"477.184 801.419 OFFCURVE",
"500.284 756.676 OFFCURVE",
"561.284 756.676 CURVE SMOOTH",
"632.284 756.676 OFFCURVE",
"692.788 799.43 OFFCURVE",
"730.951 905.821 CURVE",
"640.951 905.821 LINE",
"631.017 875.991 OFFCURVE",
"612.051 861.077 OFFCURVE",
"589.051 861.077 CURVE SMOOTH",
"549.051 861.077 OFFCURVE",
"526.148 906.815 OFFCURVE",
"466.148 906.815 CURVE SMOOTH",
"394.148 906.815 OFFCURVE",
"333.446 863.066 OFFCURVE",
"295.284 756.676 CURVE"
);
}
);
width = 796.9967;
},
{
anchors = (
{
name = ogonek;
position = "{564.772, 0}";
},
{
name = top;
position = "{426.011, 700}";
}
);
hints = (
{
horizontal = 1;
place = "{614.532, -20}";
target = down;
type = TopGhost;
},
{
horizontal = 1;
place = "{-85.468, 21}";
target = up;
type = BottomGhost;
},
{
horizontal = 1;
place = "{288.818, 21}";
target = up;
type = BottomGhost;
},
{
horizontal = 1;
place = "{313.873, -20}";
target = down;
type = TopGhost;
}
);
layerId = "9F107B1E-3A61-4335-981B-27DD48125C7E";
paths = (
{
closed = 1;
nodes = (
"39.772 0 LINE",
"144.372 184 LINE",
"502.372 184 LINE",
"532.772 0 LINE",
"613.772 0 LINE",
"498.011 700 LINE",
"354.011 700 LINE",
"-41.228 0 LINE"
);
},
{
closed = 1;
nodes = (
"491.296 254 LINE",
"184.296 254 LINE",
"396.087 630 LINE",
"429.087 630 LINE"
);
},
{
closed = 1;
nodes = (
"339.57 763.139 LINE",
"349.551 793.205 OFFCURVE",
"367.943 805.231 OFFCURVE",
"390.943 805.231 CURVE SMOOTH",
"430.943 805.231 OFFCURVE",
"440.773 759.13 OFFCURVE",
"494.773 759.13 CURVE SMOOTH",
"543.773 759.13 OFFCURVE",
"587.152 791.2 OFFCURVE",
"607.711 854.339 CURVE",
"560.711 854.339 LINE",
"550.93 825.275 OFFCURVE",
"530.538 813.249 OFFCURVE",
"508.538 813.249 CURVE SMOOTH",
"466.538 813.249 OFFCURVE",
"457.708 859.35 OFFCURVE",
"404.708 859.35 CURVE SMOOTH",
"355.708 859.35 OFFCURVE",
"314.328 827.28 OFFCURVE",
"292.57 763.139 CURVE"
);
}
);
width = 671.9967;
}
);
leftMetricsKey = A;
rightMetricsKey = A;
unicode = 00C3;
},
{
glyphname = AE;
lastChange = "2021-09-02 15:54:38 +0000";
layers = (
{
anchors = (
{
name = bottom;
position = "{472.271, 0}";
},
{
name = top;
position = "{611.509, 700}";
}
);
hints = (
{
place = "{398.381, 44.381}";
type = Stem;
},
{
horizontal = 1;
place = "{-69.619, 19.381}";
type = Stem;
},
{
horizontal = 1;
place = "{73.381, 19.381}";
type = Stem;
},
{
horizontal = 1;
place = "{240.381, 18.381}";
type = Stem;
},
{
horizontal = 1;
place = "{541.381, 19.381}";
type = Stem;
}
);
layerId = "0CF0EA28-C756-4A9E-9D7C-CFEF350B4CFE";
paths = (
{
closed = 1;
nodes = (
"919.113 605 LINE",
"938.009 700 LINE",
"479.009 700 LINE",
"-42.229 0 LINE",
"79.771 0 LINE",
"207.047 172 LINE",
"449.984 172 LINE",
"415.771 0 LINE",
"798.771 0 LINE",
"817.667 95 LINE",
"548.667 95 LINE",
"590.638 306 LINE",
"769.638 306 LINE",
"788.535 401 LINE",
"609.535 401 LINE",
"650.113 605 LINE"
);
},
{
closed = 1;
nodes = (
"539.295 621 LINE",
"468.88 267 LINE",
"277.344 267 LINE"
);
}
);
width = 903.5;
},
{
anchors = (
{
name = bottom;
position = "{404.771, 0}";
},
{
name = top;
position = "{544.009, 700}";
}
);
hints = (
{
place = "{377.381, -48.619}";
type = Stem;
},
{
horizontal = 1;
place = "{615.381, -20}";
target = down;
type = TopGhost;
},
{
horizontal = 1;
place = "{-69.619, 21}";
target = up;
type = BottomGhost;
}
);
layerId = "6E968933-CD79-43C6-9231-80D77C940F4D";
paths = (
{
closed = 1;
nodes = (
"874.031 680 LINE",
"878.009 700 LINE",
"531.009 700 LINE",
"-40.229 0 LINE",
"-14.229 0 LINE",
"156.968 210 LINE",
"435.542 210 LINE",
"393.771 0 LINE",
"738.771 0 LINE",
"742.749 20 LINE",
"419.749 20 LINE",
"485.39 350 LINE",
"718.39 350 LINE",
"722.368 370 LINE",
"489.368 370 LINE",
"551.031 680 LINE"
);
},
{
closed = 1;
nodes = (
"525.451 662 LINE",
"439.521 230 LINE",
"173.273 230 LINE"
);
}
);
width = 863.50043;
},
{
anchors = (
{
name = bottom;
position = "{522.771, 0}";
},
{
name = top;
position = "{662.009, 700}";
}
);
hints = (
{
place = "{413.381, 106.381}";
type = Stem;
},
{
horizontal = 1;
place = "{-69.619, 70.381}";
type = Stem;
},
{
horizontal = 1;
place = "{46.381, 64.381}";
type = Stem;
},
{
horizontal = 1;
place = "{220.381, 63.381}";
type = Stem;
},
{
horizontal = 1;
place = "{491.381, 69.381}";
type = Stem;
}
);
layerId = "BAF31694-0472-4296-B0EA-1654553C45D2";
paths = (
{
closed = 1;
nodes = (
"969.968 554 LINE",
"999.009 700 LINE",
"454.009 700 LINE",
"-44.229 0 LINE",
"145.771 0 LINE",
"243.987 140 LINE",
"459.618 140 LINE",
"431.771 0 LINE",
"859.771 0 LINE",
"888.812 146 LINE",
"634.812 146 LINE",
"662.859 287 LINE",
"814.859 287 LINE",
"841.911 423 LINE",
"689.911 423 LINE",
"715.968 554 LINE"
);
},
{
closed = 1;
nodes = (
"544.952 569 LINE",
"488.66 286 LINE",
"346.414 286 LINE"
);
}
);
width = 944.49519;
},
{
anchors = (
{
name = bottom;
position = "{448.271, 0}";
},
{
name = top;
position = "{587.509, 700}";
}
);
hints = (
{
place = "{480.381, -5.619}";
type = Stem;
},
{
horizontal = 1;
place = "{187.381, -20}";
target = down;
type = TopGhost;
},
{
horizontal = 1;
place = "{-69.619, 21}";
target = up;
type = BottomGhost;
}
);
layerId = "9F107B1E-3A61-4335-981B-27DD48125C7E";
paths = (
{
closed = 1;
nodes = (
"903.085 630 LINE",
"917.009 700 LINE",
"499.009 700 LINE",
"-41.229 0 LINE",
"45.771 0 LINE",
"187.39 184 LINE",
"445.371 184 LINE",
"408.771 0 LINE",
"777.771 0 LINE",
"791.695 70 LINE",
"502.695 70 LINE",
"552.622 321 LINE",
"750.622 321 LINE",
"764.545 391 LINE",
"566.545 391 LINE",
"614.085 630 LINE"
);
},
{
closed = 1;
nodes = (
"535.279 636 LINE",
"459.294 254 LINE",
"241.266 254 LINE"
);
}
);
width = 892.49891;
}
);
leftMetricsKey = A;
rightMetricsKey = E;
unicode = 00C6;
},
{
glyphname = AEacute;
lastChange = "2021-09-02 09:18:01 +0000";
layers = (
{
anchors = (
{
name = bottom;
position = "{472.272, 0}";
},
{
name = top;
position = "{611.511, 700}";
}
);
guideLines = (
{
position = "{45.33, 753.04}";
}
);
hints = (
{
place = "{372.942, 18.942}";
type = Stem;
},
{
horizontal = 1;
place = "{-95.058, -6.058}";
type = Stem;
},
{
horizontal = 1;
place = "{47.942, -6.058}";
type = Stem;
},
{
horizontal = 1;
place = "{214.942, -7.058}";
type = Stem;
},
{
horizontal = 1;
place = "{515.942, -6.058}";
type = Stem;
}
);
layerId = "0CF0EA28-C756-4A9E-9D7C-CFEF350B4CFE";
paths = (
{
closed = 1;
nodes = (
"919.114 605 LINE",
"938.011 700 LINE",
"479.011 700 LINE",
"-42.228 0 LINE",
"79.772 0 LINE",
"207.048 172 LINE",
"449.985 172 LINE",
"415.772 0 LINE",
"798.772 0 LINE",
"817.669 95 LINE",
"548.669 95 LINE",
"590.639 306 LINE",
"769.639 306 LINE",
"788.536 401 LINE",
"609.536 401 LINE",
"650.114 605 LINE"
);
},
{
closed = 1;
nodes = (
"539.297 621 LINE",
"468.882 267 LINE",
"277.346 267 LINE"
);
},
{
closed = 1;
nodes = (
"520.151 833.931 LINE",
"503.326 749.343 LINE",
"745.958 858.099 LINE",
"765.388 955.778 LINE"
);
}
);
width = 903.5;
},
{
anchors = (
{
name = bottom;
position = "{404.774, 0}";
},
{
name = top;
position = "{544.013, 700}";
}
);
hints = (
{
place = "{356.614, -69.386}";
type = Stem;
},
{
horizontal = 1;
place = "{594.614, -20}";
target = down;
type = TopGhost;
},
{
horizontal = 1;
place = "{-90.386, 21}";
target = up;
type = BottomGhost;
}
);
layerId = "6E968933-CD79-43C6-9231-80D77C940F4D";
paths = (
{
closed = 1;
nodes = (
"874.034 680 LINE",
"878.013 700 LINE",
"531.013 700 LINE",
"-40.226 0 LINE",
"-14.226 0 LINE",
"156.972 210 LINE",
"435.546 210 LINE",
"393.774 0 LINE",
"738.774 0 LINE",
"742.752 20 LINE",
"419.752 20 LINE",
"485.393 350 LINE",
"718.393 350 LINE",
"722.371 370 LINE",
"489.371 370 LINE",
"551.034 680 LINE"
);
},
{
closed = 1;
nodes = (
"525.454 662 LINE",
"439.524 230 LINE",
"173.276 230 LINE"
);
},
{
closed = 1;
nodes = (
"452.044 775.567 LINE",
"447.89 754.686 LINE",
"660.602 883.945 LINE",
"665.546 908.803 LINE"
);
}
);
width = 863.50043;
},
{
anchors = (
{
name = bottom;
position = "{522.775, 0}";
},
{
name = top;
position = "{662.014, 700}";
}
);
hints = (
{
place = "{384.505, 77.505}";
type = Stem;
},
{
horizontal = 1;
place = "{-98.495, 41.505}";
type = Stem;
},
{
horizontal = 1;
place = "{17.505, 35.505}";
type = Stem;
},
{
horizontal = 1;
place = "{191.505, 34.505}";
type = Stem;
},
{
horizontal = 1;
place = "{462.505, 40.505}";
type = Stem;
}
);
layerId = "BAF31694-0472-4296-B0EA-1654553C45D2";
paths = (
{
closed = 1;
nodes = (
"969.972 554 LINE",
"999.014 700 LINE",
"454.014 700 LINE",
"-44.225 0 LINE",
"145.775 0 LINE",
"243.992 140 LINE",
"459.623 140 LINE",
"431.775 0 LINE",
"859.775 0 LINE",
"888.816 146 LINE",
"634.816 146 LINE",
"662.863 287 LINE",
"814.863 287 LINE",
"841.915 423 LINE",
"689.915 423 LINE",
"715.972 554 LINE"
);
},
{
closed = 1;
nodes = (
"544.956 569 LINE",
"488.664 286 LINE",
"346.418 286 LINE"
);
},
{
closed = 1;
nodes = (
"572.218 876.986 LINE",
"548.287 756.675 LINE",
"810.867 855.111 LINE",
"837.765 990.336 LINE"
);
}
);
width = 944.50519;
},
{
anchors = (
{
name = bottom;
position = "{448.268, 0}";
},
{
name = top;
position = "{587.507, 700}";
}
);
hints = (
{
place = "{456.658, -29.342}";
type = Stem;
},
{
horizontal = 1;
place = "{163.658, -20}";
target = down;
type = TopGhost;
},
{
horizontal = 1;
place = "{-93.342, 21}";
target = up;
type = BottomGhost;
}
);
layerId = "9F107B1E-3A61-4335-981B-27DD48125C7E";
paths = (
{
closed = 1;
nodes = (
"903.083 630 LINE",
"917.007 700 LINE",
"499.007 700 LINE",
"-41.232 0 LINE",
"45.768 0 LINE",
"187.387 184 LINE",
"445.368 184 LINE",
"408.768 0 LINE",
"777.768 0 LINE",
"791.692 70 LINE",
"502.692 70 LINE",
"552.619 321 LINE",
"750.619 321 LINE",
"764.543 391 LINE",
"566.543 391 LINE",
"614.083 630 LINE"
);
},
{
closed = 1;
nodes = (
"535.276 636 LINE",
"459.292 254 LINE",
"241.264 254 LINE"
);
},
{
closed = 1;
nodes = (
"496.033 813.249 LINE",
"484.072 753.117 LINE",
"714.998 868.37 LINE",
"728.952 938.524 LINE"
);
}
);
width = 892.49891;
}
);
leftMetricsKey = A;
rightMetricsKey = E;
unicode = 01FC;
},
{
glyphname = B;
lastChange = "2021-09-02 15:54:38 +0000";
layers = (
{
hints = (
{
place = "{15.381, 44.381}";
type = Stem;
},
{
place = "{429.381, 46.381}";
type = Stem;
},
{
place = "{447.381, 44.381}";
type = Stem;
},
{
horizontal = 1;
place = "{-69.619, 23.381}";
type = Stem;
},
{
horizontal = 1;
place = "{238.381, 23.381}";
type = Stem;
},
{
horizontal = 1;
place = "{537.381, 23.381}";
type = Stem;
}
);
layerId = "0CF0EA28-C756-4A9E-9D7C-CFEF350B4CFE";
paths = (
{
closed = 1;
nodes = (
"526.593 439 OFFCURVE",
"474.233 402 OFFCURVE",
"400.233 402 CURVE SMOOTH",
"219.233 402 LINE",
"259.613 605 LINE",
"440.613 605 LINE SMOOTH",
"514.613 605 OFFCURVE",
"552.054 567 OFFCURVE",
"539.324 503 CURVE SMOOTH"
);
},
{
closed = 1;
nodes = (
"343.27 0 LINE SMOOTH",
"485.27 0 OFFCURVE",
"587.184 80 OFFCURVE",
"608.467 187 CURVE SMOOTH",
"629.303 291.748 OFFCURVE",
"581.006 340.91 OFFCURVE",
"497.411 352.621 CURVE",
"499.019 360.702 LINE",
"574.146 377.531 OFFCURVE",
"638.78 424.857 OFFCURVE",
"657.108 517 CURVE SMOOTH",
"676.801 616 OFFCURVE",
"616.509 700 OFFCURVE",
"469.509 700 CURVE SMOOTH",
"164.509 700 LINE",
"25.27 0 LINE"
);
},
{
closed = 1;
nodes = (
"200.337 307 LINE",
"390.337 307 LINE SMOOTH",
"466.337 307 OFFCURVE",
"510.778 269 OFFCURVE",
"496.854 199 CURVE SMOOTH",
"483.328 131 OFFCURVE",
"429.167 95 OFFCURVE",
"352.167 95 CURVE SMOOTH",
"158.167 95 LINE"
);
}
);
width = 670.4974;
},
{
hints = (
{
place = "{33.381, -47.619}";
type = Stem;
},
{
place = "{469.381, -47.619}";
type = Stem;
},
{
place = "{491.381, -47.619}";
type = Stem;
},
{
horizontal = 1;
place = "{615.381, -20}";
target = down;
type = TopGhost;
},
{
horizontal = 1;
place = "{-69.619, 21}";
target = up;
type = BottomGhost;
}
);
layerId = "6E968933-CD79-43C6-9231-80D77C940F4D";
paths = (
{
closed = 1;
nodes = (
"569.201 432 OFFCURVE",
"494.868 370 OFFCURVE",
"376.868 370 CURVE SMOOTH",
"140.868 370 LINE",
"202.531 680 LINE",
"432.531 680 LINE SMOOTH",
"563.531 680 OFFCURVE",
"605.005 612 OFFCURVE",
"587.7 525 CURVE SMOOTH"
);
},
{
closed = 1;
nodes = (
"298.27 0 LINE SMOOTH",
"450.27 0 OFFCURVE",
"537.581 82 OFFCURVE",
"558.069 185 CURVE SMOOTH",
"576.616 278.241 OFFCURVE",
"523.434 343.883 OFFCURVE",
"443.365 357.415 CURVE",
"444.316 362.195 LINE",
"516.089 376.079 OFFCURVE",
"589.883 425.374 OFFCURVE",
"609.899 526 CURVE SMOOTH",
"628.795 621 OFFCURVE",
"584.509 700 OFFCURVE",
"437.509 700 CURVE SMOOTH",
"184.509 700 LINE",
"45.27 0 LINE"
);
},
{
closed = 1;
nodes = (
"136.89 350 LINE",
"365.89 350 LINE SMOOTH",
"492.89 350 OFFCURVE",
"556.16 286 OFFCURVE",
"536.069 185 CURVE SMOOTH",
"515.78 83 OFFCURVE",
"429.249 20 OFFCURVE",
"302.249 20 CURVE SMOOTH",
"71.249 20 LINE"
);
}
);
width = 633.69626;
},
{
hints = (
{
place = "{-16.619, 106.381}";
type = Stem;
},
{
place = "{393.381, 109.381}";
type = Stem;
},
{
place = "{410.381, 109.381}";
type = Stem;
},
{
horizontal = 1;
place = "{-69.619, 72.381}";
type = Stem;
},
{
horizontal = 1;
place = "{220.381, 63.381}";
type = Stem;
},
{
horizontal = 1;
place = "{489.381, 71.381}";
type = Stem;
}
);
layerId = "BAF31694-0472-4296-B0EA-1654553C45D2";
paths = (
{
closed = 1;
nodes = (
"504.588 444 OFFCURVE",
"467.61 424 OFFCURVE",
"413.61 424 CURVE SMOOTH",
"263.61 424 LINE",
"289.468 554 LINE",
"441.468 554 LINE SMOOTH",
"495.468 554 OFFCURVE",
"522.689 535 OFFCURVE",
"513.539 489 CURVE SMOOTH"
);
},
{
closed = 1;
nodes = (
"377.271 0 LINE SMOOTH",
"526.271 0 OFFCURVE",
"623.388 76 OFFCURVE",
"646.462 192 CURVE SMOOTH",
"665.158 285.993 OFFCURVE",
"621.191 343.611 OFFCURVE",
"523.921 355.184 CURVE",
"525.568 363.465 LINE",
"610.083 375.03 OFFCURVE",
"676.124 421.56 OFFCURVE",
"694.711 515 CURVE SMOOTH",
"716.989 627 OFFCURVE",
"648.509 700 OFFCURVE",
"505.509 700 CURVE SMOOTH",
"144.509 700 LINE",
"5.271 0 LINE"
);
},
{
closed = 1;
nodes = (
"236.557 288 LINE",
"400.557 288 LINE SMOOTH",
"456.557 288 OFFCURVE",
"485.982 265 OFFCURVE",
"476.435 217 CURVE SMOOTH",
"467.086 170 OFFCURVE",
"430.312 146 OFFCURVE",
"374.312 146 CURVE SMOOTH",
"208.312 146 LINE"
);
}
);
width = 694.29934;
},
{
hints = (
{
place = "{-30.619, -3.619}";
type = Stem;
},
{
place = "{325.381, -3.619}";
type = Stem;
},
{
place = "{520.381, -3.619}";
type = Stem;
},
{
horizontal = 1;
place = "{187.381, -20}";
target = down;
type = TopGhost;
},
{
horizontal = 1;
place = "{-69.619, 21}";
target = up;
type = BottomGhost;
}
);
layerId = "9F107B1E-3A61-4335-981B-27DD48125C7E";
paths = (
{
closed = 1;
nodes = (
"544.996 436 OFFCURVE",
"484.045 391 OFFCURVE",
"394.045 391 CURVE SMOOTH",
"193.045 391 LINE",
"240.585 630 LINE",
"438.585 630 LINE SMOOTH",
"534.585 630 OFFCURVE",
"574.237 583 OFFCURVE",
"559.716 510 CURVE SMOOTH"
);
},
{
closed = 1;
nodes = (
"328.27 0 LINE SMOOTH",
"474.27 0 OFFCURVE",
"570.78 83 OFFCURVE",
"591.666 188 CURVE SMOOTH",
"611.611 288.267 OFFCURVE",
"561.269 342.84 OFFCURVE",
"478.818 354.667 CURVE",
"480.19 361.565 LINE",
"553.399 376.632 OFFCURVE",
"621.587 423.885 OFFCURVE",
"640.705 520 CURVE SMOOTH",
"660 617 OFFCURVE",
"606.509 700 OFFCURVE",
"459.509 700 CURVE SMOOTH",
"174.509 700 LINE",
"35.27 0 LINE"
);
},
{
closed = 1;
nodes = (
"179.122 321 LINE",
"383.122 321 LINE SMOOTH",
"478.122 321 OFFCURVE",
"530.369 277 OFFCURVE",
"514.257 196 CURVE SMOOTH",
"498.146 115 OFFCURVE",
"432.195 70 OFFCURVE",
"336.195 70 CURVE SMOOTH",
"129.195 70 LINE"
);
}
);
width = 660.09487;
}
);
leftMetricsKey = H;
rightMetricsKey = "=H*0.66";
unicode = 0042;
},
{
glyphname = C;
lastChange = "2021-09-02 15:54:38 +0000";
layers = (
{
anchors = (
{
name = bottom;
position = "{336.771, 0}";
},
{
name = top;
position = "{484.009, 700}";
}
);
hints = (
{
place = "{-27.619, 47.381}";
type = Stem;
},
{
horizontal = 1;
place = "{-75.619, 30.381}";
type = Stem;
},
{
horizontal = 1;
place = "{538.381, 31.381}";
type = Stem;
}
);
layerId = "0CF0EA28-C756-4A9E-9D7C-CFEF350B4CFE";
paths = (
{
closed = 1;
nodes = (
"15.817 141 OFFCURVE",
"145.378 -7 OFFCURVE",
"341.378 -7 CURVE SMOOTH",
"481.378 -7 OFFCURVE",
"614.308 58 OFFCURVE",
"704.951 202 CURVE",
"619.117 233 LINE",
"545.436 124 OFFCURVE",
"443.673 90 OFFCURVE",
"363.673 90 CURVE SMOOTH",
"225.673 90 OFFCURVE",
"142.161 193 OFFCURVE",
"173.39 350 CURVE SMOOTH",
"204.818 508 OFFCURVE",
"329.107 610 OFFCURVE",
"467.107 610 CURVE SMOOTH",
"545.107 610 OFFCURVE",
"631.145 575 OFFCURVE",
"660.442 486 CURVE",
"759.006 519 LINE",
"725.273 641 OFFCURVE",
"619.402 707 OFFCURVE",
"483.402 707 CURVE SMOOTH",
"287.402 707 OFFCURVE",
"99.162 560 OFFCURVE",
"57.39 350 CURVE SMOOTH"
);
}
);
width = 764.49395;
},
{
anchors = (
{
name = bottom;
position = "{348.771, 0}";
},
{
name = top;
position = "{466.009, 700}";
}
);
hints = (
{
place = "{-5.619, -46.619}";
type = Stem;
},
{
horizontal = 1;
place = "{-76.619, 21}";
target = up;
type = BottomGhost;
},
{
horizontal = 1;
place = "{622.381, -20}";
target = down;
type = TopGhost;
}
);
layerId = "6E968933-CD79-43C6-9231-80D77C940F4D";
paths = (
{
closed = 1;
nodes = (
"25.817 141 OFFCURVE",
"134.378 -7 OFFCURVE",
"325.378 -7 CURVE SMOOTH",
"491.378 -7 OFFCURVE",
"611.689 75 OFFCURVE",
"685.752 201 CURVE",
"669.144 208 LINE",
"606.065 97 OFFCURVE",
"484.959 11 OFFCURVE",
"329.357 13 CURVE",
"160.357 13 OFFCURVE",
"47.817 141 OFFCURVE",
"89.39 350 CURVE SMOOTH",
"131.361 561 OFFCURVE",
"294.423 687 OFFCURVE",
"463.423 687 CURVE SMOOTH",
"617.423 687 OFFCURVE",
"701.908 609 OFFCURVE",
"723.426 501 CURVE",
"742.818 508 LINE",
"716.887 629 OFFCURVE",
"629.402 707 OFFCURVE",
"467.402 707 CURVE SMOOTH",
"276.402 707 OFFCURVE",
"109.361 561 OFFCURVE",
"67.39 350 CURVE SMOOTH"
);
}
);
width = 758.82861;
},
{
anchors = (
{
name = bottom;
position = "{325.97, 1}";
},
{
name = top;
position = "{470.009, 700}";
}
);
hints = (
{
place = "{-43.619, 109.381}";
type = Stem;
},
{
horizontal = 1;
place = "{-74.619, 89.381}";
type = Stem;
},
{
horizontal = 1;
place = "{478.381, 89.381}";
type = Stem;
}
);
layerId = "BAF31694-0472-4296-B0EA-1654553C45D2";
paths = (
{
closed = 1;
nodes = (
"5.419 139 OFFCURVE",
"120.378 -7 OFFCURVE",
"328.378 -7 CURVE SMOOTH",
"490.378 -7 OFFCURVE",
"625.286 78 OFFCURVE",
"702.123 228 CURVE",
"561.09 258 LINE",
"506.785 171 OFFCURVE",
"436.419 139 OFFCURVE",
"357.419 139 CURVE SMOOTH",
"246.419 139 OFFCURVE",
"197.123 228 OFFCURVE",
"221.39 350 CURVE SMOOTH",
"245.259 470 OFFCURVE",
"330.361 561 OFFCURVE",
"441.361 561 CURVE SMOOTH",
"519.361 561 OFFCURVE",
"570.995 529 OFFCURVE",
"591.276 455 CURVE",
"748.84 488 LINE",
"728.892 624 OFFCURVE",
"628.402 707 OFFCURVE",
"470.402 707 CURVE SMOOTH",
"262.402 707 OFFCURVE",
"88.963 559 OFFCURVE",
"47.39 350 CURVE SMOOTH"
);
}
);
width = 743.16592;
},
{
anchors = (
{
name = bottom;
position = "{342.771, 0}";
},
{
name = top;
position = "{479.009, 700}";
}
);
hints = (
{
place = "{334.381, 2.381}";
type = Stem;
},
{
horizontal = 1;
place = "{-72.619, 21}";
target = up;
type = BottomGhost;
},
{
horizontal = 1;
place = "{190.381, -20}";
target = down;
type = TopGhost;
}
);
layerId = "9F107B1E-3A61-4335-981B-27DD48125C7E";
paths = (
{
closed = 1;
nodes = (
"20.817 141 OFFCURVE",
"142.378 -7 OFFCURVE",
"337.378 -7 CURVE SMOOTH",
"486.378 -7 OFFCURVE",
"614.501 64 OFFCURVE",
"698.752 201 CURVE",
"638.526 225 LINE",
"568.845 116 OFFCURVE",
"459.501 64 OFFCURVE",
"351.7 65 CURVE",
"201.7 65 OFFCURVE",
"109.183 173 OFFCURVE",
"144.39 350 CURVE SMOOTH",
"179.796 528 OFFCURVE",
"315.08 635 OFFCURVE",
"465.08 635 CURVE SMOOTH",
"571.08 635 OFFCURVE",
"658.731 588 OFFCURVE",
"684.437 491 CURVE",
"754.211 515 LINE",
"723.478 637 OFFCURVE",
"624.402 707 OFFCURVE",
"479.402 707 CURVE SMOOTH",
"284.402 707 OFFCURVE",
"104.361 561 OFFCURVE",
"62.39 350 CURVE SMOOTH"
);
}
);
width = 765.15946;
}
);
leftMetricsKey = O;
rightMetricsKey = "=O*1.3333";
unicode = 0043;
},
{
glyphname = Cacute;
lastChange = "2021-09-02 09:18:01 +0000";
layers = (
{
anchors = (
{
name = bottom;
position = "{336.768, 0}";
},
{
name = top;
position = "{484.007, 700}";
}
);
hints = (
{
place = "{-52.362, 22.638}";
type = Stem;
},
{
horizontal = 1;
place = "{-100.362, 5.638}";
type = Stem;
},
{
horizontal = 1;
place = "{513.638, 6.638}";
type = Stem;
}
);
layerId = "0CF0EA28-C756-4A9E-9D7C-CFEF350B4CFE";
paths = (
{
closed = 1;
nodes = (
"15.815 141 OFFCURVE",
"145.376 -7 OFFCURVE",
"341.376 -7 CURVE SMOOTH",
"481.376 -7 OFFCURVE",
"614.305 58 OFFCURVE",
"704.948 202 CURVE",
"619.115 233 LINE",
"545.433 124 OFFCURVE",
"443.67 90 OFFCURVE",
"363.67 90 CURVE SMOOTH",
"225.67 90 OFFCURVE",
"142.158 193 OFFCURVE",
"173.387 350 CURVE SMOOTH",
"204.816 508 OFFCURVE",
"329.105 610 OFFCURVE",
"467.105 610 CURVE SMOOTH",
"545.105 610 OFFCURVE",
"631.143 575 OFFCURVE",
"660.44 486 CURVE",
"759.004 519 LINE",
"725.271 641 OFFCURVE",
"619.399 707 OFFCURVE",
"483.399 707 CURVE SMOOTH",
"287.399 707 OFFCURVE",
"99.159 560 OFFCURVE",
"57.387 350 CURVE SMOOTH"
);
},
{
closed = 1;
nodes = (
"392.647 833.931 LINE",
"375.822 749.343 LINE",
"618.455 858.099 LINE",
"637.884 955.778 LINE"
);
}
);
width = 764.5;
},
{
anchors = (
{
name = bottom;
position = "{348.77, 0}";
},
{
name = top;
position = "{466.009, 700}";
}
);
hints = (
{
place = "{-25.69, -66.69}";
type = Stem;
},
{
horizontal = 1;
place = "{-96.69, 21}";
target = up;
type = BottomGhost;
},
{
horizontal = 1;
place = "{602.31, -20}";
target = down;
type = TopGhost;
}
);
layerId = "6E968933-CD79-43C6-9231-80D77C940F4D";
paths = (
{
closed = 1;
nodes = (
"25.817 141 OFFCURVE",
"134.378 -7 OFFCURVE",
"325.378 -7 CURVE SMOOTH",
"491.378 -7 OFFCURVE",
"611.689 75 OFFCURVE",
"685.752 201 CURVE",
"669.144 208 LINE",
"606.065 97 OFFCURVE",
"484.958 11 OFFCURVE",
"329.356 13 CURVE",
"160.356 13 OFFCURVE",
"47.817 141 OFFCURVE",
"89.389 350 CURVE SMOOTH",
"131.36 561 OFFCURVE",
"294.423 687 OFFCURVE",
"463.423 687 CURVE SMOOTH",
"617.423 687 OFFCURVE",
"701.908 609 OFFCURVE",
"723.425 501 CURVE",
"742.818 508 LINE",
"716.886 629 OFFCURVE",
"629.401 707 OFFCURVE",
"467.401 707 CURVE SMOOTH",
"276.401 707 OFFCURVE",
"109.36 561 OFFCURVE",
"67.389 350 CURVE SMOOTH"
);
},
{
closed = 1;
nodes = (
"374.04 775.567 LINE",
"369.887 754.686 LINE",
"582.598 883.945 LINE",
"587.542 908.803 LINE"
);
}
);
width = 758.83323;
},
{
anchors = (
{
name = bottom;
position = "{325.97, 1}";
},
{
name = top;
position = "{470.01, 700}";
}
);
hints = (
{
place = "{-71.799, 81.201}";
type = Stem;
},
{
horizontal = 1;
place = "{-102.799, 61.201}";
type = Stem;
},
{
horizontal = 1;
place = "{450.201, 61.201}";
type = Stem;
}
);
layerId = "BAF31694-0472-4296-B0EA-1654553C45D2";
paths = (
{
closed = 1;
nodes = (
"5.42 139 OFFCURVE",
"120.379 -7 OFFCURVE",
"328.379 -7 CURVE SMOOTH",
"490.379 -7 OFFCURVE",
"625.286 78 OFFCURVE",
"702.123 228 CURVE",
"561.091 258 LINE",
"506.785 171 OFFCURVE",
"436.42 139 OFFCURVE",
"357.42 139 CURVE SMOOTH",
"246.42 139 OFFCURVE",
"197.123 228 OFFCURVE",
"221.39 350 CURVE SMOOTH",
"245.26 470 OFFCURVE",
"330.361 561 OFFCURVE",
"441.361 561 CURVE SMOOTH",
"519.361 561 OFFCURVE",
"570.996 529 OFFCURVE",
"591.276 455 CURVE",
"748.84 488 LINE",
"728.892 624 OFFCURVE",
"628.402 707 OFFCURVE",
"470.402 707 CURVE SMOOTH",
"262.402 707 OFFCURVE",
"88.963 559 OFFCURVE",
"47.39 350 CURVE SMOOTH"
);
},
{
closed = 1;
nodes = (
"380.214 876.986 LINE",
"356.283 756.675 LINE",
"618.863 855.111 LINE",
"645.761 990.336 LINE"
);
}
);
width = 743.16811;
},
{
anchors = (
{
name = bottom;
position = "{342.774, 0}";
},
{
name = top;
position = "{479.013, 700}";
}
);
hints = (
{
place = "{311.354, -20.646}";
type = Stem;
},
{
horizontal = 1;
place = "{-95.646, 21}";
target = up;
type = BottomGhost;
},
{
horizontal = 1;
place = "{167.354, -20}";
target = down;
type = TopGhost;
}
);
layerId = "9F107B1E-3A61-4335-981B-27DD48125C7E";
paths = (
{
closed = 1;
nodes = (
"20.821 141 OFFCURVE",
"142.382 -7 OFFCURVE",
"337.382 -7 CURVE SMOOTH",
"486.382 -7 OFFCURVE",
"614.505 64 OFFCURVE",
"698.756 201 CURVE",
"638.529 225 LINE",
"568.848 116 OFFCURVE",
"459.505 64 OFFCURVE",
"351.703 65 CURVE",
"201.703 65 OFFCURVE",
"109.186 173 OFFCURVE",
"144.394 350 CURVE SMOOTH",
"179.8 528 OFFCURVE",
"315.084 635 OFFCURVE",
"465.084 635 CURVE SMOOTH",
"571.084 635 OFFCURVE",
"658.735 588 OFFCURVE",
"684.44 491 CURVE",
"754.214 515 LINE",
"723.481 637 OFFCURVE",
"624.405 707 OFFCURVE",
"479.405 707 CURVE SMOOTH",
"284.405 707 OFFCURVE",
"104.364 561 OFFCURVE",
"62.394 350 CURVE SMOOTH"
);
},
{
closed = 1;
nodes = (
"387.539 813.249 LINE",
"375.578 753.117 LINE",
"606.504 868.37 LINE",
"620.458 938.524 LINE"
);
}
);
width = 765.16383;
}
);
leftMetricsKey = C;
rightMetricsKey = C;
unicode = 0106;
},
{
glyphname = Ccaron;
lastChange = "2021-09-02 09:18:01 +0000";
layers = (
{
anchors = (
{
name = bottom;
position = "{336.773, 0}";
},
{
name = top;
position = "{484.012, 700}";
}
);
hints = (
{
place = "{-49.057, 25.943}";
type = Stem;
},
{
horizontal = 1;
place = "{-97.057, 8.943}";
type = Stem;
},
{
horizontal = 1;
place = "{516.943, 9.943}";
type = Stem;
}
);
layerId = "0CF0EA28-C756-4A9E-9D7C-CFEF350B4CFE";
paths = (
{
closed = 1;
nodes = (
"15.82 141 OFFCURVE",
"145.381 -7 OFFCURVE",
"341.381 -7 CURVE SMOOTH",
"481.381 -7 OFFCURVE",
"614.31 58 OFFCURVE",
"704.953 202 CURVE",
"619.12 233 LINE",
"545.438 124 OFFCURVE",
"443.675 90 OFFCURVE",
"363.675 90 CURVE SMOOTH",
"225.675 90 OFFCURVE",
"142.163 193 OFFCURVE",
"173.393 350 CURVE SMOOTH",
"204.821 508 OFFCURVE",
"329.11 610 OFFCURVE",
"467.11 610 CURVE SMOOTH",
"545.11 610 OFFCURVE",
"631.148 575 OFFCURVE",
"660.445 486 CURVE",
"759.009 519 LINE",
"725.276 641 OFFCURVE",
"619.404 707 OFFCURVE",
"483.404 707 CURVE SMOOTH",
"287.404 707 OFFCURVE",
"99.164 560 OFFCURVE",
"57.393 350 CURVE SMOOTH"
);
},
{
closed = 1;
nodes = (
"511.053 835.945 LINE",
"385.279 922.547 LINE",
"367.452 832.924 LINE",
"493.827 749.343 LINE",
"653.452 832.924 LINE",
"671.279 922.547 LINE"
);
}
);
width = 764.5;
},
{
anchors = (
{
name = bottom;
position = "{348.777, 0}";
},
{
name = top;
position = "{466.015, 700}";
}
);
hints = (
{
place = "{-23.613, -64.613}";
type = Stem;
},
{
horizontal = 1;
place = "{-94.613, 21}";
target = up;
type = BottomGhost;
},
{
horizontal = 1;
place = "{604.387, -20}";
target = down;
type = TopGhost;
}
);
layerId = "6E968933-CD79-43C6-9231-80D77C940F4D";
paths = (
{
closed = 1;
nodes = (
"25.823 141 OFFCURVE",
"134.384 -7 OFFCURVE",
"325.384 -7 CURVE SMOOTH",
"491.384 -7 OFFCURVE",
"611.695 75 OFFCURVE",
"685.758 201 CURVE",
"669.151 208 LINE",
"606.071 97 OFFCURVE",
"484.965 11 OFFCURVE",
"329.363 13 CURVE",
"160.363 13 OFFCURVE",
"47.823 141 OFFCURVE",
"89.396 350 CURVE SMOOTH",
"131.367 561 OFFCURVE",
"294.43 687 OFFCURVE",
"463.43 687 CURVE SMOOTH",
"617.43 687 OFFCURVE",
"701.914 609 OFFCURVE",
"723.432 501 CURVE",
"742.824 508 LINE",
"716.893 629 OFFCURVE",
"629.408 707 OFFCURVE",
"467.408 707 CURVE SMOOTH",
"276.408 707 OFFCURVE",
"109.367 561 OFFCURVE",
"67.396 350 CURVE SMOOTH"
);
},
{
closed = 1;
nodes = (
"487.376 807.384 LINE",
"379.396 887.923 LINE",
"375.044 866.048 LINE",
"483.024 785.51 LINE",
"623.044 866.048 LINE",
"627.396 887.923 LINE"
);
}
);
width = 758.83323;
},
{
anchors = (
{
name = bottom;
position = "{325.972, 1}";
},
{
name = top;
position = "{470.012, 700}";
}
);
hints = (
{
place = "{-68.437, 84.563}";
type = Stem;
},
{
horizontal = 1;
place = "{-99.437, 64.563}";
type = Stem;
},
{
horizontal = 1;
place = "{453.563, 64.563}";
type = Stem;
}
);
layerId = "BAF31694-0472-4296-B0EA-1654553C45D2";
paths = (
{
closed = 1;
nodes = (
"5.422 139 OFFCURVE",
"120.381 -7 OFFCURVE",
"328.381 -7 CURVE SMOOTH",
"490.381 -7 OFFCURVE",
"625.289 78 OFFCURVE",
"702.125 228 CURVE",
"561.093 258 LINE",
"506.787 171 OFFCURVE",
"436.422 139 OFFCURVE",
"357.422 139 CURVE SMOOTH",
"246.422 139 OFFCURVE",
"197.125 228 OFFCURVE",
"221.393 350 CURVE SMOOTH",
"245.262 470 OFFCURVE",
"330.363 561 OFFCURVE",
"441.363 561 CURVE SMOOTH",
"519.363 561 OFFCURVE",
"570.998 529 OFFCURVE",
"591.279 455 CURVE",
"748.843 488 LINE",
"728.895 624 OFFCURVE",
"628.404 707 OFFCURVE",
"470.404 707 CURVE SMOOTH",
"262.404 707 OFFCURVE",
"88.965 559 OFFCURVE",
"47.393 350 CURVE SMOOTH"
);
},
{
closed = 1;
nodes = (
"503.832 870.026 LINE",
"365.039 956.53 LINE",
"341.108 836.219 LINE",
"481.681 758.664 LINE",
"653.108 836.219 LINE",
"677.039 956.53 LINE"
);
}
);
width = 743.16811;
},
{
anchors = (
{
name = bottom;
position = "{342.775, 0}";
},
{
name = top;
position = "{479.013, 700}";
}
);
hints = (
{
place = "{314.245, -17.755}";
type = Stem;
},
{
horizontal = 1;
place = "{-92.755, 21}";
target = up;
type = BottomGhost;
},
{
horizontal = 1;
place = "{170.245, -20}";
target = down;
type = TopGhost;
}
);
layerId = "9F107B1E-3A61-4335-981B-27DD48125C7E";
paths = (
{
closed = 1;
nodes = (
"20.821 141 OFFCURVE",
"142.382 -7 OFFCURVE",
"337.382 -7 CURVE SMOOTH",
"486.382 -7 OFFCURVE",
"614.505 64 OFFCURVE",
"698.756 201 CURVE",
"638.53 225 LINE",
"568.849 116 OFFCURVE",
"459.505 64 OFFCURVE",
"351.704 65 CURVE",
"201.704 65 OFFCURVE",
"109.187 173 OFFCURVE",
"144.394 350 CURVE SMOOTH",
"179.8 528 OFFCURVE",
"315.084 635 OFFCURVE",
"465.084 635 CURVE SMOOTH",
"571.084 635 OFFCURVE",
"658.735 588 OFFCURVE",
"684.441 491 CURVE",
"754.215 515 LINE",
"723.482 637 OFFCURVE",
"624.406 707 OFFCURVE",
"479.406 707 CURVE SMOOTH",
"284.406 707 OFFCURVE",
"104.365 561 OFFCURVE",
"62.394 350 CURVE SMOOTH"
);
},
{
closed = 1;
nodes = (
"503.932 825.275 LINE",
"384.678 909.46 LINE",
"371.919 845.319 LINE",
"491.573 763.139 LINE",
"643.919 845.319 LINE",
"656.678 909.46 LINE"
);
}
);
width = 765.16383;
}
);
leftMetricsKey = C;
rightMetricsKey = C;
unicode = 010C;
},
{
glyphname = Ccedilla;
lastChange = "2021-09-02 15:54:38 +0000";
layers = (
{
anchors = (
{
name = bottom;
position = "{336.774, 0}";
},
{
name = top;
position = "{484.013, 700}";
}
);
hints = (
{
place = "{-2.076, 72.924}";
type = Stem;
},
{
horizontal = 1;
place = "{-50.076, 55.924}";
type = Stem;
},
{
horizontal = 1;
place = "{563.924, 56.924}";
type = Stem;
},
{
place = "{309.174, 31.449}";
type = Stem;
},
{
place = "{420.174, 50.582}";
type = Stem;
},
{
horizontal = 1;
place = "{-307.91, 28.428}";
type = Stem;
},
{
horizontal = 1;
place = "{-160.888, 24.4}";
type = Stem;
},
{
horizontal = 1;
place = "{-160.888, 79.785}";
type = Stem;
}
);
layerId = "0CF0EA28-C756-4A9E-9D7C-CFEF350B4CFE";
paths = (
{
closed = 1;
nodes = (
"15.821 141 OFFCURVE",
"145.382 -7 OFFCURVE",
"341.382 -7 CURVE SMOOTH",
"481.382 -7 OFFCURVE",
"614.311 58 OFFCURVE",
"704.955 202 CURVE",
"619.12 233 LINE",
"545.44 124 OFFCURVE",
"443.677 90 OFFCURVE",
"363.677 90 CURVE SMOOTH",
"225.677 90 OFFCURVE",
"142.164 193 OFFCURVE",
"173.394 350 CURVE SMOOTH",
"204.822 508 OFFCURVE",
"329.111 610 OFFCURVE",
"467.111 610 CURVE SMOOTH",
"545.111 610 OFFCURVE",
"631.149 575 OFFCURVE",
"660.446 486 CURVE",
"759.01 519 LINE",
"725.277 641 OFFCURVE",
"619.405 707 OFFCURVE",
"483.405 707 CURVE SMOOTH",
"287.405 707 OFFCURVE",
"99.165 560 OFFCURVE",
"57.394 350 CURVE SMOOTH"
);
},
{
closed = 1;
nodes = (
"379.177 7.049 LINE",
"304.177 7.049 LINE",
"279.539 -116.812 LINE",
"334.539 -116.812 LINE SMOOTH",
"369.539 -116.812 OFFCURVE",
"389.137 -123.861 OFFCURVE",
"383.128 -154.071 CURVE SMOOTH",
"377.119 -184.281 OFFCURVE",
"354.716 -191.33 OFFCURVE",
"319.716 -191.33 CURVE SMOOTH",
"210.716 -191.33 LINE",
"196.295 -263.834 LINE",
"328.295 -263.834 LINE SMOOTH",
"399.295 -263.834 OFFCURVE",
"463.507 -222.547 OFFCURVE",
"477.128 -154.071 CURVE SMOOTH",
"490.949 -84.588 OFFCURVE",
"442.16 -48.336 OFFCURVE",
"368.16 -48.336 CURVE"
);
}
);
width = 764.5;
},
{
anchors = (
{
name = bottom;
position = "{348.772, 0}";
},
{
name = top;
position = "{466.011, 700}";
}
);
hints = (
{
place = "{18.802, -22.198}";
type = Stem;
},
{
horizontal = 1;
place = "{-52.198, 21}";
target = up;
type = BottomGhost;
},
{
horizontal = 1;
place = "{646.802, -20}";
target = down;
type = TopGhost;
},
{
place = "{339.052, -24.317}";
type = Stem;
},
{
place = "{465.052, -24.317}";
type = Stem;
},
{
horizontal = 1;
place = "{-294.767, 117.868}";
type = Stem;
},
{
horizontal = 1;
place = "{-38.238, -20}";
target = down;
type = TopGhost;
}
);
layerId = "6E968933-CD79-43C6-9231-80D77C940F4D";
paths = (
{
closed = 1;
nodes = (
"25.819 141 OFFCURVE",
"134.38 -7 OFFCURVE",
"325.38 -7 CURVE SMOOTH",
"491.38 -7 OFFCURVE",
"611.691 75 OFFCURVE",
"685.754 201 CURVE",
"669.146 208 LINE",
"606.067 97 OFFCURVE",
"484.96 11 OFFCURVE",
"329.358 13 CURVE",
"160.358 13 OFFCURVE",
"47.819 141 OFFCURVE",
"89.392 350 CURVE SMOOTH",
"131.362 561 OFFCURVE",
"294.425 687 OFFCURVE",
"463.425 687 CURVE SMOOTH",
"617.425 687 OFFCURVE",
"701.91 609 OFFCURVE",
"723.427 501 CURVE",
"742.82 508 LINE",
"716.888 629 OFFCURVE",
"629.403 707 OFFCURVE",
"467.403 707 CURVE SMOOTH",
"276.403 707 OFFCURVE",
"109.362 561 OFFCURVE",
"67.392 350 CURVE SMOOTH"
);
},
{
closed = 1;
nodes = (
"363.157 6.96 LINE",
"341.157 6.96 LINE",
"318.61 -106.39 LINE",
"356.61 -106.39 LINE SMOOTH",
"422.61 -106.39 OFFCURVE",
"439.072 -134.231 OFFCURVE",
"432.546 -167.042 CURVE SMOOTH",
"425.03 -204.826 OFFCURVE",
"397.492 -232.666 OFFCURVE",
"331.492 -232.666 CURVE SMOOTH",
"270.492 -232.666 LINE",
"266.537 -252.552 LINE",
"330.537 -252.552 LINE SMOOTH",
"400.537 -252.552 OFFCURVE",
"444.657 -216.757 OFFCURVE",
"454.546 -167.042 CURVE SMOOTH",
"465.423 -112.356 OFFCURVE",
"427.357 -82.527 OFFCURVE",
"344.368 -87.498 CURVE"
);
}
);
width = 758.83323;
},
{
anchors = (
{
name = bottom;
position = "{325.973, 1}";
},
{
name = top;
position = "{470.013, 700}";
}
);
hints = (
{
place = "{-17.616, 135.384}";
type = Stem;
},
{
horizontal = 1;
place = "{-48.616, 115.384}";
type = Stem;
},
{
horizontal = 1;
place = "{504.384, 115.384}";
type = Stem;
},
{
place = "{245.634, -11.798}";
type = Stem;
},
{
place = "{396.634, 80.671}";
type = Stem;
},
{
horizontal = 1;
place = "{-312.071, 51.837}";
type = Stem;
},
{
horizontal = 1;
place = "{-250.425, 124.421}";
type = Stem;
},
{
horizontal = 1;
place = "{-167.898, 84.649}";
type = Stem;
}
);
layerId = "BAF31694-0472-4296-B0EA-1654553C45D2";
paths = (
{
closed = 1;
nodes = (
"5.423 139 OFFCURVE",
"120.382 -7 OFFCURVE",
"328.382 -7 CURVE SMOOTH",
"490.382 -7 OFFCURVE",
"625.289 78 OFFCURVE",
"702.126 228 CURVE",
"561.093 258 LINE",
"506.788 171 OFFCURVE",
"436.423 139 OFFCURVE",
"357.423 139 CURVE SMOOTH",
"246.423 139 OFFCURVE",
"197.126 228 OFFCURVE",
"221.393 350 CURVE SMOOTH",
"245.263 470 OFFCURVE",
"330.364 561 OFFCURVE",
"441.364 561 CURVE SMOOTH",
"519.364 561 OFFCURVE",
"570.999 529 OFFCURVE",
"591.279 455 CURVE",
"748.843 488 LINE",
"728.895 624 OFFCURVE",
"628.405 707 OFFCURVE",
"470.405 707 CURVE SMOOTH",
"262.405 707 OFFCURVE",
"88.966 559 OFFCURVE",
"47.393 350 CURVE SMOOTH"
);
},
{
closed = 1;
nodes = (
"386.566 3.983 LINE",
"280.566 3.983 LINE",
"255.053 -124.282 LINE",
"328.053 -124.282 LINE SMOOTH",
"352.053 -124.282 OFFCURVE",
"364.866 -130.247 OFFCURVE",
"361.108 -149.139 CURVE SMOOTH",
"357.548 -167.036 OFFCURVE",
"342.164 -173.997 OFFCURVE",
"318.164 -173.997 CURVE SMOOTH",
"185.164 -173.997 LINE",
"166.375 -268.455 LINE",
"322.375 -268.455 LINE SMOOTH",
"390.375 -268.455 OFFCURVE",
"468.902 -235.643 OFFCURVE",
"485.317 -153.116 CURVE SMOOTH",
"501.931 -69.595 OFFCURVE",
"437.062 -38.772 OFFCURVE",
"378.062 -38.772 CURVE"
);
}
);
width = 743.16811;
},
{
anchors = (
{
name = bottom;
position = "{342.77, 0}";
},
{
name = top;
position = "{479.009, 700}";
}
);
hints = (
{
place = "{359.5, 27.5}";
type = Stem;
},
{
horizontal = 1;
place = "{-47.5, 21}";
target = up;
type = BottomGhost;
},
{
horizontal = 1;
place = "{215.5, -20}";
target = down;
type = TopGhost;
},
{
place = "{116.25, 8.617}";
type = Stem;
},
{
place = "{255.25, 5.61}";
type = Stem;
},
{
horizontal = 1;
place = "{-211.867, 93.804}";
type = Stem;
},
{
horizontal = 1;
place = "{-41.493, -20}";
target = down;
type = TopGhost;
}
);
layerId = "9F107B1E-3A61-4335-981B-27DD48125C7E";
paths = (
{
closed = 1;
nodes = (
"20.817 141 OFFCURVE",
"142.378 -7 OFFCURVE",
"337.378 -7 CURVE SMOOTH",
"486.378 -7 OFFCURVE",
"614.501 64 OFFCURVE",
"698.752 201 CURVE",
"638.526 225 LINE",
"568.844 116 OFFCURVE",
"459.501 64 OFFCURVE",
"351.7 65 CURVE",
"201.7 65 OFFCURVE",
"109.182 173 OFFCURVE",
"144.39 350 CURVE SMOOTH",
"179.796 528 OFFCURVE",
"315.08 635 OFFCURVE",
"465.08 635 CURVE SMOOTH",
"571.08 635 OFFCURVE",
"658.731 588 OFFCURVE",
"684.436 491 CURVE",
"754.21 515 LINE",
"723.477 637 OFFCURVE",
"624.401 707 OFFCURVE",
"479.401 707 CURVE SMOOTH",
"284.401 707 OFFCURVE",
"104.36 561 OFFCURVE",
"62.39 350 CURVE SMOOTH"
);
},
{
closed = 1;
nodes = (
"374.166 7.015 LINE",
"319.166 7.015 LINE",
"295.244 -113.249 LINE",
"344.244 -113.249 LINE SMOOTH",
"391.244 -113.249 OFFCURVE",
"409.254 -128.282 OFFCURVE",
"403.074 -159.35 CURVE SMOOTH",
"396.495 -192.422 OFFCURVE",
"372.505 -207.455 OFFCURVE",
"325.505 -207.455 CURVE SMOOTH",
"234.505 -207.455 LINE",
"224.139 -259.57 LINE",
"330.139 -259.57 LINE SMOOTH",
"401.139 -259.57 OFFCURVE",
"457.913 -220.484 OFFCURVE",
"470.074 -159.35 CURVE SMOOTH",
"482.832 -95.209 OFFCURVE",
"437.61 -61.134 OFFCURVE",
"360.211 -63.139 CURVE"
);
}
);
width = 765.15383;
}
);
leftMetricsKey = C;
rightMetricsKey = C;
unicode = 00C7;
},
{
glyphname = Cdotaccent;
lastChange = "2021-09-02 09:18:01 +0000";
layers = (
{
anchors = (
{
name = bottom;
position = "{336.777, 0}";
},
{
name = top;
position = "{484.015, 700}";
}
);
hints = (
{
place = "{-46.853, 28.147}";
type = Stem;
},
{
horizontal = 1;
place = "{-94.853, 11.147}";
type = Stem;
},
{
horizontal = 1;
place = "{519.147, 12.147}";
type = Stem;
},
{
place = "{246.397, 31.987}";
type = Stem;
},
{
horizontal = 1;
place = "{690.7, 31.987}";
type = Stem;
}
);
layerId = "0CF0EA28-C756-4A9E-9D7C-CFEF350B4CFE";
paths = (
{
closed = 1;
nodes = (
"15.823 141 OFFCURVE",
"145.384 -7 OFFCURVE",
"341.384 -7 CURVE SMOOTH",
"481.384 -7 OFFCURVE",
"614.313 58 OFFCURVE",
"704.957 202 CURVE",
"619.123 233 LINE",
"545.442 124 OFFCURVE",
"443.679 90 OFFCURVE",
"363.679 90 CURVE SMOOTH",
"225.679 90 OFFCURVE",
"142.167 193 OFFCURVE",
"173.396 350 CURVE SMOOTH",
"204.824 508 OFFCURVE",
"329.113 610 OFFCURVE",
"467.113 610 CURVE SMOOTH",
"545.113 610 OFFCURVE",
"631.151 575 OFFCURVE",
"660.448 486 CURVE",
"759.012 519 LINE",
"725.279 641 OFFCURVE",
"619.408 707 OFFCURVE",
"483.408 707 CURVE SMOOTH",
"287.408 707 OFFCURVE",
"99.167 560 OFFCURVE",
"57.396 350 CURVE SMOOTH"
);
},
{
closed = 1;
nodes = (
"532.839 779.553 OFFCURVE",
"565.047 805.735 OFFCURVE",
"571.858 839.973 CURVE SMOOTH",
"578.468 873.204 OFFCURVE",
"556.876 900.393 OFFCURVE",
"523.876 900.393 CURVE SMOOTH",
"489.876 900.393 OFFCURVE",
"458.468 873.204 OFFCURVE",
"451.858 839.973 CURVE SMOOTH",
"445.047 805.735 OFFCURVE",
"465.839 779.553 OFFCURVE",
"499.839 779.553 CURVE SMOOTH"
);
}
);
width = 764.5;
},
{
anchors = (
{
name = bottom;
position = "{348.77, 0}";
},
{
name = top;
position = "{466.009, 700}";
}
);
hints = (
{
place = "{-18.57, -59.57}";
type = Stem;
},
{
horizontal = 1;
place = "{-89.57, 21}";
target = up;
type = BottomGhost;
},
{
horizontal = 1;
place = "{609.43, -20}";
target = down;
type = TopGhost;
},
{
place = "{264.68, -21.918}";
type = Stem;
},
{
horizontal = 1;
place = "{692.002, -21.918}";
type = Stem;
}
);
layerId = "6E968933-CD79-43C6-9231-80D77C940F4D";
paths = (
{
closed = 1;
nodes = (
"25.817 141 OFFCURVE",
"134.378 -7 OFFCURVE",
"325.378 -7 CURVE SMOOTH",
"491.378 -7 OFFCURVE",
"611.689 75 OFFCURVE",
"685.752 201 CURVE",
"669.144 208 LINE",
"606.065 97 OFFCURVE",
"484.958 11 OFFCURVE",
"329.356 13 CURVE",
"160.356 13 OFFCURVE",
"47.817 141 OFFCURVE",
"89.39 350 CURVE SMOOTH",
"131.36 561 OFFCURVE",
"294.423 687 OFFCURVE",
"463.423 687 CURVE SMOOTH",
"617.423 687 OFFCURVE",
"701.908 609 OFFCURVE",
"723.425 501 CURVE",
"742.818 508 LINE",
"716.886 629 OFFCURVE",
"629.401 707 OFFCURVE",
"467.401 707 CURVE SMOOTH",
"276.401 707 OFFCURVE",
"109.36 561 OFFCURVE",
"67.39 350 CURVE SMOOTH"
);
},
{
closed = 1;
nodes = (
"498.238 776.561 OFFCURVE",
"515.007 790.481 OFFCURVE",
"518.171 806.39 CURVE SMOOTH",
"521.533 823.293 OFFCURVE",
"510.302 837.213 OFFCURVE",
"493.302 837.213 CURVE SMOOTH",
"477.302 837.213 OFFCURVE",
"460.533 823.293 OFFCURVE",
"457.171 806.39 CURVE SMOOTH",
"454.007 790.481 OFFCURVE",
"465.238 776.561 OFFCURVE",
"481.238 776.561 CURVE SMOOTH"
);
}
);
width = 758.83323;
},
{
anchors = (
{
name = bottom;
position = "{325.973, 1}";
},
{
name = top;
position = "{470.013, 700}";
}
);
hints = (
{
place = "{-65.865, 87.135}";
type = Stem;
},
{
horizontal = 1;
place = "{-96.865, 67.135}";
type = Stem;
},
{
horizontal = 1;
place = "{456.135, 67.135}";
type = Stem;
},
{
place = "{211.385, 57.28}";
type = Stem;
},
{
horizontal = 1;
place = "{689.668, 57.28}";
type = Stem;
}
);
layerId = "BAF31694-0472-4296-B0EA-1654553C45D2";
paths = (
{
closed = 1;
nodes = (
"5.423 139 OFFCURVE",
"120.382 -7 OFFCURVE",
"328.382 -7 CURVE SMOOTH",
"490.382 -7 OFFCURVE",
"625.29 78 OFFCURVE",
"702.127 228 CURVE",
"561.094 258 LINE",
"506.789 171 OFFCURVE",
"436.423 139 OFFCURVE",
"357.423 139 CURVE SMOOTH",
"246.423 139 OFFCURVE",
"197.127 228 OFFCURVE",
"221.394 350 CURVE SMOOTH",
"245.263 470 OFFCURVE",
"330.364 561 OFFCURVE",
"441.364 561 CURVE SMOOTH",
"519.364 561 OFFCURVE",
"570.999 529 OFFCURVE",
"591.28 455 CURVE",
"748.844 488 LINE",
"728.896 624 OFFCURVE",
"628.406 707 OFFCURVE",
"470.406 707 CURVE SMOOTH",
"262.406 707 OFFCURVE",
"88.967 559 OFFCURVE",
"47.394 350 CURVE SMOOTH"
);
},
{
closed = 1;
nodes = (
"527.231 781.533 OFFCURVE",
"566.56 813.351 OFFCURVE",
"574.867 855.111 CURVE SMOOTH",
"583.371 897.866 OFFCURVE",
"556.898 930.678 OFFCURVE",
"513.898 930.678 CURVE SMOOTH",
"471.898 930.678 OFFCURVE",
"433.371 897.866 OFFCURVE",
"424.867 855.111 CURVE SMOOTH",
"416.56 813.351 OFFCURVE",
"442.231 781.533 OFFCURVE",
"484.231 781.533 CURVE SMOOTH"
);
}
);
width = 743.16811;
},
{
anchors = (
{
name = bottom;
position = "{342.774, 0}";
},
{
name = top;
position = "{479.012, 700}";
}
);
hints = (
{
place = "{317.634, -14.366}";
type = Stem;
},
{
horizontal = 1;
place = "{-89.366, 21}";
target = up;
type = BottomGhost;
},
{
horizontal = 1;
place = "{173.634, -20}";
target = down;
type = TopGhost;
},
{
place = "{254.384, 11.849}";
type = Stem;
},
{
horizontal = 1;
place = "{691.805, 11.849}";
type = Stem;
}
);
layerId = "9F107B1E-3A61-4335-981B-27DD48125C7E";
paths = (
{
closed = 1;
nodes = (
"20.82 141 OFFCURVE",
"142.381 -7 OFFCURVE",
"337.381 -7 CURVE SMOOTH",
"486.381 -7 OFFCURVE",
"614.504 64 OFFCURVE",
"698.755 201 CURVE",
"638.529 225 LINE",
"568.848 116 OFFCURVE",
"459.504 64 OFFCURVE",
"351.703 65 CURVE",
"201.703 65 OFFCURVE",
"109.186 173 OFFCURVE",
"144.393 350 CURVE SMOOTH",
"179.799 528 OFFCURVE",
"315.083 635 OFFCURVE",
"465.083 635 CURVE SMOOTH",
"571.083 635 OFFCURVE",
"658.734 588 OFFCURVE",
"684.44 491 CURVE",
"754.214 515 LINE",
"723.481 637 OFFCURVE",
"624.405 707 OFFCURVE",
"479.405 707 CURVE SMOOTH",
"284.405 707 OFFCURVE",
"104.364 561 OFFCURVE",
"62.393 350 CURVE SMOOTH"
);
},
{
closed = 1;
nodes = (
"521.362 777.169 OFFCURVE",
"547.549 798.216 OFFCURVE",
"552.931 825.275 CURVE SMOOTH",
"558.314 852.334 OFFCURVE",
"540.899 875.385 OFFCURVE",
"513.899 875.385 CURVE SMOOTH",
"485.899 875.385 OFFCURVE",
"460.314 852.334 OFFCURVE",
"454.931 825.275 CURVE SMOOTH",
"449.549 798.216 OFFCURVE",
"466.362 777.169 OFFCURVE",
"494.362 777.169 CURVE SMOOTH"
);
}
);
width = 765.16383;
}
);
leftMetricsKey = C;
rightMetricsKey = C;
unicode = 010A;
},
{
glyphname = D;
lastChange = "2021-09-02 15:54:38 +0000";
layers = (
{
anchors = (
{
name = top;
position = "{434.509, 700}";
}
);
hints = (
{
place = "{15.381, 44.381}";
type = Stem;
},
{
place = "{514.381, 47.381}";
type = Stem;
},
{
horizontal = 1;
place = "{-69.619, 23.381}";
type = Stem;
},
{
horizontal = 1;
place = "{537.381, 23.381}";
type = Stem;
}
);
layerId = "0CF0EA28-C756-4A9E-9D7C-CFEF350B4CFE";
paths = (
{
closed = 1;
nodes = (
"164.509 700 LINE",
"25.27 0 LINE",
"272.27 0 LINE SMOOTH",
"495.27 0 OFFCURVE",
"667.527 132 OFFCURVE",
"710.293 347 CURVE SMOOTH",
"753.258 563 OFFCURVE",
"634.509 700 OFFCURVE",
"411.509 700 CURVE SMOOTH"
);
},
{
closed = 1;
nodes = (
"158.167 95 LINE",
"259.613 605 LINE",
"392.613 605 LINE SMOOTH",
"556.613 605 OFFCURVE",
"626.119 507 OFFCURVE",
"594.293 347 CURVE SMOOTH",
"562.666 188 OFFCURVE",
"455.167 95 OFFCURVE",
"291.167 95 CURVE SMOOTH"
);
}
);
width = 728.495;
},
{
anchors = (
{
name = top;
position = "{410.509, 700}";
}
);
hints = (
{
place = "{33.381, -47.619}";
type = Stem;
},
{
place = "{591.381, -47.619}";
type = Stem;
},
{
horizontal = 1;
place = "{-69.619, 21}";
target = up;
type = BottomGhost;
},
{
horizontal = 1;
place = "{615.381, -20}";
target = down;
type = TopGhost;
}
);
layerId = "6E968933-CD79-43C6-9231-80D77C940F4D";
paths = (
{
closed = 1;
nodes = (
"184.509 700 LINE",
"45.27 0 LINE",
"250.27 0 LINE",
"495.27 0 OFFCURVE",
"647.93 129 OFFCURVE",
"691.89 350 CURVE",
"735.85 571 OFFCURVE",
"634.509 700 OFFCURVE",
"389.509 700 CURVE"
);
},
{
closed = 1;
nodes = (
"71.249 20 LINE",
"202.531 680 LINE",
"385.531 680 LINE",
"620.531 680 OFFCURVE",
"710.468 554 OFFCURVE",
"669.89 350 CURVE",
"629.312 146 OFFCURVE",
"489.249 20 OFFCURVE",
"254.249 20 CURVE"
);
}
);
width = 719.50149;
},
{
anchors = (
{
name = top;
position = "{431.509, 700}";
}
);
hints = (
{
place = "{-16.619, 106.381}";
type = Stem;
},
{
place = "{459.381, 109.381}";
type = Stem;
},
{
horizontal = 1;
place = "{-69.619, 83.381}";
type = Stem;
},
{
horizontal = 1;
place = "{479.381, 81.381}";
type = Stem;
}
);
layerId = "BAF31694-0472-4296-B0EA-1654553C45D2";
paths = (
{
closed = 1;
nodes = (
"144.509 700 LINE",
"5.271 0 LINE",
"291.271 0 LINE SMOOTH",
"516.271 0 OFFCURVE",
"688.914 144 OFFCURVE",
"729.89 350 CURVE SMOOTH",
"771.264 558 OFFCURVE",
"655.509 700 OFFCURVE",
"430.509 700 CURVE SMOOTH"
);
},
{
closed = 1;
nodes = (
"208.312 146 LINE",
"289.468 554 LINE",
"390.468 554 LINE SMOOTH",
"516.468 554 OFFCURVE",
"577.953 476 OFFCURVE",
"552.89 350 CURVE SMOOTH",
"527.827 224 OFFCURVE",
"435.312 146 OFFCURVE",
"309.312 146 CURVE SMOOTH"
);
}
);
width = 737.49755;
},
{
anchors = (
{
name = top;
position = "{427.509, 700}";
}
);
hints = (
{
place = "{-30.619, -3.619}";
type = Stem;
},
{
place = "{557.381, -3.619}";
type = Stem;
},
{
horizontal = 1;
place = "{-69.619, 21}";
target = up;
type = BottomGhost;
},
{
horizontal = 1;
place = "{187.381, -20}";
target = down;
type = TopGhost;
}
);
layerId = "9F107B1E-3A61-4335-981B-27DD48125C7E";
paths = (
{
closed = 1;
nodes = (
"174.509 700 LINE",
"35.27 0 LINE",
"266.27 0 LINE",
"497.27 0 OFFCURVE",
"662.328 131 OFFCURVE",
"705.492 348 CURVE",
"748.855 566 OFFCURVE",
"636.509 700 OFFCURVE",
"405.509 700 CURVE"
);
},
{
closed = 1;
nodes = (
"129.195 70 LINE",
"240.585 630 LINE",
"391.585 630 LINE",
"581.585 630 OFFCURVE",
"659.7 525 OFFCURVE",
"624.492 348 CURVE",
"589.484 172 OFFCURVE",
"470.195 70 OFFCURVE",
"280.195 70 CURVE"
);
}
);
width = 728.49743;
}
);
leftMetricsKey = H;
rightMetricsKey = "=H*0.5";
unicode = 0044;
},
{
glyphname = Eth;
lastChange = "2021-09-02 15:54:38 +0000";
layers = (
{
hints = (
{
place = "{72.381, 45.381}";
type = Stem;
},
{
place = "{551.381, 47.381}";
type = Stem;
},
{
horizontal = 1;
place = "{-69.619, 17.381}";
type = Stem;
},
{
horizontal = 1;
place = "{225.381, 35.381}";
type = Stem;
},
{
horizontal = 1;
place = "{538.381, 22.381}";
type = Stem;
}
);
layerId = "0CF0EA28-C756-4A9E-9D7C-CFEF350B4CFE";
paths = (
{
closed = 1;
nodes = (
"63.95 295 LINE",
"140.95 295 LINE",
"82.271 0 LINE",
"310.271 0 LINE SMOOTH",
"533.271 0 OFFCURVE",
"704.527 132 OFFCURVE",
"747.293 347 CURVE SMOOTH",
"790.258 563 OFFCURVE",
"672.509 700 OFFCURVE",
"449.509 700 CURVE SMOOTH",
"221.509 700 LINE",
"161.836 400 LINE",
"84.836 400 LINE"
);
},
{
closed = 1;
nodes = (
"255.95 295 LINE",
"433.95 295 LINE",
"454.836 400 LINE",
"276.836 400 LINE",
"318.209 608 LINE",
"431.209 608 LINE SMOOTH",
"594.209 608 OFFCURVE",
"662.119 507 OFFCURVE",
"630.293 347 CURVE SMOOTH",
"598.666 188 OFFCURVE",
"490.377 86 OFFCURVE",
"327.576 87 CURVE SMOOTH",
"214.576 87 LINE"
);
}
);
width = 765.5;
},
{
hints = (
{
place = "{132.381, -47.619}";
type = Stem;
},
{
place = "{664.381, -47.619}";
type = Stem;
},
{
horizontal = 1;
place = "{-69.619, 21}";
target = up;
type = BottomGhost;
},
{
horizontal = 1;
place = "{615.381, -20}";
target = down;
type = TopGhost;
}
);
layerId = "6E968933-CD79-43C6-9231-80D77C940F4D";
paths = (
{
closed = 1;
nodes = (
"92.9 340 LINE",
"206.9 340 LINE",
"139.271 0 LINE",
"325.271 0 LINE SMOOTH",
"569.271 0 OFFCURVE",
"722.93 129 OFFCURVE",
"766.89 350 CURVE SMOOTH",
"810.85 571 OFFCURVE",
"708.509 700 OFFCURVE",
"464.509 700 CURVE SMOOTH",
"278.509 700 LINE",
"210.879 360 LINE",
"96.879 360 LINE"
);
},
{
closed = 1;
nodes = (
"228.9 340 LINE",
"460.9 340 LINE",
"464.879 360 LINE",
"232.879 360 LINE",
"296.73 681 LINE",
"460.73 681 LINE SMOOTH",
"694.73 681 OFFCURVE",
"785.468 554 OFFCURVE",
"744.89 350 CURVE SMOOTH",
"704.312 146 OFFCURVE",
"563.05 19 OFFCURVE",
"329.05 19 CURVE SMOOTH",
"165.05 19 LINE"
);
}
);
width = 794.50298;
},
{
hints = (
{
place = "{25.381, 107.381}";
type = Stem;
},
{
place = "{480.381, 109.381}";
type = Stem;
},
{
horizontal = 1;
place = "{-69.619, 81.381}";
type = Stem;
},
{
horizontal = 1;
place = "{207.381, 76.381}";
type = Stem;
},
{
horizontal = 1;
place = "{479.381, 81.381}";
type = Stem;
}
);
layerId = "BAF31694-0472-4296-B0EA-1654553C45D2";
paths = (
{
closed = 1;
nodes = (
"40.369 277 LINE",
"102.369 277 LINE",
"47.271 0 LINE",
"313.271 0 LINE SMOOTH",
"538.271 0 OFFCURVE",
"709.914 144 OFFCURVE",
"750.89 350 CURVE SMOOTH",
"792.264 558 OFFCURVE",
"677.509 700 OFFCURVE",
"452.509 700 CURVE SMOOTH",
"186.509 700 LINE",
"131.411 423 LINE",
"69.411 423 LINE"
);
},
{
closed = 1;
nodes = (
"278.369 277 LINE",
"429.369 277 LINE",
"458.411 423 LINE",
"307.411 423 LINE",
"332.672 550 LINE",
"411.672 550 LINE SMOOTH",
"536.672 550 OFFCURVE",
"596.953 476 OFFCURVE",
"571.89 350 CURVE SMOOTH",
"546.827 224 OFFCURVE",
"457.108 150 OFFCURVE",
"332.306 151 CURVE SMOOTH",
"253.306 151 LINE"
);
}
);
width = 758.50245;
},
{
hints = (
{
place = "{190.381, 4.381}";
type = Stem;
},
{
place = "{585.381, -3.619}";
type = Stem;
},
{
horizontal = 1;
place = "{-69.619, 21}";
target = up;
type = BottomGhost;
},
{
horizontal = 1;
place = "{187.381, -20}";
target = down;
type = TopGhost;
}
);
layerId = "9F107B1E-3A61-4335-981B-27DD48125C7E";
paths = (
{
closed = 1;
nodes = (
"77.331 312 LINE",
"167.331 312 LINE",
"105.271 0 LINE",
"318.271 0 LINE SMOOTH",
"549.271 0 OFFCURVE",
"713.328 131 OFFCURVE",
"756.492 348 CURVE SMOOTH",
"799.855 566 OFFCURVE",
"688.509 700 OFFCURVE",
"457.509 700 CURVE SMOOTH",
"244.509 700 LINE",
"181.852 385 LINE",
"91.852 385 LINE"
);
},
{
closed = 1;
nodes = (
"248.331 312 LINE",
"446.331 312 LINE",
"460.852 385 LINE",
"262.852 385 LINE",
"312.58 635 LINE",
"444.58 635 LINE SMOOTH",
"633.58 635 OFFCURVE",
"710.7 525 OFFCURVE",
"675.492 348 CURVE SMOOTH",
"640.484 172 OFFCURVE",
"519.404 61 OFFCURVE",
"330.603 62 CURVE SMOOTH",
"198.603 62 LINE"
);
}
);
width = 779.49487;
}
);
leftMetricsKey = "=D-20";
rightMetricsKey = D;
unicode = 00D0;
},
{
glyphname = Dcaron;
lastChange = "2021-09-02 09:18:01 +0000";
layers = (
{
anchors = (
{
name = top;
position = "{434.506, 700}";
}
);
hints = (
{
place = "{-6.753, 22.247}";
type = Stem;
},
{
place = "{492.247, 25.247}";
type = Stem;
},
{
horizontal = 1;
place = "{-91.753, 1.247}";
type = Stem;
},
{
horizontal = 1;
place = "{515.247, 1.247}";
type = Stem;
}
);
layerId = "0CF0EA28-C756-4A9E-9D7C-CFEF350B4CFE";
paths = (
{
closed = 1;
nodes = (
"164.506 700 LINE",
"25.267 0 LINE",
"272.267 0 LINE SMOOTH",
"495.267 0 OFFCURVE",
"667.523 132 OFFCURVE",
"710.29 347 CURVE SMOOTH",
"753.255 563 OFFCURVE",
"634.506 700 OFFCURVE",
"411.506 700 CURVE SMOOTH"
);
},
{
closed = 1;
nodes = (
"158.164 95 LINE",
"259.609 605 LINE",
"392.609 605 LINE SMOOTH",
"556.609 605 OFFCURVE",
"626.116 507 OFFCURVE",
"594.29 347 CURVE SMOOTH",
"562.663 188 OFFCURVE",
"455.164 95 OFFCURVE",
"291.164 95 CURVE SMOOTH"
);
},
{
closed = 1;
nodes = (
"461.547 835.945 LINE",
"335.773 922.547 LINE",
"317.946 832.924 LINE",
"444.321 749.343 LINE",
"603.946 832.924 LINE",
"621.773 922.547 LINE"
);
}
);
width = 728.5;
},
{
anchors = (
{
name = top;
position = "{410.509, 700}";
}
);
hints = (
{
place = "{14.691, -66.309}";
type = Stem;
},
{
place = "{572.691, -66.309}";
type = Stem;
},
{
horizontal = 1;
place = "{-88.309, 21}";
target = up;
type = BottomGhost;
},
{
horizontal = 1;
place = "{596.691, -20}";
target = down;
type = TopGhost;
}
);
layerId = "6E968933-CD79-43C6-9231-80D77C940F4D";
paths = (
{
closed = 1;
nodes = (
"184.509 700 LINE",
"45.27 0 LINE",
"250.27 0 LINE",
"495.27 0 OFFCURVE",
"647.93 129 OFFCURVE",
"691.89 350 CURVE",
"735.85 571 OFFCURVE",
"634.509 700 OFFCURVE",
"389.509 700 CURVE"
);
},
{
closed = 1;
nodes = (
"71.249 20 LINE",
"202.531 680 LINE",
"385.531 680 LINE",
"620.531 680 OFFCURVE",
"710.468 554 OFFCURVE",
"669.89 350 CURVE",
"629.312 146 OFFCURVE",
"489.249 20 OFFCURVE",
"254.249 20 CURVE"
);
},
{
closed = 1;
nodes = (
"431.869 807.384 LINE",
"323.889 887.923 LINE",
"319.538 866.048 LINE",
"427.518 785.51 LINE",
"567.538 866.048 LINE",
"571.889 887.923 LINE"
);
}
);
width = 719.49649;
},
{
anchors = (
{
name = top;
position = "{431.506, 700}";
}
);
hints = (
{
place = "{-42.133, 80.867}";
type = Stem;
},
{
place = "{433.867, 83.867}";
type = Stem;
},
{
horizontal = 1;
place = "{-95.133, 57.867}";
type = Stem;
},
{
horizontal = 1;
place = "{453.867, 55.867}";
type = Stem;
}
);
layerId = "BAF31694-0472-4296-B0EA-1654553C45D2";
paths = (
{
closed = 1;
nodes = (
"144.506 700 LINE",
"5.267 0 LINE",
"291.267 0 LINE SMOOTH",
"516.267 0 OFFCURVE",
"688.911 144 OFFCURVE",
"729.887 350 CURVE SMOOTH",
"771.26 558 OFFCURVE",
"655.506 700 OFFCURVE",
"430.506 700 CURVE SMOOTH"
);
},
{
closed = 1;
nodes = (
"208.308 146 LINE",
"289.465 554 LINE",
"390.465 554 LINE SMOOTH",
"516.465 554 OFFCURVE",
"577.949 476 OFFCURVE",
"552.887 350 CURVE SMOOTH",
"527.824 224 OFFCURVE",
"435.308 146 OFFCURVE",
"309.308 146 CURVE SMOOTH"
);
},
{
closed = 1;
nodes = (
"465.326 870.026 LINE",
"326.533 956.53 LINE",
"302.602 836.219 LINE",
"443.175 758.664 LINE",
"614.602 836.219 LINE",
"638.533 956.53 LINE"
);
}
);
width = 737.49255;
},
{
anchors = (
{
name = top;
position = "{427.507, 700}";
}
);
hints = (
{
place = "{-51.451, -24.451}";
type = Stem;
},
{
place = "{536.549, -24.451}";
type = Stem;
},
{
horizontal = 1;
place = "{-90.451, 21}";
target = up;
type = BottomGhost;
},
{
horizontal = 1;
place = "{166.549, -20}";
target = down;
type = TopGhost;
}
);
layerId = "9F107B1E-3A61-4335-981B-27DD48125C7E";
paths = (
{
closed = 1;
nodes = (
"174.507 700 LINE",
"35.269 0 LINE",
"266.269 0 LINE",
"497.269 0 OFFCURVE",
"662.326 131 OFFCURVE",
"705.49 348 CURVE",
"748.853 566 OFFCURVE",
"636.507 700 OFFCURVE",
"405.507 700 CURVE"
);
},
{
closed = 1;
nodes = (
"129.192 70 LINE",
"240.583 630 LINE",
"391.583 630 LINE",
"581.583 630 OFFCURVE",
"659.698 525 OFFCURVE",
"624.49 348 CURVE",
"589.481 172 OFFCURVE",
"470.192 70 OFFCURVE",
"280.192 70 CURVE"
);
},
{
closed = 1;
nodes = (
"452.426 825.275 LINE",
"333.171 909.46 LINE",
"320.413 845.319 LINE",
"440.066 763.139 LINE",
"592.413 845.319 LINE",
"605.171 909.46 LINE"
);
}
);
width = 728.49243;
}
);
leftMetricsKey = D;
rightMetricsKey = D;
unicode = 010E;
},
{
glyphname = Dcroat;
lastChange = "2021-09-02 09:18:17 +0000";
layers = (
{
hints = (
{
place = "{72.381, 45.381}";
type = Stem;
},
{
place = "{551.381, 47.381}";
type = Stem;
},
{
horizontal = 1;
place = "{-69.619, 17.381}";
type = Stem;
},
{
horizontal = 1;
place = "{225.381, 35.381}";
type = Stem;
},
{
horizontal = 1;
place = "{538.381, 22.381}";
type = Stem;
}
);
layerId = "0CF0EA28-C756-4A9E-9D7C-CFEF350B4CFE";
paths = (
{
closed = 1;
nodes = (
"83.95 295 LINE",
"160.95 295 LINE",
"102.271 0 LINE",
"330.271 0 LINE SMOOTH",
"553.271 0 OFFCURVE",
"724.527 132 OFFCURVE",
"767.293 347 CURVE SMOOTH",
"810.258 563 OFFCURVE",
"692.509 700 OFFCURVE",
"469.509 700 CURVE SMOOTH",
"241.509 700 LINE",
"181.836 400 LINE",
"104.836 400 LINE"
);
},
{
closed = 1;
nodes = (
"275.95 295 LINE",
"453.95 295 LINE",
"474.836 400 LINE",
"296.836 400 LINE",
"338.209 608 LINE",
"451.209 608 LINE SMOOTH",
"614.209 608 OFFCURVE",
"682.119 507 OFFCURVE",
"650.293 347 CURVE SMOOTH",
"618.666 188 OFFCURVE",
"510.377 86 OFFCURVE",
"347.576 87 CURVE SMOOTH",
"234.576 87 LINE"
);
}
);
width = 785.5;
},
{
hints = (
{
place = "{132.381, -47.619}";
type = Stem;
},
{
place = "{664.381, -47.619}";
type = Stem;
},
{
horizontal = 1;
place = "{-69.619, 21}";
target = up;
type = BottomGhost;
},
{
horizontal = 1;
place = "{615.381, -20}";
target = down;
type = TopGhost;
}
);
layerId = "6E968933-CD79-43C6-9231-80D77C940F4D";
paths = (
{
closed = 1;
nodes = (
"112.9 340 LINE",
"226.9 340 LINE",
"159.271 0 LINE",
"345.271 0 LINE SMOOTH",
"589.271 0 OFFCURVE",
"742.93 129 OFFCURVE",
"786.89 350 CURVE SMOOTH",
"830.85 571 OFFCURVE",
"728.509 700 OFFCURVE",
"484.509 700 CURVE SMOOTH",
"298.509 700 LINE",
"230.879 360 LINE",
"116.879 360 LINE"
);
},
{
closed = 1;
nodes = (
"248.9 340 LINE",
"480.9 340 LINE",
"484.879 360 LINE",
"252.879 360 LINE",
"316.73 681 LINE",
"480.73 681 LINE SMOOTH",
"714.73 681 OFFCURVE",
"805.468 554 OFFCURVE",
"764.89 350 CURVE SMOOTH",
"724.312 146 OFFCURVE",
"583.05 19 OFFCURVE",
"349.05 19 CURVE SMOOTH",
"185.05 19 LINE"
);
}
);
width = 814.50298;
},
{
hints = (
{
place = "{25.381, 107.381}";
type = Stem;
},
{
place = "{480.381, 109.381}";
type = Stem;
},
{
horizontal = 1;
place = "{-69.619, 81.381}";
type = Stem;
},
{
horizontal = 1;
place = "{207.381, 76.381}";
type = Stem;
},
{
horizontal = 1;
place = "{479.381, 81.381}";
type = Stem;
}
);
layerId = "BAF31694-0472-4296-B0EA-1654553C45D2";
paths = (
{
closed = 1;
nodes = (
"60.369 277 LINE",
"122.369 277 LINE",
"67.271 0 LINE",
"333.271 0 LINE SMOOTH",
"558.271 0 OFFCURVE",
"729.914 144 OFFCURVE",
"770.89 350 CURVE SMOOTH",
"812.264 558 OFFCURVE",
"697.509 700 OFFCURVE",
"472.509 700 CURVE SMOOTH",
"206.509 700 LINE",
"151.411 423 LINE",
"89.411 423 LINE"
);
},
{
closed = 1;
nodes = (
"298.369 277 LINE",
"449.369 277 LINE",
"478.411 423 LINE",
"327.411 423 LINE",
"352.672 550 LINE",
"431.672 550 LINE SMOOTH",
"556.672 550 OFFCURVE",
"616.953 476 OFFCURVE",
"591.89 350 CURVE SMOOTH",
"566.827 224 OFFCURVE",
"477.108 150 OFFCURVE",
"352.306 151 CURVE SMOOTH",
"273.306 151 LINE"
);
}
);
width = 778.50245;
},
{
hints = (
{
place = "{190.381, 4.381}";
type = Stem;
},
{
place = "{585.381, -3.619}";
type = Stem;
},
{
horizontal = 1;
place = "{-69.619, 21}";
target = up;
type = BottomGhost;
},
{
horizontal = 1;
place = "{187.381, -20}";
target = down;
type = TopGhost;
}
);
layerId = "9F107B1E-3A61-4335-981B-27DD48125C7E";
paths = (
{
closed = 1;
nodes = (
"97.331 312 LINE",
"187.331 312 LINE",
"125.271 0 LINE",
"338.271 0 LINE SMOOTH",
"569.271 0 OFFCURVE",
"733.328 131 OFFCURVE",
"776.492 348 CURVE SMOOTH",
"819.855 566 OFFCURVE",
"708.509 700 OFFCURVE",
"477.509 700 CURVE SMOOTH",
"264.509 700 LINE",
"201.852 385 LINE",
"111.852 385 LINE"
);
},
{
closed = 1;
nodes = (
"268.331 312 LINE",
"466.331 312 LINE",
"480.852 385 LINE",
"282.852 385 LINE",
"332.58 635 LINE",
"464.58 635 LINE SMOOTH",
"653.58 635 OFFCURVE",
"730.7 525 OFFCURVE",
"695.492 348 CURVE SMOOTH",
"660.484 172 OFFCURVE",
"539.404 61 OFFCURVE",
"350.603 62 CURVE SMOOTH",
"218.603 62 LINE"
);
}
);
width = 799.49487;
}
);
leftMetricsKey = D;
rightMetricsKey = D;
unicode = 0110;
},
{
glyphname = E;
lastChange = "2021-09-02 15:54:38 +0000";
layers = (
{
anchors = (
{
name = bottom;
position = "{252.271, 0}";
},
{
name = ogonek;
position = "{449.271, 0}";
},
{
name = top;
position = "{401.509, 700}";
}
);
hints = (
{
place = "{15.381, 44.381}";
type = Stem;
},
{
horizontal = 1;
place = "{-69.619, 23.381}";
type = Stem;
},
{
horizontal = 1;
place = "{238.381, 23.381}";
type = Stem;
},
{
horizontal = 1;
place = "{537.381, 23.381}";
type = Stem;
}
);
layerId = "0CF0EA28-C756-4A9E-9D7C-CFEF350B4CFE";
paths = (
{
closed = 1;
nodes = (
"638.509 700 LINE",
"164.509 700 LINE",
"25.27 0 LINE",
"499.27 0 LINE",
"518.167 95 LINE",
"158.167 95 LINE",
"200.337 307 LINE",
"470.337 307 LINE",
"489.233 402 LINE",
"219.233 402 LINE",
"259.613 605 LINE",
"619.613 605 LINE"
);
}
);
width = 604;
},
{
anchors = (
{
name = bottom;
position = "{233.271, 0}";
},
{
name = ogonek;
position = "{429.271, 0}";
},
{
name = top;
position = "{401.509, 700}";
}
);
hints = (
{
place = "{46.381, -47.619}";
type = Stem;
},
{
horizontal = 1;
place = "{615.381, -20}";
target = down;
type = TopGhost;
},
{
horizontal = 1;
place = "{-69.619, 21}";
target = up;
type = BottomGhost;
}
);
layerId = "6E968933-CD79-43C6-9231-80D77C940F4D";
paths = (
{
closed = 1;
nodes = (
"618.509 700 LINE",
"184.509 700 LINE",
"45.27 0 LINE",
"479.27 0 LINE",
"483.249 20 LINE",
"71.249 20 LINE",
"136.89 350 LINE",
"445.89 350 LINE",
"449.868 370 LINE",
"140.868 370 LINE",
"202.531 680 LINE",
"614.531 680 LINE"
);
}
);
width = 604;
},
{
anchors = (
{
name = bottom;
position = "{258.47, 1}";
},
{
name = ogonek;
position = "{480.47, 1}";
},
{
name = top;
position = "{401.509, 700}";
}
);
hints = (
{
place = "{-16.619, 106.381}";
type = Stem;
},
{
horizontal = 1;
place = "{-69.619, 71.381}";
type = Stem;
},
{
horizontal = 1;
place = "{216.381, 71.381}";
type = Stem;
},
{
horizontal = 1;
place = "{489.381, 71.381}";
type = Stem;
}
);
layerId = "BAF31694-0472-4296-B0EA-1654553C45D2";
paths = (
{
closed = 1;
nodes = (
"669.509 700 LINE",
"144.509 700 LINE",
"5.271 0 LINE",
"530.262 0 LINE",
"559.312 146 LINE",
"208.312 146 LINE",
"236.359 287 LINE",
"498.359 287 LINE",
"525.411 423 LINE",
"263.411 423 LINE",
"289.468 554 LINE",
"640.468 554 LINE"
);
}
);
width = 614.99434;
},
{
anchors = (
{
name = bottom;
position = "{247.271, 0}";
},
{
name = ogonek;
position = "{444.271, 0}";
},
{
name = top;
position = "{403.509, 700}";
}
);
hints = (
{
place = "{353.381, -3.619}";
type = Stem;
},
{
horizontal = 1;
place = "{187.381, -20}";
target = down;
type = TopGhost;
},
{
horizontal = 1;
place = "{-69.619, 21}";
target = up;
type = BottomGhost;
}
);
layerId = "9F107B1E-3A61-4335-981B-27DD48125C7E";
paths = (
{
closed = 1;
nodes = (
"633.509 700 LINE",
"174.509 700 LINE",
"35.27 0 LINE",
"494.27 0 LINE",
"508.195 70 LINE",
"129.195 70 LINE",
"179.122 321 LINE",
"464.122 321 LINE",
"478.045 391 LINE",
"193.045 391 LINE",
"240.585 630 LINE",
"619.585 630 LINE"
);
}
);
width = 609.00375;
}
);
leftMetricsKey = H;
rightMetricsKey = "=H-20";
unicode = 0045;
},
{
glyphname = Eacute;
lastChange = "2021-09-02 15:54:38 +0000";
layers = (
{
anchors = (
{
name = bottom;
position = "{252.272, 0}";
},
{
name = ogonek;
position = "{449.272, 0}";
},
{
name = top;
position = "{401.511, 700}";
}
);
hints = (
{
place = "{-10.058, 18.942}";
type = Stem;
},
{
horizontal = 1;
place = "{-95.058, -2.058}";
type = Stem;
},
{
horizontal = 1;
place = "{212.942, -2.058}";
type = Stem;
},
{
horizontal = 1;
place = "{511.942, -2.058}";
type = Stem;
}
);
layerId = "0CF0EA28-C756-4A9E-9D7C-CFEF350B4CFE";
paths = (
{
closed = 1;
nodes = (
"638.511 700 LINE",
"164.511 700 LINE",
"25.272 0 LINE",
"499.272 0 LINE",
"518.169 95 LINE",
"158.169 95 LINE",
"200.338 307 LINE",
"470.338 307 LINE",
"489.235 402 LINE",
"219.235 402 LINE",
"259.614 605 LINE",
"619.614 605 LINE"
);
},
{
closed = 1;
nodes = (
"310.151 833.931 LINE",
"293.326 749.343 LINE",
"535.958 858.099 LINE",
"555.388 955.778 LINE"
);
}
);
width = 604;
},
{
anchors = (
{
name = bottom;
position = "{233.274, 0}";
},
{
name = ogonek;
position = "{429.274, 0}";
},
{
name = top;
position = "{401.513, 700}";
}
);
hints = (
{
place = "{25.614, -68.386}";
type = Stem;
},
{
horizontal = 1;
place = "{594.614, -20}";
target = down;
type = TopGhost;
},
{
horizontal = 1;
place = "{-90.386, 21}";
target = up;
type = BottomGhost;
}
);
layerId = "6E968933-CD79-43C6-9231-80D77C940F4D";
paths = (
{
closed = 1;
nodes = (
"618.513 700 LINE",
"184.513 700 LINE",
"45.274 0 LINE",
"479.274 0 LINE",
"483.252 20 LINE",
"71.252 20 LINE",
"136.893 350 LINE",
"445.893 350 LINE",
"449.871 370 LINE",
"140.871 370 LINE",
"202.534 680 LINE",
"614.534 680 LINE"
);
},
{
closed = 1;
nodes = (
"309.544 775.567 LINE",
"305.39 754.686 LINE",
"518.102 883.945 LINE",
"523.046 908.803 LINE"
);
}
);
width = 604;
},
{
anchors = (
{
name = bottom;
position = "{258.474, 1}";
},
{
name = ogonek;
position = "{480.474, 1}";
},
{
name = top;
position = "{401.514, 700}";
}
);
hints = (
{
place = "{-45.495, 77.505}";
type = Stem;
},
{
horizontal = 1;
place = "{-98.495, 42.505}";
type = Stem;
},
{
horizontal = 1;
place = "{187.505, 42.505}";
type = Stem;
},
{
horizontal = 1;
place = "{460.505, 42.505}";
type = Stem;
}
);
layerId = "BAF31694-0472-4296-B0EA-1654553C45D2";
paths = (
{
closed = 1;
nodes = (
"669.514 700 LINE",
"144.514 700 LINE",
"5.275 0 LINE",
"530.266 0 LINE",
"559.316 146 LINE",
"208.316 146 LINE",
"236.363 287 LINE",
"498.363 287 LINE",
"525.415 423 LINE",
"263.415 423 LINE",
"289.472 554 LINE",
"640.472 554 LINE"
);
},
{
closed = 1;
nodes = (
"311.718 876.986 LINE",
"287.787 756.675 LINE",
"550.367 855.111 LINE",
"577.265 990.336 LINE"
);
}
);
width = 615.00434;
},
{
anchors = (
{
name = bottom;
position = "{247.268, 0}";
},
{
name = ogonek;
position = "{444.268, 0}";
},
{
name = top;
position = "{403.507, 700}";
}
);
hints = (
{
place = "{329.658, -27.342}";
type = Stem;
},
{
horizontal = 1;
place = "{163.658, -20}";
target = down;
type = TopGhost;
},
{
horizontal = 1;
place = "{-93.342, 21}";
target = up;
type = BottomGhost;
}
);
layerId = "9F107B1E-3A61-4335-981B-27DD48125C7E";
paths = (
{
closed = 1;
nodes = (
"633.507 700 LINE",
"174.507 700 LINE",
"35.268 0 LINE",
"494.268 0 LINE",
"508.192 70 LINE",
"129.192 70 LINE",
"179.119 321 LINE",
"464.119 321 LINE",
"478.043 391 LINE",
"193.043 391 LINE",
"240.583 630 LINE",
"619.583 630 LINE"
);
},
{
closed = 1;
nodes = (
"312.033 813.249 LINE",
"300.072 753.117 LINE",
"530.998 868.37 LINE",
"544.952 938.524 LINE"
);
}
);
width = 608.99375;
}
);
leftMetricsKey = H;
rightMetricsKey = E;
unicode = 00C9;
},
{
glyphname = Ebreve;
lastChange = "2021-09-02 09:18:01 +0000";
layers = (
{
anchors = (
{
name = bottom;
position = "{252.268, 0}";
},
{
name = ogonek;
position = "{449.268, 0}";
},
{
name = top;
position = "{401.506, 700}";
}
);
hints = (
{
place = "{-6.352, 22.648}";
type = Stem;
},
{
horizontal = 1;
place = "{-91.352, 1.648}";
type = Stem;
},
{
horizontal = 1;
place = "{216.648, 1.648}";
type = Stem;
},
{
horizontal = 1;
place = "{515.648, 1.648}";
type = Stem;
},
{
place = "{71.398, -25.897}";
type = Stem;
},
{
place = "{306.398, -24.89}";
type = Stem;
},
{
horizontal = 1;
place = "{665.04, -1.729}";
type = Stem;
},
{
horizontal = 1;
place = "{665.04, 70.775}";
type = Stem;
}
);
layerId = "0CF0EA28-C756-4A9E-9D7C-CFEF350B4CFE";
paths = (
{
closed = 1;
nodes = (
"638.506 700 LINE",
"164.506 700 LINE",
"25.268 0 LINE",
"499.268 0 LINE",
"518.164 95 LINE",
"158.164 95 LINE",
"200.334 307 LINE",
"470.334 307 LINE",
"489.23 402 LINE",
"219.23 402 LINE",
"259.61 605 LINE",
"619.61 605 LINE"
);
},
{
closed = 1;
nodes = (
"595.972 918.519 LINE",
"529.972 918.519 LINE",
"520.959 873.204 OFFCURVE",
"495.55 846.015 OFFCURVE",
"430.55 846.015 CURVE SMOOTH",
"365.55 846.015 OFFCURVE",
"350.959 873.204 OFFCURVE",
"359.972 918.519 CURVE",
"294.972 918.519 LINE",
"290.766 897.372 LINE SMOOTH",
"274.141 813.791 OFFCURVE",
"318.723 756.392 OFFCURVE",
"412.723 756.392 CURVE SMOOTH",
"507.723 756.392 OFFCURVE",
"574.94 812.784 OFFCURVE",
"591.566 896.365 CURVE SMOOTH"
);
}
);
width = 604;
},
{
anchors = (
{
name = bottom;
position = "{233.267, 0}";
},
{
name = ogonek;
position = "{429.267, 0}";
},
{
name = top;
position = "{401.506, 700}";
}
);
hints = (
{
place = "{27.097, -66.903}";
type = Stem;
},
{
horizontal = 1;
place = "{596.097, -20}";
target = down;
type = TopGhost;
},
{
horizontal = 1;
place = "{-88.903, 21}";
target = up;
type = BottomGhost;
},
{
place = "{117.847, -68.022}";
type = Stem;
},
{
place = "{329.847, -66.034}";
type = Stem;
},
{
horizontal = 1;
place = "{683.681, 21}";
target = up;
type = BottomGhost;
},
{
horizontal = 1;
place = "{789.077, -20}";
target = down;
type = TopGhost;
}
);
layerId = "6E968933-CD79-43C6-9231-80D77C940F4D";
paths = (
{
closed = 1;
nodes = (
"618.506 700 LINE",
"184.506 700 LINE",
"45.267 0 LINE",
"479.267 0 LINE",
"483.246 20 LINE",
"71.246 20 LINE",
"136.887 350 LINE",
"445.887 350 LINE",
"449.865 370 LINE",
"140.865 370 LINE",
"202.528 680 LINE",
"614.528 680 LINE"
);
},
{
closed = 1;
nodes = (
"559.073 893.888 LINE",
"538.073 893.888 LINE",
"526.799 837.213 OFFCURVE",
"484.273 804.401 OFFCURVE",
"422.273 804.401 CURVE",
"360.273 804.401 OFFCURVE",
"331.799 837.213 OFFCURVE",
"343.073 893.888 CURVE",
"322.073 893.888 LINE",
"321.084 888.917 LINE SMOOTH",
"311.59 841.191 OFFCURVE",
"333.515 785.51 OFFCURVE",
"418.515 785.51 CURVE",
"504.515 785.51 OFFCURVE",
"548.59 841.191 OFFCURVE",
"558.084 888.917 CURVE SMOOTH"
);
}
);
width = 604;
},
{
anchors = (
{
name = bottom;
position = "{258.474, 1}";
},
{
name = ogonek;
position = "{480.474, 1}";
},
{
name = top;
position = "{401.514, 700}";
}
);
hints = (
{
place = "{-41.935, 81.065}";
type = Stem;
},
{
horizontal = 1;
place = "{-94.935, 46.065}";
type = Stem;
},
{
horizontal = 1;
place = "{191.065, 46.065}";
type = Stem;
},
{
horizontal = 1;
place = "{464.065, 46.065}";
type = Stem;
},
{
place = "{43.815, -8.431}";
type = Stem;
},
{
place = "{300.815, -8.431}";
type = Stem;
},
{
horizontal = 1;
place = "{665.718, 33.33}";
type = Stem;
},
{
horizontal = 1;
place = "{665.718, 98.953}";
type = Stem;
}
);
layerId = "BAF31694-0472-4296-B0EA-1654553C45D2";
paths = (
{
closed = 1;
nodes = (
"669.514 700 LINE",
"144.514 700 LINE",
"5.275 0 LINE",
"530.266 0 LINE",
"559.316 146 LINE",
"208.316 146 LINE",
"236.363 287 LINE",
"498.363 287 LINE",
"525.415 423 LINE",
"263.415 423 LINE",
"289.472 554 LINE",
"640.472 554 LINE"
);
},
{
closed = 1;
nodes = (
"624.145 954.541 LINE",
"537.145 954.541 LINE",
"528.838 912.781 OFFCURVE",
"503.894 887.923 OFFCURVE",
"438.894 887.923 CURVE SMOOTH",
"373.894 887.923 OFFCURVE",
"358.838 912.781 OFFCURVE",
"367.145 954.541 CURVE",
"280.145 954.541 LINE",
"276.387 935.649 LINE SMOOTH",
"253.643 821.305 OFFCURVE",
"313.578 760.653 OFFCURVE",
"413.578 760.653 CURVE SMOOTH",
"514.578 760.653 OFFCURVE",
"597.643 821.305 OFFCURVE",
"620.387 935.649 CURVE SMOOTH"
);
}
);
width = 615.00434;
},
{
anchors = (
{
name = bottom;
position = "{247.269, 0}";
},
{
name = ogonek;
position = "{444.269, 0}";
},
{
name = top;
position = "{403.507, 700}";
}
);
hints = (
{
place = "{332.549, -24.451}";
type = Stem;
},
{
horizontal = 1;
place = "{166.549, -20}";
target = down;
type = TopGhost;
},
{
horizontal = 1;
place = "{-90.451, 21}";
target = up;
type = BottomGhost;
},
{
place = "{455.799, -26.311}";
type = Stem;
},
{
place = "{535.799, 18.788}";
type = Stem;
},
{
horizontal = 1;
place = "{297.865, 21}";
target = up;
type = BottomGhost;
},
{
horizontal = 1;
place = "{337.953, -20}";
target = down;
type = TopGhost;
}
);
layerId = "9F107B1E-3A61-4335-981B-27DD48125C7E";
paths = (
{
closed = 1;
nodes = (
"633.507 700 LINE",
"174.507 700 LINE",
"35.269 0 LINE",
"494.269 0 LINE",
"508.192 70 LINE",
"129.192 70 LINE",
"179.119 321 LINE",
"464.119 321 LINE",
"478.043 391 LINE",
"193.043 391 LINE",
"240.583 630 LINE",
"619.583 630 LINE"
);
},
{
closed = 1;
nodes = (
"584.171 909.46 LINE",
"535.171 909.46 LINE",
"525.204 859.35 OFFCURVE",
"493.423 830.286 OFFCURVE",
"429.423 830.286 CURVE",
"365.423 830.286 OFFCURVE",
"345.204 859.35 OFFCURVE",
"355.171 909.46 CURVE",
"307.171 909.46 LINE",
"304.181 894.427 LINE SMOOTH",
"290.227 824.273 OFFCURVE",
"325.864 767.148 OFFCURVE",
"416.864 767.148 CURVE",
"508.864 767.148 OFFCURVE",
"567.027 823.271 OFFCURVE",
"580.982 893.425 CURVE SMOOTH"
);
}
);
width = 608.99375;
}
);
leftMetricsKey = H;
rightMetricsKey = E;
unicode = 0114;
},
{
glyphname = Ecaron;
lastChange = "2021-09-02 09:18:01 +0000";
layers = (
{
anchors = (
{
name = bottom;
position = "{252.267, 0}";
},
{
name = ogonek;
position = "{449.267, 0}";
},
{
name = top;
position = "{401.506, 700}";
}
);
hints = (
{
place = "{-6.753, 22.247}";
type = Stem;
},
{
horizontal = 1;
place = "{-91.753, 1.247}";
type = Stem;
},
{
horizontal = 1;
place = "{216.247, 1.247}";
type = Stem;
},
{
horizontal = 1;
place = "{515.247, 1.247}";
type = Stem;
}
);
layerId = "0CF0EA28-C756-4A9E-9D7C-CFEF350B4CFE";
paths = (
{
closed = 1;
nodes = (
"638.506 700 LINE",
"164.506 700 LINE",
"25.267 0 LINE",
"499.267 0 LINE",
"518.164 95 LINE",
"158.164 95 LINE",
"200.333 307 LINE",
"470.333 307 LINE",
"489.23 402 LINE",
"219.23 402 LINE",
"259.609 605 LINE",
"619.609 605 LINE"
);
},
{
closed = 1;
nodes = (
"428.547 835.945 LINE",
"302.773 922.547 LINE",
"284.946 832.924 LINE",
"411.321 749.343 LINE",
"570.946 832.924 LINE",
"588.773 922.547 LINE"
);
}
);
width = 604;
},
{
anchors = (
{
name = bottom;
position = "{233.271, 0}";
},
{
name = ogonek;
position = "{429.271, 0}";
},
{
name = top;
position = "{401.509, 700}";
}
);
hints = (
{
place = "{27.691, -66.309}";
type = Stem;
},
{
horizontal = 1;
place = "{596.691, -20}";
target = down;
type = TopGhost;
},
{
horizontal = 1;
place = "{-88.309, 21}";
target = up;
type = BottomGhost;
}
);
layerId = "6E968933-CD79-43C6-9231-80D77C940F4D";
paths = (
{
closed = 1;
nodes = (
"618.509 700 LINE",
"184.509 700 LINE",
"45.27 0 LINE",
"479.27 0 LINE",
"483.249 20 LINE",
"71.249 20 LINE",
"136.89 350 LINE",
"445.89 350 LINE",
"449.868 370 LINE",
"140.868 370 LINE",
"202.531 680 LINE",
"614.531 680 LINE"
);
},
{
closed = 1;
nodes = (
"422.869 807.384 LINE",
"314.889 887.923 LINE",
"310.538 866.048 LINE",
"418.518 785.51 LINE",
"558.538 866.048 LINE",
"562.889 887.923 LINE"
);
}
);
width = 604;
},
{
anchors = (
{
name = bottom;
position = "{258.466, 1}";
},
{
name = ogonek;
position = "{480.466, 1}";
},
{
name = top;
position = "{401.506, 700}";
}
);
hints = (
{
place = "{-42.133, 80.867}";
type = Stem;
},
{
horizontal = 1;
place = "{-95.133, 45.867}";
type = Stem;
},
{
horizontal = 1;
place = "{190.867, 45.867}";
type = Stem;
},
{
horizontal = 1;
place = "{463.867, 45.867}";
type = Stem;
}
);
layerId = "BAF31694-0472-4296-B0EA-1654553C45D2";
paths = (
{
closed = 1;
nodes = (
"669.506 700 LINE",
"144.506 700 LINE",
"5.267 0 LINE",
"530.258 0 LINE",
"559.308 146 LINE",
"208.308 146 LINE",
"236.355 287 LINE",
"498.355 287 LINE",
"525.407 423 LINE",
"263.407 423 LINE",
"289.465 554 LINE",
"640.465 554 LINE"
);
},
{
closed = 1;
nodes = (
"435.326 870.026 LINE",
"296.533 956.53 LINE",
"272.602 836.219 LINE",
"413.175 758.664 LINE",
"584.602 836.219 LINE",
"608.533 956.53 LINE"
);
}
);
width = 614.99434;
},
{
anchors = (
{
name = bottom;
position = "{247.269, 0}";
},
{
name = ogonek;
position = "{444.269, 0}";
},
{
name = top;
position = "{403.507, 700}";
}
);
hints = (
{
place = "{332.549, -24.451}";
type = Stem;
},
{
horizontal = 1;
place = "{166.549, -20}";
target = down;
type = TopGhost;
},
{
horizontal = 1;
place = "{-90.451, 21}";
target = up;
type = BottomGhost;
}
);
layerId = "9F107B1E-3A61-4335-981B-27DD48125C7E";
paths = (
{
closed = 1;
nodes = (
"633.507 700 LINE",
"174.507 700 LINE",
"35.269 0 LINE",
"494.269 0 LINE",
"508.192 70 LINE",
"129.192 70 LINE",
"179.119 321 LINE",
"464.119 321 LINE",
"478.043 391 LINE",
"193.043 391 LINE",
"240.583 630 LINE",
"619.583 630 LINE"
);
},
{
closed = 1;
nodes = (
"428.426 825.275 LINE",
"309.171 909.46 LINE",
"296.413 845.319 LINE",
"416.066 763.139 LINE",
"568.413 845.319 LINE",
"581.171 909.46 LINE"
);
}
);
width = 608.99375;
}
);
leftMetricsKey = H;
rightMetricsKey = E;
unicode = 011A;
},
{
glyphname = Ecircumflex;
lastChange = "2021-09-02 15:54:38 +0000";
layers = (
{
anchors = (
{
name = bottom;
position = "{252.267, 0}";
},
{
name = ogonek;
position = "{449.267, 0}";
},
{
name = top;
position = "{401.506, 700}";
}
);
hints = (
{
place = "{-6.753, 22.247}";
type = Stem;
},
{
horizontal = 1;
place = "{-91.753, 1.247}";
type = Stem;
},
{
horizontal = 1;
place = "{216.247, 1.247}";
type = Stem;
},
{
horizontal = 1;
place = "{515.247, 1.247}";
type = Stem;
}
);
layerId = "0CF0EA28-C756-4A9E-9D7C-CFEF350B4CFE";
paths = (
{
closed = 1;
nodes = (
"638.506 700 LINE",
"164.506 700 LINE",
"25.267 0 LINE",
"499.267 0 LINE",
"518.164 95 LINE",
"158.164 95 LINE",
"200.333 307 LINE",
"470.333 307 LINE",
"489.23 402 LINE",
"219.23 402 LINE",
"259.609 605 LINE",
"619.609 605 LINE"
);
},
{
closed = 1;
nodes = (
"572.148 838.966 LINE",
"445.773 922.547 LINE",
"286.148 838.966 LINE",
"268.321 749.343 LINE",
"428.547 835.945 LINE",
"554.321 749.343 LINE"
);
}
);
width = 604;
},
{
anchors = (
{
name = bottom;
position = "{233.274, 0}";
},
{
name = ogonek;
position = "{429.274, 0}";
},
{
name = top;
position = "{401.513, 700}";
}
);
hints = (
{
place = "{27.394, -66.606}";
type = Stem;
},
{
horizontal = 1;
place = "{596.394, -20}";
target = down;
type = TopGhost;
},
{
horizontal = 1;
place = "{-88.606, 21}";
target = up;
type = BottomGhost;
}
);
layerId = "6E968933-CD79-43C6-9231-80D77C940F4D";
paths = (
{
closed = 1;
nodes = (
"618.513 700 LINE",
"184.513 700 LINE",
"45.274 0 LINE",
"479.274 0 LINE",
"483.252 20 LINE",
"71.252 20 LINE",
"136.893 350 LINE",
"445.893 350 LINE",
"449.872 370 LINE",
"140.872 370 LINE",
"202.534 680 LINE",
"614.534 680 LINE"
);
},
{
closed = 1;
nodes = (
"547.466 810.367 LINE",
"439.486 890.906 LINE",
"299.466 810.367 LINE",
"295.115 788.493 LINE",
"435.135 869.031 LINE",
"543.115 788.493 LINE"
);
}
);
width = 604;
},
{
anchors = (
{
name = bottom;
position = "{258.466, 1}";
},
{
name = ogonek;
position = "{480.466, 1}";
},
{
name = top;
position = "{401.506, 700}";
}
);
hints = (
{
place = "{-42.133, 80.867}";
type = Stem;
},
{
horizontal = 1;
place = "{-95.133, 45.867}";
type = Stem;
},
{
horizontal = 1;
place = "{190.867, 45.867}";
type = Stem;
},
{
horizontal = 1;
place = "{463.867, 45.867}";
type = Stem;
}
);
layerId = "BAF31694-0472-4296-B0EA-1654553C45D2";
paths = (
{
closed = 1;
nodes = (
"669.506 700 LINE",
"144.506 700 LINE",
"5.267 0 LINE",
"530.258 0 LINE",
"559.308 146 LINE",
"208.308 146 LINE",
"236.355 287 LINE",
"498.355 287 LINE",
"525.407 423 LINE",
"263.407 423 LINE",
"289.465 554 LINE",
"640.465 554 LINE"
);
},
{
closed = 1;
nodes = (
"593.106 878.974 LINE",
"452.533 956.53 LINE",
"281.106 878.974 LINE",
"257.175 758.664 LINE",
"429.195 839.202 LINE",
"569.175 758.664 LINE"
);
}
);
width = 614.99434;
},
{
anchors = (
{
name = bottom;
position = "{247.269, 0}";
},
{
name = ogonek;
position = "{444.269, 0}";
},
{
name = top;
position = "{403.508, 700}";
}
);
hints = (
{
place = "{332.449, -24.551}";
type = Stem;
},
{
horizontal = 1;
place = "{166.449, -20}";
target = down;
type = TopGhost;
},
{
horizontal = 1;
place = "{-90.551, 21}";
target = up;
type = BottomGhost;
}
);
layerId = "9F107B1E-3A61-4335-981B-27DD48125C7E";
paths = (
{
closed = 1;
nodes = (
"633.508 700 LINE",
"174.508 700 LINE",
"35.269 0 LINE",
"494.269 0 LINE",
"508.193 70 LINE",
"129.193 70 LINE",
"179.12 321 LINE",
"464.12 321 LINE",
"478.044 391 LINE",
"193.044 391 LINE",
"240.584 630 LINE",
"619.584 630 LINE"
);
},
{
closed = 1;
nodes = (
"565.024 828.282 LINE",
"445.371 910.462 LINE",
"293.024 828.282 LINE",
"280.266 764.141 LINE",
"433.011 848.326 LINE",
"552.266 764.141 LINE"
);
}
);
width = 608.99375;
}
);
leftMetricsKey = H;
rightMetricsKey = E;
unicode = 00CA;
},
{
glyphname = Edieresis;
lastChange = "2021-09-02 15:54:38 +0000";
layers = (
{
anchors = (
{
name = bottom;
position = "{252.27, 0}";
},
{
name = ogonek;
position = "{449.27, 0}";
},
{
name = top;
position = "{401.509, 700}";
}
);
hints = (
{
place = "{-4.55, 24.45}";
type = Stem;
},
{
horizontal = 1;
place = "{-89.55, 3.45}";
type = Stem;
},
{
horizontal = 1;
place = "{218.45, 3.45}";
type = Stem;
},
{
horizontal = 1;
place = "{517.45, 3.45}";
type = Stem;
},
{
place = "{77.2, 31.29}";
type = Stem;
},
{
place = "{249.2, 31.29}";
type = Stem;
},
{
horizontal = 1;
place = "{690.003, 31.29}";
type = Stem;
}
);
layerId = "0CF0EA28-C756-4A9E-9D7C-CFEF350B4CFE";
paths = (
{
closed = 1;
nodes = (
"638.509 700 LINE",
"164.509 700 LINE",
"25.27 0 LINE",
"499.27 0 LINE",
"518.167 95 LINE",
"158.167 95 LINE",
"200.336 307 LINE",
"470.336 307 LINE",
"489.233 402 LINE",
"219.233 402 LINE",
"259.612 605 LINE",
"619.612 605 LINE"
);
},
{
closed = 1;
nodes = (
"364.333 779.553 OFFCURVE",
"396.541 805.735 OFFCURVE",
"403.351 839.973 CURVE SMOOTH",
"409.961 873.204 OFFCURVE",
"388.37 900.393 OFFCURVE",
"355.37 900.393 CURVE SMOOTH",
"321.37 900.393 OFFCURVE",
"289.961 873.204 OFFCURVE",
"283.351 839.973 CURVE SMOOTH",
"276.541 805.735 OFFCURVE",
"297.333 779.553 OFFCURVE",
"331.333 779.553 CURVE SMOOTH"
);
},
{
closed = 1;
nodes = (
"536.333 779.553 OFFCURVE",
"568.541 805.735 OFFCURVE",
"575.351 839.973 CURVE SMOOTH",
"581.961 873.204 OFFCURVE",
"560.37 900.393 OFFCURVE",
"527.37 900.393 CURVE SMOOTH",
"493.37 900.393 OFFCURVE",
"461.961 873.204 OFFCURVE",
"455.351 839.973 CURVE SMOOTH",
"448.541 805.735 OFFCURVE",
"469.333 779.553 OFFCURVE",
"503.333 779.553 CURVE SMOOTH"
);
}
);
width = 604;
},
{
anchors = (
{
name = bottom;
position = "{233.268, 0}";
},
{
name = ogonek;
position = "{429.268, 0}";
},
{
name = top;
position = "{401.507, 700}";
}
);
hints = (
{
place = "{30.558, -63.442}";
type = Stem;
},
{
horizontal = 1;
place = "{599.558, -20}";
target = down;
type = TopGhost;
},
{
horizontal = 1;
place = "{-85.442, 21}";
target = up;
type = BottomGhost;
},
{
place = "{130.308, -24.789}";
type = Stem;
},
{
place = "{265.308, -25.784}";
type = Stem;
},
{
horizontal = 1;
place = "{711.005, -24.789}";
type = Stem;
}
);
layerId = "6E968933-CD79-43C6-9231-80D77C940F4D";
paths = (
{
closed = 1;
nodes = (
"618.507 700 LINE",
"184.507 700 LINE",
"45.268 0 LINE",
"479.268 0 LINE",
"483.247 20 LINE",
"71.247 20 LINE",
"136.888 350 LINE",
"445.888 350 LINE",
"449.866 370 LINE",
"140.866 370 LINE",
"202.529 680 LINE",
"614.529 680 LINE"
);
},
{
closed = 1;
nodes = (
"371.087 798.436 OFFCURVE",
"387.856 812.356 OFFCURVE",
"391.02 828.265 CURVE SMOOTH",
"394.383 845.168 OFFCURVE",
"383.152 859.088 OFFCURVE",
"366.152 859.088 CURVE SMOOTH",
"349.152 859.088 OFFCURVE",
"333.383 845.168 OFFCURVE",
"330.02 828.265 CURVE SMOOTH",
"326.856 812.356 OFFCURVE",
"337.087 798.436 OFFCURVE",
"354.087 798.436 CURVE SMOOTH"
);
},
{
closed = 1;
nodes = (
"505.087 798.436 OFFCURVE",
"521.856 812.356 OFFCURVE",
"525.02 828.265 CURVE SMOOTH",
"528.383 845.168 OFFCURVE",
"517.152 859.088 OFFCURVE",
"501.152 859.088 CURVE SMOOTH",
"484.152 859.088 OFFCURVE",
"467.383 845.168 OFFCURVE",
"464.02 828.265 CURVE SMOOTH",
"460.856 812.356 OFFCURVE",
"472.087 798.436 OFFCURVE",
"489.087 798.436 CURVE SMOOTH"
);
}
);
width = 604;
},
{
anchors = (
{
name = bottom;
position = "{258.467, 1}";
},
{
name = ogonek;
position = "{480.467, 1}";
},
{
name = top;
position = "{401.507, 700}";
}
);
hints = (
{
place = "{-39.562, 83.438}";
type = Stem;
},
{
horizontal = 1;
place = "{-92.562, 48.438}";
type = Stem;
},
{
horizontal = 1;
place = "{193.438, 48.438}";
type = Stem;
},
{
horizontal = 1;
place = "{466.438, 48.438}";
type = Stem;
},
{
place = "{41.188, 56.583}";
type = Stem;
},
{
place = "{244.188, 56.583}";
type = Stem;
},
{
horizontal = 1;
place = "{688.971, 56.583}";
type = Stem;
}
);
layerId = "BAF31694-0472-4296-B0EA-1654553C45D2";
paths = (
{
closed = 1;
nodes = (
"669.507 700 LINE",
"144.507 700 LINE",
"5.268 0 LINE",
"530.259 0 LINE",
"559.31 146 LINE",
"208.31 146 LINE",
"236.356 287 LINE",
"498.356 287 LINE",
"525.408 423 LINE",
"263.408 423 LINE",
"289.466 554 LINE",
"640.466 554 LINE"
);
},
{
closed = 1;
nodes = (
"357.725 781.533 OFFCURVE",
"397.054 813.351 OFFCURVE",
"405.361 855.111 CURVE SMOOTH",
"413.865 897.866 OFFCURVE",
"387.392 930.678 OFFCURVE",
"344.392 930.678 CURVE SMOOTH",
"302.392 930.678 OFFCURVE",
"263.865 897.866 OFFCURVE",
"255.361 855.111 CURVE SMOOTH",
"247.054 813.351 OFFCURVE",
"272.725 781.533 OFFCURVE",
"314.725 781.533 CURVE SMOOTH"
);
},
{
closed = 1;
nodes = (
"560.725 781.533 OFFCURVE",
"599.054 813.351 OFFCURVE",
"607.361 855.111 CURVE SMOOTH",
"615.865 897.866 OFFCURVE",
"590.392 930.678 OFFCURVE",
"547.392 930.678 CURVE SMOOTH",
"505.392 930.678 OFFCURVE",
"466.865 897.866 OFFCURVE",
"458.361 855.111 CURVE SMOOTH",
"450.054 813.351 OFFCURVE",
"475.725 781.533 OFFCURVE",
"517.725 781.533 CURVE SMOOTH"
);
}
);
width = 614.99434;
},
{
anchors = (
{
name = bottom;
position = "{247.27, 0}";
},
{
name = ogonek;
position = "{444.27, 0}";
},
{
name = top;
position = "{403.509, 700}";
}
);
hints = (
{
place = "{335.14, -21.86}";
type = Stem;
},
{
horizontal = 1;
place = "{169.14, -20}";
target = down;
type = TopGhost;
},
{
horizontal = 1;
place = "{-87.86, 21}";
target = up;
type = BottomGhost;
},
{
place = "{98.39, 10.356}";
type = Stem;
},
{
place = "{256.39, 10.356}";
type = Stem;
},
{
horizontal = 1;
place = "{698.33, 10.356}";
type = Stem;
}
);
layerId = "9F107B1E-3A61-4335-981B-27DD48125C7E";
paths = (
{
closed = 1;
nodes = (
"633.509 700 LINE",
"174.509 700 LINE",
"35.27 0 LINE",
"494.27 0 LINE",
"508.194 70 LINE",
"129.194 70 LINE",
"179.121 321 LINE",
"464.121 321 LINE",
"478.045 391 LINE",
"193.045 391 LINE",
"240.585 630 LINE",
"619.585 630 LINE"
);
},
{
closed = 1;
nodes = (
"368.454 785.187 OFFCURVE",
"394.64 806.234 OFFCURVE",
"400.022 833.293 CURVE SMOOTH",
"405.405 860.352 OFFCURVE",
"387.99 883.403 OFFCURVE",
"360.99 883.403 CURVE SMOOTH",
"332.99 883.403 OFFCURVE",
"307.405 860.352 OFFCURVE",
"302.022 833.293 CURVE SMOOTH",
"296.64 806.234 OFFCURVE",
"313.454 785.187 OFFCURVE",
"341.454 785.187 CURVE SMOOTH"
);
},
{
closed = 1;
nodes = (
"525.454 785.187 OFFCURVE",
"552.64 806.234 OFFCURVE",
"558.022 833.293 CURVE SMOOTH",
"563.405 860.352 OFFCURVE",
"544.99 883.403 OFFCURVE",
"518.99 883.403 CURVE SMOOTH",
"490.99 883.403 OFFCURVE",
"465.405 860.352 OFFCURVE",
"460.022 833.293 CURVE SMOOTH",
"454.64 806.234 OFFCURVE",
"471.454 785.187 OFFCURVE",
"499.454 785.187 CURVE SMOOTH"
);
}
);
width = 608.99375;
}
);
leftMetricsKey = H;
rightMetricsKey = E;
unicode = 00CB;
},
{
glyphname = Edotaccent;
lastChange = "2021-09-02 09:18:01 +0000";
layers = (
{
anchors = (
{
name = bottom;
position = "{252.27, 0}";
},
{
name = ogonek;
position = "{449.27, 0}";
},
{
name = top;
position = "{401.509, 700}";
}
);
hints = (
{
place = "{-4.55, 24.45}";
type = Stem;
},
{
horizontal = 1;
place = "{-89.55, 3.45}";
type = Stem;
},
{
horizontal = 1;
place = "{218.45, 3.45}";
type = Stem;
},
{
horizontal = 1;
place = "{517.45, 3.45}";
type = Stem;
},
{
place = "{163.2, 31.29}";
type = Stem;
},
{
horizontal = 1;
place = "{690.003, 31.29}";
type = Stem;
}
);
layerId = "0CF0EA28-C756-4A9E-9D7C-CFEF350B4CFE";
paths = (
{
closed = 1;
nodes = (
"638.509 700 LINE",
"164.509 700 LINE",
"25.27 0 LINE",
"499.27 0 LINE",
"518.167 95 LINE",
"158.167 95 LINE",
"200.336 307 LINE",
"470.336 307 LINE",
"489.233 402 LINE",
"219.233 402 LINE",
"259.612 605 LINE",
"619.612 605 LINE"
);
},
{
closed = 1;
nodes = (
"450.333 779.553 OFFCURVE",
"482.541 805.735 OFFCURVE",
"489.351 839.973 CURVE SMOOTH",
"495.961 873.204 OFFCURVE",
"474.37 900.393 OFFCURVE",
"441.37 900.393 CURVE SMOOTH",
"407.37 900.393 OFFCURVE",
"375.961 873.204 OFFCURVE",
"369.351 839.973 CURVE SMOOTH",
"362.541 805.735 OFFCURVE",
"383.333 779.553 OFFCURVE",
"417.333 779.553 CURVE SMOOTH"
);
}
);
width = 604;
},
{
anchors = (
{
name = bottom;
position = "{233.274, 0}";
},
{
name = ogonek;
position = "{429.274, 0}";
},
{
name = top;
position = "{401.513, 700}";
}
);
hints = (
{
place = "{32.734, -61.266}";
type = Stem;
},
{
horizontal = 1;
place = "{601.734, -20}";
target = down;
type = TopGhost;
},
{
horizontal = 1;
place = "{-83.266, 21}";
target = up;
type = BottomGhost;
},
{
place = "{199.484, -22.614}";
type = Stem;
},
{
horizontal = 1;
place = "{691.306, -22.614}";
type = Stem;
}
);
layerId = "6E968933-CD79-43C6-9231-80D77C940F4D";
paths = (
{
closed = 1;
nodes = (
"618.513 700 LINE",
"184.513 700 LINE",
"45.274 0 LINE",
"479.274 0 LINE",
"483.252 20 LINE",
"71.252 20 LINE",
"136.893 350 LINE",
"445.893 350 LINE",
"449.872 370 LINE",
"140.872 370 LINE",
"202.534 680 LINE",
"614.534 680 LINE"
);
},
{
closed = 1;
nodes = (
"433.742 776.561 OFFCURVE",
"450.51 790.481 OFFCURVE",
"453.675 806.39 CURVE SMOOTH",
"457.037 823.293 OFFCURVE",
"445.806 837.213 OFFCURVE",
"428.806 837.213 CURVE SMOOTH",
"412.806 837.213 OFFCURVE",
"396.037 823.293 OFFCURVE",
"392.675 806.39 CURVE SMOOTH",
"389.51 790.481 OFFCURVE",
"400.742 776.561 OFFCURVE",
"416.742 776.561 CURVE SMOOTH"
);
}
);
width = 604;
},
{
anchors = (
{
name = bottom;
position = "{258.467, 1}";
},
{
name = ogonek;
position = "{480.467, 1}";
},
{
name = top;
position = "{401.507, 700}";
}
);
hints = (
{
place = "{-39.562, 83.438}";
type = Stem;
},
{
horizontal = 1;
place = "{-92.562, 48.438}";
type = Stem;
},
{
horizontal = 1;
place = "{193.438, 48.438}";
type = Stem;
},
{
horizontal = 1;
place = "{466.438, 48.438}";
type = Stem;
},
{
place = "{142.188, 56.583}";
type = Stem;
},
{
horizontal = 1;
place = "{688.971, 56.583}";
type = Stem;
}
);
layerId = "BAF31694-0472-4296-B0EA-1654553C45D2";
paths = (
{
closed = 1;
nodes = (
"669.507 700 LINE",
"144.507 700 LINE",
"5.268 0 LINE",
"530.259 0 LINE",
"559.31 146 LINE",
"208.31 146 LINE",
"236.356 287 LINE",
"498.356 287 LINE",
"525.408 423 LINE",
"263.408 423 LINE",
"289.466 554 LINE",
"640.466 554 LINE"
);
},
{
closed = 1;
nodes = (
"458.725 781.533 OFFCURVE",
"498.054 813.351 OFFCURVE",
"506.361 855.111 CURVE SMOOTH",
"514.865 897.866 OFFCURVE",
"488.392 930.678 OFFCURVE",
"445.392 930.678 CURVE SMOOTH",
"403.392 930.678 OFFCURVE",
"364.865 897.866 OFFCURVE",
"356.361 855.111 CURVE SMOOTH",
"348.054 813.351 OFFCURVE",
"373.725 781.533 OFFCURVE",
"415.725 781.533 CURVE SMOOTH"
);
}
);
width = 614.99434;
},
{
anchors = (
{
name = bottom;
position = "{247.268, 0}";
},
{
name = ogonek;
position = "{444.268, 0}";
},
{
name = top;
position = "{403.506, 700}";
}
);
hints = (
{
place = "{335.938, -21.062}";
type = Stem;
},
{
horizontal = 1;
place = "{169.938, -20}";
target = down;
type = TopGhost;
},
{
horizontal = 1;
place = "{-87.062, 21}";
target = up;
type = BottomGhost;
},
{
place = "{178.188, 11.153}";
type = Stem;
},
{
horizontal = 1;
place = "{691.109, 11.153}";
type = Stem;
}
);
layerId = "9F107B1E-3A61-4335-981B-27DD48125C7E";
paths = (
{
closed = 1;
nodes = (
"633.506 700 LINE",
"174.506 700 LINE",
"35.268 0 LINE",
"494.268 0 LINE",
"508.191 70 LINE",
"129.191 70 LINE",
"179.118 321 LINE",
"464.118 321 LINE",
"478.042 391 LINE",
"193.042 391 LINE",
"240.582 630 LINE",
"619.582 630 LINE"
);
},
{
closed = 1;
nodes = (
"445.856 777.169 OFFCURVE",
"472.043 798.216 OFFCURVE",
"477.425 825.275 CURVE SMOOTH",
"482.807 852.334 OFFCURVE",
"465.392 875.385 OFFCURVE",
"438.392 875.385 CURVE SMOOTH",
"410.392 875.385 OFFCURVE",
"384.807 852.334 OFFCURVE",
"379.425 825.275 CURVE SMOOTH",
"374.043 798.216 OFFCURVE",
"390.856 777.169 OFFCURVE",
"418.856 777.169 CURVE SMOOTH"
);
}
);
width = 608.99375;
}
);
leftMetricsKey = H;
rightMetricsKey = E;
unicode = 0116;
},
{
glyphname = Egrave;
lastChange = "2021-09-02 15:54:38 +0000";
layers = (
{
anchors = (
{
name = bottom;
position = "{252.272, 0}";
},
{
name = ogonek;
position = "{449.272, 0}";
},
{
name = top;
position = "{401.511, 700}";
}
);
hints = (
{
place = "{-10.058, 18.942}";
type = Stem;
},
{
horizontal = 1;
place = "{-95.058, -2.058}";
type = Stem;
},
{
horizontal = 1;
place = "{212.942, -2.058}";
type = Stem;
},
{
horizontal = 1;
place = "{511.942, -2.058}";
type = Stem;
}
);
layerId = "0CF0EA28-C756-4A9E-9D7C-CFEF350B4CFE";
paths = (
{
closed = 1;
nodes = (
"638.511 700 LINE",
"164.511 700 LINE",
"25.272 0 LINE",
"499.272 0 LINE",
"518.169 95 LINE",
"158.169 95 LINE",
"200.338 307 LINE",
"470.338 307 LINE",
"489.235 402 LINE",
"219.235 402 LINE",
"259.614 605 LINE",
"619.614 605 LINE"
);
},
{
closed = 1;
nodes = (
"315.359 860.113 LINE",
"514.326 749.343 LINE",
"531.151 833.931 LINE",
"334.388 955.778 LINE"
);
}
);
width = 604;
},
{
anchors = (
{
name = bottom;
position = "{233.274, 0}";
},
{
name = ogonek;
position = "{429.274, 0}";
},
{
name = top;
position = "{401.513, 700}";
}
);
hints = (
{
place = "{25.614, -68.386}";
type = Stem;
},
{
horizontal = 1;
place = "{594.614, -20}";
target = down;
type = TopGhost;
},
{
horizontal = 1;
place = "{-90.386, 21}";
target = up;
type = BottomGhost;
}
);
layerId = "6E968933-CD79-43C6-9231-80D77C940F4D";
paths = (
{
closed = 1;
nodes = (
"618.513 700 LINE",
"184.513 700 LINE",
"45.274 0 LINE",
"479.274 0 LINE",
"483.252 20 LINE",
"71.252 20 LINE",
"136.893 350 LINE",
"445.893 350 LINE",
"449.871 370 LINE",
"140.871 370 LINE",
"202.534 680 LINE",
"614.534 680 LINE"
);
},
{
closed = 1;
nodes = (
"331.102 883.945 LINE",
"492.39 754.686 LINE",
"496.544 775.567 LINE",
"336.046 908.803 LINE"
);
}
);
width = 604;
},
{
anchors = (
{
name = bottom;
position = "{258.474, 1}";
},
{
name = ogonek;
position = "{480.474, 1}";
},
{
name = top;
position = "{401.514, 700}";
}
);
hints = (
{
place = "{-45.495, 77.505}";
type = Stem;
},
{
horizontal = 1;
place = "{-98.495, 42.505}";
type = Stem;
},
{
horizontal = 1;
place = "{187.505, 42.505}";
type = Stem;
},
{
horizontal = 1;
place = "{460.505, 42.505}";
type = Stem;
}
);
layerId = "BAF31694-0472-4296-B0EA-1654553C45D2";
paths = (
{
closed = 1;
nodes = (
"669.514 700 LINE",
"144.514 700 LINE",
"5.275 0 LINE",
"530.266 0 LINE",
"559.316 146 LINE",
"208.316 146 LINE",
"236.363 287 LINE",
"498.363 287 LINE",
"525.415 423 LINE",
"263.415 423 LINE",
"289.472 554 LINE",
"640.472 554 LINE"
);
},
{
closed = 1;
nodes = (
"307.367 855.111 LINE",
"530.787 756.675 LINE",
"554.718 876.986 LINE",
"334.265 990.336 LINE"
);
}
);
width = 615.00434;
},
{
anchors = (
{
name = bottom;
position = "{247.268, 0}";
},
{
name = ogonek;
position = "{444.268, 0}";
},
{
name = top;
position = "{403.507, 700}";
}
);
hints = (
{
place = "{329.658, -27.342}";
type = Stem;
},
{
horizontal = 1;
place = "{163.658, -20}";
target = down;
type = TopGhost;
},
{
horizontal = 1;
place = "{-93.342, 21}";
target = up;
type = BottomGhost;
}
);
layerId = "9F107B1E-3A61-4335-981B-27DD48125C7E";
paths = (
{
closed = 1;
nodes = (
"633.507 700 LINE",
"174.507 700 LINE",
"35.268 0 LINE",
"494.268 0 LINE",
"508.192 70 LINE",
"129.192 70 LINE",
"179.119 321 LINE",
"464.119 321 LINE",
"478.043 391 LINE",
"193.043 391 LINE",
"240.583 630 LINE",
"619.583 630 LINE"
);
},
{
closed = 1;
nodes = (
"323.197 869.372 LINE",
"508.072 753.117 LINE",
"520.033 813.249 LINE",
"336.952 938.524 LINE"
);
}
);
width = 608.99375;
}
);
leftMetricsKey = H;
rightMetricsKey = E;
unicode = 00C8;
},
{
glyphname = Emacron;
lastChange = "2021-09-02 09:18:01 +0000";
layers = (
{
anchors = (
{
name = bottom;
position = "{252.275, 0}";
},
{
name = ogonek;
position = "{449.275, 0}";
},
{
name = top;
position = "{401.514, 700}";
}
);
hints = (
{
place = "{-1.545, 27.455}";
type = Stem;
},
{
horizontal = 1;
place = "{-86.545, 6.455}";
type = Stem;
},
{
horizontal = 1;
place = "{221.455, 6.455}";
type = Stem;
},
{
horizontal = 1;
place = "{520.455, 6.455}";
type = Stem;
},
{
horizontal = 1;
place = "{698.043, -0.95}";
type = Stem;
}
);
layerId = "0CF0EA28-C756-4A9E-9D7C-CFEF350B4CFE";
paths = (
{
closed = 1;
nodes = (
"638.514 700 LINE",
"164.514 700 LINE",
"25.275 0 LINE",
"499.275 0 LINE",
"518.172 95 LINE",
"158.172 95 LINE",
"200.341 307 LINE",
"470.341 307 LINE",
"489.238 402 LINE",
"219.238 402 LINE",
"259.617 605 LINE",
"619.617 605 LINE"
);
},
{
closed = 1;
nodes = (
"235.339 784.588 LINE",
"601.339 784.588 LINE",
"618.365 870.183 LINE",
"252.365 870.183 LINE"
);
}
);
width = 604;
},
{
anchors = (
{
name = bottom;
position = "{233.274, 0}";
},
{
name = ogonek;
position = "{429.274, 0}";
},
{
name = top;
position = "{401.513, 700}";
}
);
hints = (
{
place = "{32.734, -61.266}";
type = Stem;
},
{
horizontal = 1;
place = "{601.734, -20}";
target = down;
type = TopGhost;
},
{
horizontal = 1;
place = "{-83.266, 21}";
target = up;
type = BottomGhost;
},
{
horizontal = 1;
place = "{721.135, 21}";
target = up;
type = BottomGhost;
},
{
horizontal = 1;
place = "{739.033, -20}";
target = down;
type = TopGhost;
}
);
layerId = "6E968933-CD79-43C6-9231-80D77C940F4D";
paths = (
{
closed = 1;
nodes = (
"618.513 700 LINE",
"184.513 700 LINE",
"45.274 0 LINE",
"479.274 0 LINE",
"483.252 20 LINE",
"71.252 20 LINE",
"136.893 350 LINE",
"445.893 350 LINE",
"449.872 370 LINE",
"140.872 370 LINE",
"202.534 680 LINE",
"614.534 680 LINE"
);
},
{
closed = 1;
nodes = (
"269.85 817.327 LINE",
"579.85 817.327 LINE",
"583.806 837.213 LINE",
"273.806 837.213 LINE"
);
}
);
width = 604;
},
{
anchors = (
{
name = bottom;
position = "{258.472, 1}";
},
{
name = ogonek;
position = "{480.472, 1}";
},
{
name = top;
position = "{401.511, 700}";
}
);
hints = (
{
place = "{-36.397, 86.603}";
type = Stem;
},
{
horizontal = 1;
place = "{-89.397, 51.603}";
type = Stem;
},
{
horizontal = 1;
place = "{196.603, 51.603}";
type = Stem;
},
{
horizontal = 1;
place = "{469.603, 51.603}";
type = Stem;
},
{
horizontal = 1;
place = "{690.147, 30.913}";
type = Stem;
}
);
layerId = "BAF31694-0472-4296-B0EA-1654553C45D2";
paths = (
{
closed = 1;
nodes = (
"669.511 700 LINE",
"144.511 700 LINE",
"5.273 0 LINE",
"530.264 0 LINE",
"559.314 146 LINE",
"208.314 146 LINE",
"236.361 287 LINE",
"498.361 287 LINE",
"525.413 423 LINE",
"263.413 423 LINE",
"289.47 554 LINE",
"640.47 554 LINE"
);
},
{
closed = 1;
nodes = (
"216.334 779.544 LINE",
"619.334 779.544 LINE",
"643.067 898.86 LINE",
"240.067 898.86 LINE"
);
}
);
width = 615.00434;
},
{
anchors = (
{
name = bottom;
position = "{247.272, 0}";
},
{
name = ogonek;
position = "{444.272, 0}";
},
{
name = top;
position = "{403.51, 700}";
}
);
hints = (
{
place = "{337.732, -19.268}";
type = Stem;
},
{
horizontal = 1;
place = "{171.732, -20}";
target = down;
type = TopGhost;
},
{
horizontal = 1;
place = "{-85.268, 21}";
target = up;
type = BottomGhost;
},
{
horizontal = 1;
place = "{309.061, 21}";
target = up;
type = BottomGhost;
},
{
horizontal = 1;
place = "{316.076, -20}";
target = down;
type = TopGhost;
}
);
layerId = "9F107B1E-3A61-4335-981B-27DD48125C7E";
paths = (
{
closed = 1;
nodes = (
"633.51 700 LINE",
"174.51 700 LINE",
"35.272 0 LINE",
"494.272 0 LINE",
"508.196 70 LINE",
"129.196 70 LINE",
"179.123 321 LINE",
"464.123 321 LINE",
"478.046 391 LINE",
"193.046 391 LINE",
"240.586 630 LINE",
"619.586 630 LINE"
);
},
{
closed = 1;
nodes = (
"250.847 797.214 LINE",
"595.847 797.214 LINE",
"607.808 857.346 LINE",
"262.808 857.346 LINE"
);
}
);
width = 609.00375;
}
);
leftMetricsKey = H;
rightMetricsKey = E;
unicode = 0112;
},
{
glyphname = Eogonek;
lastChange = "2021-09-02 09:18:01 +0000";
layers = (
{
anchors = (
{
name = bottom;
position = "{252.273, 0}";
},
{
name = ogonek;
position = "{449.273, 0}";
},
{
name = top;
position = "{401.511, 700}";
}
);
hints = (
{
place = "{36.513, 65.513}";
type = Stem;
},
{
horizontal = 1;
place = "{-48.487, 44.513}";
type = Stem;
},
{
horizontal = 1;
place = "{259.513, 44.513}";
type = Stem;
},
{
horizontal = 1;
place = "{558.513, 44.513}";
type = Stem;
},
{
place = "{252.263, 45.164}";
type = Stem;
},
{
place = "{252.263, 167.011}";
type = Stem;
},
{
horizontal = 1;
place = "{-260.964, 26.031}";
type = Stem;
}
);
layerId = "0CF0EA28-C756-4A9E-9D7C-CFEF350B4CFE";
paths = (
{
closed = 1;
nodes = (
"638.511 700 LINE",
"164.511 700 LINE",
"25.273 0 LINE",
"499.273 0 LINE",
"518.169 95 LINE",
"158.169 95 LINE",
"200.339 307 LINE",
"470.339 307 LINE",
"489.236 402 LINE",
"219.236 402 LINE",
"259.615 605 LINE",
"619.615 605 LINE"
);
},
{
closed = 1;
nodes = (
"385.085 39.273 LINE SMOOTH",
"282.472 -4.028 OFFCURVE",
"239.857 -52.364 OFFCURVE",
"229.641 -103.721 CURVE SMOOTH",
"213.617 -184.281 OFFCURVE",
"278.009 -212.477 OFFCURVE",
"341.009 -212.477 CURVE SMOOTH",
"370.009 -212.477 OFFCURVE",
"400.21 -206.435 OFFCURVE",
"425.013 -197.372 CURVE",
"439.635 -123.861 LINE",
"414.833 -132.924 OFFCURVE",
"389.831 -137.959 OFFCURVE",
"370.831 -137.959 CURVE SMOOTH",
"336.831 -137.959 OFFCURVE",
"319.437 -119.833 OFFCURVE",
"325.045 -91.637 CURVE SMOOTH",
"329.852 -67.469 OFFCURVE",
"347.858 -47.329 OFFCURVE",
"395.265 -25.175 CURVE SMOOTH",
"449.273 0 LINE",
"430.89 58.406 LINE"
);
}
);
width = 604;
},
{
anchors = (
{
name = bottom;
position = "{233.27, 0}";
},
{
name = ogonek;
position = "{429.27, 0}";
},
{
name = top;
position = "{401.508, 700}";
}
);
hints = (
{
place = "{65.17, -28.83}";
type = Stem;
},
{
horizontal = 1;
place = "{634.17, -20}";
target = down;
type = TopGhost;
},
{
horizontal = 1;
place = "{-50.83, 21}";
target = up;
type = BottomGhost;
},
{
place = "{261.92, -29.95}";
type = Stem;
},
{
horizontal = 1;
place = "{-235.77, 21}";
target = up;
type = BottomGhost;
}
);
layerId = "6E968933-CD79-43C6-9231-80D77C940F4D";
paths = (
{
closed = 1;
nodes = (
"618.508 700 LINE",
"184.508 700 LINE",
"45.27 0 LINE",
"479.27 0 LINE",
"483.248 20 LINE",
"71.248 20 LINE",
"136.889 350 LINE",
"445.889 350 LINE",
"449.867 370 LINE",
"140.867 370 LINE",
"202.53 680 LINE",
"614.53 680 LINE"
);
},
{
closed = 1;
nodes = (
"351.303 -14.915 LINE SMOOTH",
"282.765 -42.755 OFFCURVE",
"252.041 -76.561 OFFCURVE",
"244.327 -115.339 CURVE SMOOTH",
"234.241 -166.048 OFFCURVE",
"268.692 -188.917 OFFCURVE",
"319.692 -188.917 CURVE SMOOTH",
"339.692 -188.917 OFFCURVE",
"362.483 -184.94 OFFCURVE",
"385.065 -176.985 CURVE",
"389.218 -156.105 LINE",
"366.636 -164.059 OFFCURVE",
"343.647 -169.031 OFFCURVE",
"323.647 -169.031 CURVE SMOOTH",
"284.647 -169.031 OFFCURVE",
"258.01 -152.128 OFFCURVE",
"265.723 -113.35 CURVE SMOOTH",
"271.261 -85.51 OFFCURVE",
"294.996 -56.675 OFFCURVE",
"351.743 -32.812 CURVE SMOOTH",
"429.27 0 LINE",
"425.434 15.909 LINE"
);
}
);
width = 604;
},
{
anchors = (
{
name = bottom;
position = "{258.468, 1}";
},
{
name = ogonek;
position = "{480.468, 1}";
},
{
name = top;
position = "{401.508, 700}";
}
);
hints = (
{
place = "{4.839, 127.839}";
type = Stem;
},
{
horizontal = 1;
place = "{-48.161, 92.839}";
type = Stem;
},
{
horizontal = 1;
place = "{237.839, 92.839}";
type = Stem;
},
{
horizontal = 1;
place = "{510.839, 92.839}";
type = Stem;
},
{
place = "{236.589, -9.383}";
type = Stem;
},
{
place = "{238.589, 130.813}";
type = Stem;
},
{
horizontal = 1;
place = "{-263.918, 49.28}";
type = Stem;
}
);
layerId = "BAF31694-0472-4296-B0EA-1654553C45D2";
paths = (
{
closed = 1;
nodes = (
"669.508 700 LINE",
"144.508 700 LINE",
"5.269 0 LINE",
"530.26 0 LINE",
"559.31 146 LINE",
"208.31 146 LINE",
"236.357 287 LINE",
"498.357 287 LINE",
"525.409 423 LINE",
"263.409 423 LINE",
"289.467 554 LINE",
"640.467 554 LINE"
);
},
{
closed = 1;
nodes = (
"416.73 62.647 LINE SMOOTH",
"276.05 8.954 OFFCURVE",
"229.964 -41.755 OFFCURVE",
"218.097 -101.413 CURVE SMOOTH",
"202.868 -177.974 OFFCURVE",
"259.352 -215.757 OFFCURVE",
"344.352 -215.757 CURVE SMOOTH",
"381.352 -215.757 OFFCURVE",
"416.539 -209.792 OFFCURVE",
"447.517 -199.849 CURVE",
"466.701 -103.401 LINE",
"435.723 -113.344 OFFCURVE",
"407.735 -118.316 OFFCURVE",
"386.735 -118.316 CURVE SMOOTH",
"359.735 -118.316 OFFCURVE",
"346.306 -105.39 OFFCURVE",
"350.063 -86.498 CURVE SMOOTH",
"354.415 -64.624 OFFCURVE",
"375.975 -46.726 OFFCURVE",
"430.919 -21.869 CURVE SMOOTH",
"480.468 1 LINE",
"459.092 79.55 LINE"
);
}
);
width = 614.99434;
},
{
anchors = (
{
name = bottom;
position = "{247.275, 0}";
},
{
name = ogonek;
position = "{444.275, 0}";
},
{
name = top;
position = "{403.513, 700}";
}
);
hints = (
{
place = "{373.615, 16.615}";
type = Stem;
},
{
horizontal = 1;
place = "{207.615, -20}";
target = down;
type = TopGhost;
},
{
horizontal = 1;
place = "{-49.385, 21}";
target = up;
type = BottomGhost;
},
{
place = "{118.865, 4.733}";
type = Stem;
},
{
horizontal = 1;
place = "{-119.539, 21}";
target = up;
type = BottomGhost;
}
);
layerId = "9F107B1E-3A61-4335-981B-27DD48125C7E";
paths = (
{
closed = 1;
nodes = (
"633.513 700 LINE",
"174.513 700 LINE",
"35.275 0 LINE",
"494.275 0 LINE",
"508.199 70 LINE",
"129.199 70 LINE",
"179.126 321 LINE",
"464.126 321 LINE",
"478.049 391 LINE",
"193.049 391 LINE",
"240.589 630 LINE",
"619.589 630 LINE"
);
},
{
closed = 1;
nodes = (
"375.062 19.042 LINE SMOOTH",
"285.487 -19.042 OFFCURVE",
"247.114 -61.134 OFFCURVE",
"237.745 -108.238 CURVE SMOOTH",
"223.99 -177.389 OFFCURVE",
"276.807 -203.447 OFFCURVE",
"335.807 -203.447 CURVE SMOOTH",
"360.807 -203.447 OFFCURVE",
"388.803 -198.436 OFFCURVE",
"412.598 -189.416 CURVE",
"423.163 -136.299 LINE",
"399.568 -144.317 OFFCURVE",
"375.572 -149.328 OFFCURVE",
"355.572 -149.328 CURVE SMOOTH",
"319.572 -149.328 OFFCURVE",
"298.96 -132.29 OFFCURVE",
"305.34 -100.22 CURVE SMOOTH",
"310.523 -74.163 OFFCURVE",
"330.108 -51.112 OFFCURVE",
"381.693 -28.062 CURVE SMOOTH",
"444.275 0 LINE",
"431.647 42.092 LINE"
);
}
);
width = 609.00375;
}
);
leftMetricsKey = H;
rightMetricsKey = E;
unicode = 0118;
},
{
glyphname = Etilde;
lastChange = "2021-09-02 09:18:01 +0000";
layers = (
{
anchors = (
{
name = bottom;
position = "{252.274, 0}";
},
{
name = ogonek;
position = "{449.274, 0}";
},
{
name = top;
position = "{401.513, 700}";
}
);
hints = (
{
place = "{-2.046, 26.954}";
type = Stem;
},
{
horizontal = 1;
place = "{-87.046, 5.954}";
type = Stem;
},
{
horizontal = 1;
place = "{220.954, 5.954}";
type = Stem;
},
{
horizontal = 1;
place = "{519.954, 5.954}";
type = Stem;
},
{
horizontal = 1;
place = "{668.339, -11.521}";
type = Stem;
},
{
horizontal = 1;
place = "{670.353, 30.773}";
type = Stem;
},
{
horizontal = 1;
place = "{713.654, -12.528}";
type = Stem;
},
{
horizontal = 1;
place = "{668.339, 30.773}";
type = Stem;
}
);
layerId = "0CF0EA28-C756-4A9E-9D7C-CFEF350B4CFE";
paths = (
{
closed = 1;
nodes = (
"638.513 700 LINE",
"164.513 700 LINE",
"25.274 0 LINE",
"499.274 0 LINE",
"518.171 95 LINE",
"158.171 95 LINE",
"200.34 307 LINE",
"470.34 307 LINE",
"489.237 402 LINE",
"219.237 402 LINE",
"259.616 605 LINE",
"619.616 605 LINE"
);
},
{
closed = 1;
nodes = (
"313.93 757.399 LINE",
"323.739 786.602 OFFCURVE",
"343.543 800.7 OFFCURVE",
"365.543 800.7 CURVE SMOOTH",
"405.543 800.7 OFFCURVE",
"418.53 755.385 OFFCURVE",
"472.53 755.385 CURVE SMOOTH",
"530.53 755.385 OFFCURVE",
"582.141 793.651 OFFCURVE",
"608.965 873.204 CURVE",
"544.965 873.204 LINE",
"535.156 844.001 OFFCURVE",
"515.552 830.91 OFFCURVE",
"493.552 830.91 CURVE SMOOTH",
"453.552 830.91 OFFCURVE",
"440.366 875.218 OFFCURVE",
"386.366 875.218 CURVE SMOOTH",
"328.366 875.218 OFFCURVE",
"276.754 836.952 OFFCURVE",
"249.93 757.399 CURVE"
);
}
);
width = 604;
},
{
anchors = (
{
name = bottom;
position = "{233.276, 0}";
},
{
name = ogonek;
position = "{429.276, 0}";
},
{
name = top;
position = "{401.515, 700}";
}
);
hints = (
{
place = "{33.426, -60.574}";
type = Stem;
},
{
horizontal = 1;
place = "{602.426, -20}";
target = down;
type = TopGhost;
},
{
horizontal = 1;
place = "{-82.574, 21}";
target = up;
type = BottomGhost;
},
{
horizontal = 1;
place = "{666.147, 21}";
target = up;
type = BottomGhost;
},
{
horizontal = 1;
place = "{732.765, -20}";
target = down;
type = TopGhost;
}
);
layerId = "6E968933-CD79-43C6-9231-80D77C940F4D";
paths = (
{
closed = 1;
nodes = (
"618.515 700 LINE",
"184.515 700 LINE",
"45.276 0 LINE",
"479.276 0 LINE",
"483.254 20 LINE",
"71.254 20 LINE",
"136.896 350 LINE",
"445.896 350 LINE",
"449.874 370 LINE",
"140.874 370 LINE",
"202.537 680 LINE",
"614.537 680 LINE"
);
},
{
closed = 1;
nodes = (
"316.173 763.635 LINE",
"326.699 796.447 OFFCURVE",
"344.666 811.362 OFFCURVE",
"367.666 811.362 CURVE SMOOTH",
"409.666 811.362 OFFCURVE",
"413.777 761.647 OFFCURVE",
"465.777 761.647 CURVE SMOOTH",
"499.777 761.647 OFFCURVE",
"532.513 790.481 OFFCURVE",
"541.83 827.27 CURVE",
"522.83 827.27 LINE",
"512.699 796.447 OFFCURVE",
"490.535 780.538 OFFCURVE",
"469.535 780.538 CURVE SMOOTH",
"422.535 780.538 OFFCURVE",
"421.424 830.253 OFFCURVE",
"371.424 830.253 CURVE SMOOTH",
"336.424 830.253 OFFCURVE",
"310.282 804.401 OFFCURVE",
"297.173 763.635 CURVE"
);
}
);
width = 604;
},
{
anchors = (
{
name = bottom;
position = "{258.471, 1}";
},
{
name = ogonek;
position = "{480.471, 1}";
},
{
name = top;
position = "{401.51, 700}";
}
);
hints = (
{
place = "{-37.188, 85.812}";
type = Stem;
},
{
horizontal = 1;
place = "{-90.188, 50.812}";
type = Stem;
},
{
horizontal = 1;
place = "{195.812, 50.812}";
type = Stem;
},
{
horizontal = 1;
place = "{468.812, 50.812}";
type = Stem;
},
{
horizontal = 1;
place = "{320.471, -58.371}";
type = Stem;
},
{
horizontal = 1;
place = "{667.481, 32.111}";
type = Stem;
},
{
horizontal = 1;
place = "{711.231, 15.207}";
type = Stem;
},
{
horizontal = 1;
place = "{665.493, 59.951}";
type = Stem;
}
);
layerId = "BAF31694-0472-4296-B0EA-1654553C45D2";
paths = (
{
closed = 1;
nodes = (
"669.51 700 LINE",
"144.51 700 LINE",
"5.272 0 LINE",
"530.263 0 LINE",
"559.313 146 LINE",
"208.313 146 LINE",
"236.36 287 LINE",
"498.36 287 LINE",
"525.412 423 LINE",
"263.412 423 LINE",
"289.469 554 LINE",
"640.469 554 LINE"
);
},
{
closed = 1;
nodes = (
"297.784 756.676 LINE",
"308.915 787.499 OFFCURVE",
"327.684 801.419 OFFCURVE",
"350.684 801.419 CURVE SMOOTH",
"390.684 801.419 OFFCURVE",
"413.784 756.676 OFFCURVE",
"474.784 756.676 CURVE SMOOTH",
"545.784 756.676 OFFCURVE",
"606.288 799.43 OFFCURVE",
"644.451 905.821 CURVE",
"554.451 905.821 LINE",
"544.517 875.991 OFFCURVE",
"525.551 861.077 OFFCURVE",
"502.551 861.077 CURVE SMOOTH",
"462.551 861.077 OFFCURVE",
"439.648 906.815 OFFCURVE",
"379.648 906.815 CURVE SMOOTH",
"307.648 906.815 OFFCURVE",
"246.946 863.066 OFFCURVE",
"208.784 756.676 CURVE"
);
}
);
width = 615.00434;
},
{
anchors = (
{
name = bottom;
position = "{247.272, 0}";
},
{
name = ogonek;
position = "{444.272, 0}";
},
{
name = top;
position = "{403.511, 700}";
}
);
hints = (
{
place = "{337.532, -19.468}";
type = Stem;
},
{
horizontal = 1;
place = "{171.532, -20}";
target = down;
type = TopGhost;
},
{
horizontal = 1;
place = "{-85.468, 21}";
target = up;
type = BottomGhost;
},
{
horizontal = 1;
place = "{288.818, 21}";
target = up;
type = BottomGhost;
},
{
horizontal = 1;
place = "{313.873, -20}";
target = down;
type = TopGhost;
}
);
layerId = "9F107B1E-3A61-4335-981B-27DD48125C7E";
paths = (
{
closed = 1;
nodes = (
"633.511 700 LINE",
"174.511 700 LINE",
"35.272 0 LINE",
"494.272 0 LINE",
"508.196 70 LINE",
"129.196 70 LINE",
"179.123 321 LINE",
"464.123 321 LINE",
"478.047 391 LINE",
"193.047 391 LINE",
"240.587 630 LINE",
"619.587 630 LINE"
);
},
{
closed = 1;
nodes = (
"317.07 763.139 LINE",
"327.051 793.205 OFFCURVE",
"345.443 805.231 OFFCURVE",
"368.443 805.231 CURVE SMOOTH",
"408.443 805.231 OFFCURVE",
"418.273 759.13 OFFCURVE",
"472.273 759.13 CURVE SMOOTH",
"521.273 759.13 OFFCURVE",
"564.652 791.2 OFFCURVE",
"585.211 854.339 CURVE",
"538.211 854.339 LINE",
"528.43 825.275 OFFCURVE",
"508.038 813.249 OFFCURVE",
"486.038 813.249 CURVE SMOOTH",
"444.038 813.249 OFFCURVE",
"435.208 859.35 OFFCURVE",
"382.208 859.35 CURVE SMOOTH",
"333.208 859.35 OFFCURVE",
"291.828 827.28 OFFCURVE",
"270.07 763.139 CURVE"
);
}
);
width = 609.00375;
}
);
leftMetricsKey = E;
rightMetricsKey = E;
unicode = 1EBC;
},
{
glyphname = F;
lastChange = "2021-09-02 15:54:38 +0000";
layers = (
{
hints = (
{
place = "{15.381, 44.381}";
type = Stem;
},
{
horizontal = 1;
place = "{236.381, 23.381}";
type = Stem;
},
{
horizontal = 1;
place = "{537.381, 23.381}";
type = Stem;
},
{
horizontal = 1;
place = "{-69.619, 21}";
target = up;
type = BottomGhost;
}
);
layerId = "0CF0EA28-C756-4A9E-9D7C-CFEF350B4CFE";
paths = (
{
closed = 1;
nodes = (
"25.27 0 LINE",
"139.27 0 LINE",
"200.337 307 LINE",
"470.337 307 LINE",
"489.233 402 LINE",
"219.233 402 LINE",
"259.613 605 LINE",
"619.613 605 LINE",
"638.509 700 LINE",
"164.509 700 LINE"
);
}
);
width = 585.63274;
},
{
hints = (
{
place = "{46.381, -47.619}";
type = Stem;
},
{
horizontal = 1;
place = "{615.381, -20}";
target = down;
type = TopGhost;
},
{
horizontal = 1;
place = "{-69.619, 21}";
target = up;
type = BottomGhost;
}
);
layerId = "6E968933-CD79-43C6-9231-80D77C940F4D";
paths = (
{
closed = 1;
nodes = (
"45.27 0 LINE",
"67.27 0 LINE",
"136.89 350 LINE",
"445.89 350 LINE",
"449.868 370 LINE",
"140.868 370 LINE",
"202.531 680 LINE",
"614.531 680 LINE",
"618.509 700 LINE",
"184.509 700 LINE"
);
}
);
width = 578.94924;
},
{
hints = (
{
place = "{-16.619, 106.381}";
type = Stem;
},
{
horizontal = 1;
place = "{211.381, 66.381}";
type = Stem;
},
{
horizontal = 1;
place = "{489.381, 71.381}";
type = Stem;
},
{
horizontal = 1;
place = "{-69.619, 21}";
target = up;
type = BottomGhost;
}
);
layerId = "BAF31694-0472-4296-B0EA-1654553C45D2";
paths = (
{
closed = 1;
nodes = (
"5.271 0 LINE",
"179.271 0 LINE",
"236.359 287 LINE",
"498.359 287 LINE",
"525.411 423 LINE",
"263.411 423 LINE",
"289.468 554 LINE",
"640.468 554 LINE",
"669.509 700 LINE",
"144.509 700 LINE"
);
}
);
width = 603.31027;
},
{
hints = (
{
place = "{353.381, -3.619}";
type = Stem;
},
{
horizontal = 1;
place = "{187.381, -20}";
target = down;
type = TopGhost;
},
{
horizontal = 1;
place = "{-69.619, 21}";
target = up;
type = BottomGhost;
}
);
layerId = "9F107B1E-3A61-4335-981B-27DD48125C7E";
paths = (
{
closed = 1;
nodes = (
"35.27 0 LINE",
"115.27 0 LINE",
"179.122 321 LINE",
"464.122 321 LINE",
"478.045 391 LINE",
"193.045 391 LINE",
"240.585 630 LINE",
"619.585 630 LINE",
"633.509 700 LINE",
"174.509 700 LINE"
);
}
);
width = 587.28609;
}
);
leftMetricsKey = H;
rightMetricsKey = "=E*0.666";
unicode = 0046;
},
{
glyphname = G;
lastChange = "2021-09-02 15:54:38 +0000";
layers = (
{
anchors = (
{
name = bottom;
position = "{336.771, 0}";
},
{
name = top;
position = "{476.009, 700}";
}
);
hints = (
{
place = "{-27.619, 47.381}";
type = Stem;
},
{
place = "{529.381, 52.381}";
type = Stem;
},
{
horizontal = 1;
place = "{-75.619, 33.381}";
type = Stem;
},
{
horizontal = 1;
place = "{222.381, 21.381}";
type = Stem;
},
{
horizontal = 1;
place = "{534.381, 34.381}";
type = Stem;
}
);
layerId = "0CF0EA28-C756-4A9E-9D7C-CFEF350B4CFE";
paths = (
{
closed = 1;
nodes = (
"760.205 520 LINE",
"730.273 641 OFFCURVE",
"616.402 707 OFFCURVE",
"483.402 707 CURVE SMOOTH",
"287.402 707 OFFCURVE",
"98.963 559 OFFCURVE",
"57.39 350 CURVE SMOOTH",
"15.618 140 OFFCURVE",
"145.378 -7 OFFCURVE",
"341.378 -7 CURVE SMOOTH",
"497.378 -7 OFFCURVE",
"641.474 89 OFFCURVE",
"714.338 214 CURVE",
"748.551 386 LINE",
"428.551 386 LINE",
"409.853 292 LINE",
"613.853 292 LINE",
"599.332 219 LINE",
"549.215 143 OFFCURVE",
"458.673 90 OFFCURVE",
"360.673 90 CURVE SMOOTH",
"222.673 90 OFFCURVE",
"142.757 196 OFFCURVE",
"173.39 350 CURVE SMOOTH",
"204.023 504 OFFCURVE",
"329.107 610 OFFCURVE",
"467.107 610 CURVE SMOOTH",
"555.782 610 OFFCURVE",
"621.375 573.242 OFFCURVE",
"652.845 483 CURVE"
);
}
);
width = 766.498;
},
{
anchors = (
{
name = bottom;
position = "{348.771, 0}";
},
{
name = top;
position = "{488.009, 700}";
}
);
hints = (
{
place = "{-5.619, -46.619}";
type = Stem;
},
{
horizontal = 1;
place = "{621.381, -20}";
target = down;
type = TopGhost;
},
{
horizontal = 1;
place = "{-77.619, 21}";
target = up;
type = BottomGhost;
}
);
layerId = "6E968933-CD79-43C6-9231-80D77C940F4D";
paths = (
{
closed = 1;
nodes = (
"739.017 509 LINE",
"711.887 629 OFFCURVE",
"623.402 707 OFFCURVE",
"475.402 707 CURVE SMOOTH",
"279.402 707 OFFCURVE",
"109.162 560 OFFCURVE",
"67.39 350 CURVE SMOOTH",
"25.618 140 OFFCURVE",
"137.378 -7 OFFCURVE",
"333.378 -7 CURVE SMOOTH",
"492.378 -7 OFFCURVE",
"634.872 91 OFFCURVE",
"704.51 240 CURVE",
"728.18 359 LINE",
"406.18 359 LINE",
"402.202 339 LINE",
"702.202 339 LINE",
"682.907 242 LINE",
"614.264 98 OFFCURVE",
"478.357 13 OFFCURVE",
"337.357 13 CURVE SMOOTH",
"162.357 13 OFFCURVE",
"47.817 141 OFFCURVE",
"89.39 350 CURVE SMOOTH",
"131.162 560 OFFCURVE",
"296.423 687 OFFCURVE",
"471.423 687 CURVE SMOOTH",
"611.423 687 OFFCURVE",
"697.908 609 OFFCURVE",
"719.625 502 CURVE"
);
}
);
width = 763.4986;
},
{
anchors = (
{
name = bottom;
position = "{325.97, 1}";
},
{
name = top;
position = "{465.009, 700}";
}
);
hints = (
{
place = "{-51.619, -19.619}";
type = Stem;
},
{
place = "{193.381, 111.381}";
type = Stem;
},
{
horizontal = 1;
place = "{-74.619, 86.381}";
type = Stem;
},
{
horizontal = 1;
place = "{197.381, 58.381}";
type = Stem;
},
{
horizontal = 1;
place = "{475.381, 92.381}";
type = Stem;
}
);
layerId = "BAF31694-0472-4296-B0EA-1654553C45D2";
paths = (
{
closed = 1;
nodes = (
"759.818 508 LINE",
"740.284 631 OFFCURVE",
"629.402 707 OFFCURVE",
"474.402 707 CURVE SMOOTH",
"263.402 707 OFFCURVE",
"88.963 559 OFFCURVE",
"47.39 350 CURVE SMOOTH",
"5.817 141 OFFCURVE",
"122.378 -7 OFFCURVE",
"334.378 -7 CURVE SMOOTH",
"505.378 -7 OFFCURVE",
"635.468 94 OFFCURVE",
"703.757 196 CURVE",
"744.535 401 LINE",
"416.535 401 LINE",
"389.482 265 LINE",
"557.482 265 LINE",
"551.714 236 LINE",
"507.376 179 OFFCURVE",
"447.817 141 OFFCURVE",
"376.817 141 CURVE SMOOTH",
"255.817 141 OFFCURVE",
"199.128 223 OFFCURVE",
"224.39 350 CURVE SMOOTH",
"247.862 468 OFFCURVE",
"342.963 559 OFFCURVE",
"450.963 559 CURVE SMOOTH",
"521.413 559 OFFCURVE",
"568.242 530.981 OFFCURVE",
"588.259 470 CURVE"
);
}
);
width = 747.50309;
},
{
anchors = (
{
name = bottom;
position = "{342.771, 0}";
},
{
name = top;
position = "{482.009, 700}";
}
);
hints = (
{
place = "{332.381, 4.381}";
type = Stem;
},
{
horizontal = 1;
place = "{189.381, -20}";
target = down;
type = TopGhost;
},
{
horizontal = 1;
place = "{-72.619, 21}";
target = up;
type = BottomGhost;
}
);
layerId = "9F107B1E-3A61-4335-981B-27DD48125C7E";
paths = (
{
closed = 1;
nodes = (
"755.409 516 LINE",
"726.478 637 OFFCURVE",
"620.402 707 OFFCURVE",
"482.402 707 CURVE SMOOTH",
"286.402 707 OFFCURVE",
"104.162 560 OFFCURVE",
"62.39 350 CURVE SMOOTH",
"20.618 140 OFFCURVE",
"144.378 -7 OFFCURVE",
"340.378 -7 CURVE SMOOTH",
"497.378 -7 OFFCURVE",
"641.673 90 OFFCURVE",
"713.327 224 CURVE",
"743.164 374 LINE",
"422.164 374 LINE",
"409.235 309 LINE",
"649.235 309 LINE",
"633.123 228 LINE",
"575.834 126 OFFCURVE",
"468.7 65 OFFCURVE",
"354.7 65 CURVE SMOOTH",
"202.7 65 OFFCURVE",
"108.779 176 OFFCURVE",
"143.39 350 CURVE SMOOTH",
"178.2 525 OFFCURVE",
"316.279 636 OFFCURVE",
"468.279 636 CURVE SMOOTH",
"571.279 636 OFFCURVE",
"650.688 590.513 OFFCURVE",
"680.238 490 CURVE"
);
}
);
width = 769.50273;
}
);
leftMetricsKey = O;
rightMetricsKey = "=O*1.2";
unicode = 0047;
},
{
glyphname = Gbreve;
lastChange = "2021-09-02 09:18:01 +0000";
layers = (
{
anchors = (
{
name = bottom;
position = "{336.774, 0}";
},
{
name = top;
position = "{476.012, 700}";
}
);
hints = (
{
place = "{-48.656, 26.344}";
type = Stem;
},
{
place = "{508.344, 31.344}";
type = Stem;
},
{
horizontal = 1;
place = "{-96.656, 12.344}";
type = Stem;
},
{
horizontal = 1;
place = "{201.344, 0.344}";
type = Stem;
},
{
horizontal = 1;
place = "{513.344, 13.344}";
type = Stem;
},
{
place = "{146.594, -25.201}";
type = Stem;
},
{
place = "{381.594, -24.194}";
type = Stem;
},
{
horizontal = 1;
place = "{665.736, -1.033}";
type = Stem;
},
{
horizontal = 1;
place = "{665.736, 71.471}";
type = Stem;
}
);
layerId = "0CF0EA28-C756-4A9E-9D7C-CFEF350B4CFE";
paths = (
{
closed = 1;
nodes = (
"760.208 520 LINE",
"730.277 641 OFFCURVE",
"616.405 707 OFFCURVE",
"483.405 707 CURVE SMOOTH",
"287.405 707 OFFCURVE",
"98.966 559 OFFCURVE",
"57.393 350 CURVE SMOOTH",
"15.622 140 OFFCURVE",
"145.381 -7 OFFCURVE",
"341.381 -7 CURVE SMOOTH",
"497.381 -7 OFFCURVE",
"641.477 89 OFFCURVE",
"714.341 214 CURVE",
"748.554 386 LINE",
"428.554 386 LINE",
"409.856 292 LINE",
"613.856 292 LINE",
"599.336 219 LINE",
"549.218 143 OFFCURVE",
"458.676 90 OFFCURVE",
"360.676 90 CURVE SMOOTH",
"222.676 90 OFFCURVE",
"142.761 196 OFFCURVE",
"173.393 350 CURVE SMOOTH",
"204.026 504 OFFCURVE",
"329.11 610 OFFCURVE",
"467.11 610 CURVE SMOOTH",
"555.785 610 OFFCURVE",
"621.378 573.242 OFFCURVE",
"652.848 483 CURVE"
);
},
{
closed = 1;
nodes = (
"670.479 918.519 LINE",
"604.479 918.519 LINE",
"595.465 873.204 OFFCURVE",
"570.057 846.015 OFFCURVE",
"505.057 846.015 CURVE SMOOTH",
"440.057 846.015 OFFCURVE",
"425.465 873.204 OFFCURVE",
"434.479 918.519 CURVE",
"369.479 918.519 LINE",
"365.272 897.372 LINE SMOOTH",
"348.647 813.791 OFFCURVE",
"393.23 756.392 OFFCURVE",
"487.23 756.392 CURVE SMOOTH",
"582.23 756.392 OFFCURVE",
"649.447 812.784 OFFCURVE",
"666.072 896.365 CURVE SMOOTH"
);
}
);
width = 766.5;
},
{
anchors = (
{
name = bottom;
position = "{348.773, 0}";
},
{
name = top;
position = "{488.012, 700}";
}
);
hints = (
{
place = "{-24.207, -65.207}";
type = Stem;
},
{
horizontal = 1;
place = "{602.793, -20}";
target = down;
type = TopGhost;
},
{
horizontal = 1;
place = "{-96.207, 21}";
target = up;
type = BottomGhost;
},
{
place = "{205.043, -67.326}";
type = Stem;
},
{
place = "{417.043, -65.338}";
type = Stem;
},
{
horizontal = 1;
place = "{684.377, 21}";
target = up;
type = BottomGhost;
},
{
horizontal = 1;
place = "{789.773, -20}";
target = down;
type = TopGhost;
}
);
layerId = "6E968933-CD79-43C6-9231-80D77C940F4D";
paths = (
{
closed = 1;
nodes = (
"739.02 509 LINE",
"711.889 629 OFFCURVE",
"623.404 707 OFFCURVE",
"475.404 707 CURVE SMOOTH",
"279.404 707 OFFCURVE",
"109.164 560 OFFCURVE",
"67.393 350 CURVE SMOOTH",
"25.621 140 OFFCURVE",
"137.381 -7 OFFCURVE",
"333.381 -7 CURVE SMOOTH",
"492.381 -7 OFFCURVE",
"634.874 91 OFFCURVE",
"704.512 240 CURVE",
"728.183 359 LINE",
"406.183 359 LINE",
"402.205 339 LINE",
"702.205 339 LINE",
"682.91 242 LINE",
"614.267 98 OFFCURVE",
"478.359 13 OFFCURVE",
"337.359 13 CURVE SMOOTH",
"162.359 13 OFFCURVE",
"47.82 141 OFFCURVE",
"89.393 350 CURVE SMOOTH",
"131.164 560 OFFCURVE",
"296.426 687 OFFCURVE",
"471.426 687 CURVE SMOOTH",
"611.426 687 OFFCURVE",
"697.911 609 OFFCURVE",
"719.627 502 CURVE"
);
},
{
closed = 1;
nodes = (
"645.579 893.888 LINE",
"624.579 893.888 LINE",
"613.306 837.213 OFFCURVE",
"570.779 804.401 OFFCURVE",
"508.779 804.401 CURVE",
"446.779 804.401 OFFCURVE",
"418.306 837.213 OFFCURVE",
"429.579 893.888 CURVE",
"408.579 893.888 LINE",
"407.59 888.917 LINE SMOOTH",
"398.097 841.191 OFFCURVE",
"420.021 785.51 OFFCURVE",
"505.021 785.51 CURVE",
"591.021 785.51 OFFCURVE",
"635.097 841.191 OFFCURVE",
"644.59 888.917 CURVE SMOOTH"
);
}
);
width = 763.5006;
},
{
anchors = (
{
name = bottom;
position = "{325.97, 1}";
},
{
name = top;
position = "{465.01, 700}";
}
);
hints = (
{
place = "{-76.239, -44.239}";
type = Stem;
},
{
place = "{168.761, 86.761}";
type = Stem;
},
{
horizontal = 1;
place = "{-99.239, 61.761}";
type = Stem;
},
{
horizontal = 1;
place = "{172.761, 33.761}";
type = Stem;
},
{
horizontal = 1;
place = "{450.761, 67.761}";
type = Stem;
},
{
place = "{108.011, -7.735}";
type = Stem;
},
{
place = "{365.011, -7.735}";
type = Stem;
},
{
horizontal = 1;
place = "{666.414, 34.026}";
type = Stem;
},
{
horizontal = 1;
place = "{666.414, 99.65}";
type = Stem;
}
);
layerId = "BAF31694-0472-4296-B0EA-1654553C45D2";
paths = (
{
closed = 1;
nodes = (
"759.819 508 LINE",
"740.285 631 OFFCURVE",
"629.402 707 OFFCURVE",
"474.402 707 CURVE SMOOTH",
"263.402 707 OFFCURVE",
"88.963 559 OFFCURVE",
"47.39 350 CURVE SMOOTH",
"5.818 141 OFFCURVE",
"122.379 -7 OFFCURVE",
"334.379 -7 CURVE SMOOTH",
"505.379 -7 OFFCURVE",
"635.469 94 OFFCURVE",
"703.758 196 CURVE",
"744.535 401 LINE",
"416.535 401 LINE",
"389.483 265 LINE",
"557.483 265 LINE",
"551.714 236 LINE",
"507.376 179 OFFCURVE",
"447.818 141 OFFCURVE",
"376.818 141 CURVE SMOOTH",
"255.818 141 OFFCURVE",
"199.129 223 OFFCURVE",
"224.39 350 CURVE SMOOTH",
"247.862 468 OFFCURVE",
"342.963 559 OFFCURVE",
"450.963 559 CURVE SMOOTH",
"521.413 559 OFFCURVE",
"568.243 530.981 OFFCURVE",
"588.26 470 CURVE"
);
},
{
closed = 1;
nodes = (
"687.641 954.541 LINE",
"600.641 954.541 LINE",
"592.335 912.781 OFFCURVE",
"567.39 887.923 OFFCURVE",
"502.39 887.923 CURVE SMOOTH",
"437.39 887.923 OFFCURVE",
"422.335 912.781 OFFCURVE",
"430.641 954.541 CURVE",
"343.641 954.541 LINE",
"339.883 935.649 LINE SMOOTH",
"317.139 821.305 OFFCURVE",
"377.074 760.653 OFFCURVE",
"477.074 760.653 CURVE SMOOTH",
"578.074 760.653 OFFCURVE",
"661.139 821.305 OFFCURVE",
"683.883 935.649 CURVE SMOOTH"
);
}
);
width = 747.50109;
},
{
anchors = (
{
name = bottom;
position = "{342.775, 0}";
},
{
name = top;
position = "{482.013, 700}";
}
);
hints = (
{
place = "{312.245, -15.755}";
type = Stem;
},
{
horizontal = 1;
place = "{169.245, -20}";
target = down;
type = TopGhost;
},
{
horizontal = 1;
place = "{-92.755, 21}";
target = up;
type = BottomGhost;
},
{
place = "{534.995, -25.614}";
type = Stem;
},
{
place = "{614.995, 19.485}";
type = Stem;
},
{
horizontal = 1;
place = "{298.561, 21}";
target = up;
type = BottomGhost;
},
{
horizontal = 1;
place = "{338.649, -20}";
target = down;
type = TopGhost;
}
);
layerId = "9F107B1E-3A61-4335-981B-27DD48125C7E";
paths = (
{
closed = 1;
nodes = (
"755.414 516 LINE",
"726.482 637 OFFCURVE",
"620.406 707 OFFCURVE",
"482.406 707 CURVE SMOOTH",
"286.406 707 OFFCURVE",
"104.166 560 OFFCURVE",
"62.394 350 CURVE SMOOTH",
"20.622 140 OFFCURVE",
"144.382 -7 OFFCURVE",
"340.382 -7 CURVE SMOOTH",
"497.382 -7 OFFCURVE",
"641.677 90 OFFCURVE",
"713.331 224 CURVE",
"743.168 374 LINE",
"422.168 374 LINE",
"409.239 309 LINE",
"649.239 309 LINE",
"633.127 228 LINE",
"575.838 126 OFFCURVE",
"468.704 65 OFFCURVE",
"354.704 65 CURVE SMOOTH",
"202.704 65 OFFCURVE",
"108.783 176 OFFCURVE",
"143.394 350 CURVE SMOOTH",
"178.204 525 OFFCURVE",
"316.283 636 OFFCURVE",
"468.283 636 CURVE SMOOTH",
"571.283 636 OFFCURVE",
"650.692 590.513 OFFCURVE",
"680.242 490 CURVE"
);
},
{
closed = 1;
nodes = (
"662.678 909.46 LINE",
"613.678 909.46 LINE",
"603.71 859.35 OFFCURVE",
"571.929 830.286 OFFCURVE",
"507.929 830.286 CURVE",
"443.929 830.286 OFFCURVE",
"423.71 859.35 OFFCURVE",
"433.678 909.46 CURVE",
"385.678 909.46 LINE",
"382.687 894.427 LINE SMOOTH",
"368.733 824.273 OFFCURVE",
"404.37 767.148 OFFCURVE",
"495.37 767.148 CURVE",
"587.37 767.148 OFFCURVE",
"645.534 823.271 OFFCURVE",
"659.488 893.425 CURVE SMOOTH"
);
}
);
width = 769.50073;
}
);
leftMetricsKey = G;
rightMetricsKey = G;
unicode = 011E;
},
{
glyphname = Gcommaaccent;
lastChange = "2021-09-02 09:18:01 +0000";
layers = (
{
anchors = (
{
name = _bottom;
position = "{336.277, 0}";
},
{
name = bottom;
position = "{336.777, 0}";
}
);
hints = (
{
place = "{288.737, 73.737}";
type = Stem;
},
{
place = "{292.737, 69.737}";
type = Stem;
},
{
place = "{341.737, 20.737}";
type = Stem;
},
{
horizontal = 1;
place = "{-186.263, 52.737}";
type = Stem;
},
{
horizontal = 1;
place = "{-315.263, 21}";
target = up;
type = BottomGhost;
},
{
place = "{-1.263, 73.737}";
type = Stem;
},
{
place = "{555.737, 78.737}";
type = Stem;
},
{
horizontal = 1;
place = "{-49.263, 59.737}";
type = Stem;
},
{
horizontal = 1;
place = "{248.737, 47.737}";
type = Stem;
},
{
horizontal = 1;
place = "{560.737, 60.737}";
type = Stem;
}
);
layerId = "0CF0EA28-C756-4A9E-9D7C-CFEF350B4CFE";
paths = (
{
closed = 1;
nodes = (
"272.928 -47 LINE",
"253.832 -143 LINE",
"306.832 -143 LINE",
"302.456 -165 LINE SMOOTH",
"294.897 -203.003 OFFCURVE",
"276.118 -222 OFFCURVE",
"242.118 -222 CURVE",
"232.172 -272 LINE",
"306.172 -272 OFFCURVE",
"353.527 -230 OFFCURVE",
"370.235 -146 CURVE SMOOTH",
"376.004 -117 OFFCURVE",
"377.568 -84 OFFCURVE",
"375.928 -47 CURVE"
);
},
{
closed = 1;
nodes = (
"760.211 520 LINE",
"730.279 641 OFFCURVE",
"616.408 707 OFFCURVE",
"483.408 707 CURVE SMOOTH",
"287.408 707 OFFCURVE",
"98.969 559 OFFCURVE",
"57.396 350 CURVE SMOOTH",
"15.624 140 OFFCURVE",
"145.384 -7 OFFCURVE",
"341.384 -7 CURVE SMOOTH",
"497.384 -7 OFFCURVE",
"641.48 89 OFFCURVE",
"714.344 214 CURVE",
"748.557 386 LINE",
"428.557 386 LINE",
"409.859 292 LINE",
"613.859 292 LINE",
"599.338 219 LINE",
"549.221 143 OFFCURVE",
"458.679 90 OFFCURVE",
"360.679 90 CURVE SMOOTH",
"222.679 90 OFFCURVE",
"142.763 196 OFFCURVE",
"173.396 350 CURVE SMOOTH",
"204.028 504 OFFCURVE",
"329.113 610 OFFCURVE",
"467.113 610 CURVE SMOOTH",
"555.788 610 OFFCURVE",
"621.38 573.242 OFFCURVE",
"652.851 483 CURVE"
);
}
);
width = 766.5;
},
{
anchors = (
{
name = _bottom;
position = "{344.677, -8}";
},
{
name = bottom;
position = "{348.768, 0}";
}
);
hints = (
{
place = "{343.288, -28.712}";
type = Stem;
},
{
horizontal = 1;
place = "{-110.712, -20}";
target = down;
type = TopGhost;
},
{
horizontal = 1;
place = "{-229.712, 21}";
target = up;
type = BottomGhost;
},
{
place = "{11.288, -29.712}";
type = Stem;
},
{
horizontal = 1;
place = "{638.288, -20}";
target = down;
type = TopGhost;
},
{
horizontal = 1;
place = "{-60.712, 21}";
target = up;
type = BottomGhost;
}
);
layerId = "6E968933-CD79-43C6-9231-80D77C940F4D";
paths = (
{
closed = 1;
nodes = (
"314.731 -58 LINE",
"306.974 -97 LINE",
"338.974 -97 LINE",
"337.382 -105 LINE SMOOTH",
"330.818 -138 OFFCURVE",
"314.84 -158 OFFCURVE",
"282.84 -158 CURVE",
"279.061 -177 LINE",
"316.061 -177 OFFCURVE",
"348.044 -162 OFFCURVE",
"362.167 -91 CURVE SMOOTH",
"364.156 -81 OFFCURVE",
"365.742 -68 OFFCURVE",
"366.731 -58 CURVE"
);
},
{
closed = 1;
nodes = (
"739.015 509 LINE",
"711.884 629 OFFCURVE",
"623.399 707 OFFCURVE",
"475.399 707 CURVE SMOOTH",
"279.399 707 OFFCURVE",
"109.159 560 OFFCURVE",
"67.388 350 CURVE SMOOTH",
"25.616 140 OFFCURVE",
"137.376 -7 OFFCURVE",
"333.376 -7 CURVE SMOOTH",
"492.376 -7 OFFCURVE",
"634.869 91 OFFCURVE",
"704.507 240 CURVE",
"728.178 359 LINE",
"406.178 359 LINE",
"402.2 339 LINE",
"702.2 339 LINE",
"682.905 242 LINE",
"614.262 98 OFFCURVE",
"478.354 13 OFFCURVE",
"337.354 13 CURVE SMOOTH",
"162.354 13 OFFCURVE",
"47.815 141 OFFCURVE",
"89.388 350 CURVE SMOOTH",
"131.159 560 OFFCURVE",
"296.421 687 OFFCURVE",
"471.421 687 CURVE SMOOTH",
"611.421 687 OFFCURVE",
"697.906 609 OFFCURVE",
"719.622 502 CURVE"
);
}
);
width = 763.4966;
},
{
anchors = (
{
name = _bottom;
position = "{331.474, 1}";
},
{
name = bottom;
position = "{325.974, 1}";
}
);
hints = (
{
place = "{272.715, 114.715}";
type = Stem;
},
{
place = "{316.715, 71.715}";
type = Stem;
},
{
place = "{-72.285, 33.715}";
type = Stem;
},
{
horizontal = 1;
place = "{-203.285, 85.715}";
type = Stem;
},
{
horizontal = 1;
place = "{-154.285, 21}";
target = up;
type = BottomGhost;
},
{
place = "{-21.285, 10.715}";
type = Stem;
},
{
place = "{223.715, 141.715}";
type = Stem;
},
{
horizontal = 1;
place = "{-44.285, 116.715}";
type = Stem;
},
{
horizontal = 1;
place = "{227.715, 88.715}";
type = Stem;
},
{
horizontal = 1;
place = "{505.715, 122.715}";
type = Stem;
}
);
layerId = "BAF31694-0472-4296-B0EA-1654553C45D2";
paths = (
{
closed = 1;
nodes = (
"254.716 -38 LINE",
"229.653 -164 LINE",
"293.653 -164 LINE",
"290.868 -178 LINE SMOOTH",
"281.718 -224 OFFCURVE",
"259.541 -245 OFFCURVE",
"225.541 -245 CURVE",
"212.214 -312 LINE",
"309.214 -312 OFFCURVE",
"367.945 -248 OFFCURVE",
"385.847 -158 CURVE SMOOTH",
"393.206 -121 OFFCURVE",
"394.163 -81 OFFCURVE",
"388.716 -38 CURVE"
);
},
{
closed = 1;
nodes = (
"759.822 508 LINE",
"740.289 631 OFFCURVE",
"629.406 707 OFFCURVE",
"474.406 707 CURVE SMOOTH",
"263.406 707 OFFCURVE",
"88.967 559 OFFCURVE",
"47.394 350 CURVE SMOOTH",
"5.821 141 OFFCURVE",
"122.382 -7 OFFCURVE",
"334.382 -7 CURVE SMOOTH",
"505.382 -7 OFFCURVE",
"635.473 94 OFFCURVE",
"703.762 196 CURVE",
"744.539 401 LINE",
"416.539 401 LINE",
"389.487 265 LINE",
"557.487 265 LINE",
"551.718 236 LINE",
"507.38 179 OFFCURVE",
"447.821 141 OFFCURVE",
"376.821 141 CURVE SMOOTH",
"255.821 141 OFFCURVE",
"199.132 223 OFFCURVE",
"224.394 350 CURVE SMOOTH",
"247.866 468 OFFCURVE",
"342.967 559 OFFCURVE",
"450.967 559 CURVE SMOOTH",
"521.417 559 OFFCURVE",
"568.246 530.981 OFFCURVE",
"588.264 470 CURVE"
);
}
);
width = 747.50509;
},
{
anchors = (
{
name = _bottom;
position = "{339.679, -3}";
},
{
name = bottom;
position = "{342.776, 0}";
}
);
hints = (
{
place = "{12.156, 22.156}";
type = Stem;
},
{
horizontal = 1;
place = "{-68.844, -20}";
target = down;
type = TopGhost;
},
{
horizontal = 1;
place = "{-282.844, 21}";
target = up;
type = BottomGhost;
},
{
place = "{355.156, 27.156}";
type = Stem;
},
{
horizontal = 1;
place = "{212.156, -20}";
target = down;
type = TopGhost;
},
{
horizontal = 1;
place = "{-49.844, 21}";
target = up;
type = BottomGhost;
}
);
layerId = "9F107B1E-3A61-4335-981B-27DD48125C7E";
paths = (
{
closed = 1;
nodes = (
"289.132 -51 LINE",
"274.213 -126 LINE",
"319.213 -126 LINE",
"315.832 -143 LINE SMOOTH",
"308.671 -179 OFFCURVE",
"290.891 -198 OFFCURVE",
"257.891 -198 CURVE",
"250.333 -236 LINE",
"310.333 -236 OFFCURVE",
"351.499 -205 OFFCURVE",
"367.412 -125 CURVE SMOOTH",
"371.589 -104 OFFCURVE",
"372.761 -78 OFFCURVE",
"372.132 -51 CURVE"
);
},
{
closed = 1;
nodes = (
"755.415 516 LINE",
"726.483 637 OFFCURVE",
"620.407 707 OFFCURVE",
"482.407 707 CURVE SMOOTH",
"286.407 707 OFFCURVE",
"104.167 560 OFFCURVE",
"62.395 350 CURVE SMOOTH",
"20.624 140 OFFCURVE",
"144.384 -7 OFFCURVE",
"340.384 -7 CURVE SMOOTH",
"497.384 -7 OFFCURVE",
"641.678 90 OFFCURVE",
"713.333 224 CURVE",
"743.169 374 LINE",
"422.169 374 LINE",
"409.24 309 LINE",
"649.24 309 LINE",
"633.128 228 LINE",
"575.839 126 OFFCURVE",
"468.705 65 OFFCURVE",
"354.705 65 CURVE SMOOTH",
"202.705 65 OFFCURVE",
"108.785 176 OFFCURVE",
"143.395 350 CURVE SMOOTH",
"178.205 525 OFFCURVE",
"316.284 636 OFFCURVE",
"468.284 636 CURVE SMOOTH",
"571.284 636 OFFCURVE",
"650.693 590.513 OFFCURVE",
"680.243 490 CURVE"
);
}
);
width = 769.50248;
}
);
leftMetricsKey = G;
rightMetricsKey = G;
unicode = 0122;
},
{
glyphname = Gdotaccent;
lastChange = "2021-09-02 09:18:01 +0000";
layers = (
{
anchors = (
{
name = bottom;
position = "{336.777, 0}";
},
{
name = top;
position = "{476.015, 700}";
}
);
hints = (
{
place = "{-46.853, 28.147}";
type = Stem;
},
{
place = "{510.147, 33.147}";
type = Stem;
},
{
horizontal = 1;
place = "{-94.853, 14.147}";
type = Stem;
},
{
horizontal = 1;
place = "{203.147, 2.147}";
type = Stem;
},
{
horizontal = 1;
place = "{515.147, 15.147}";
type = Stem;
},
{
place = "{238.397, 31.987}";
type = Stem;
},
{
horizontal = 1;
place = "{690.7, 31.987}";
type = Stem;
}
);
layerId = "0CF0EA28-C756-4A9E-9D7C-CFEF350B4CFE";
paths = (
{
closed = 1;
nodes = (
"760.211 520 LINE",
"730.279 641 OFFCURVE",
"616.408 707 OFFCURVE",
"483.408 707 CURVE SMOOTH",
"287.408 707 OFFCURVE",
"98.969 559 OFFCURVE",
"57.396 350 CURVE SMOOTH",
"15.624 140 OFFCURVE",
"145.384 -7 OFFCURVE",
"341.384 -7 CURVE SMOOTH",
"497.384 -7 OFFCURVE",
"641.48 89 OFFCURVE",
"714.344 214 CURVE",
"748.557 386 LINE",
"428.557 386 LINE",
"409.859 292 LINE",
"613.859 292 LINE",
"599.338 219 LINE",
"549.221 143 OFFCURVE",
"458.679 90 OFFCURVE",
"360.679 90 CURVE SMOOTH",
"222.679 90 OFFCURVE",
"142.763 196 OFFCURVE",
"173.396 350 CURVE SMOOTH",
"204.028 504 OFFCURVE",
"329.113 610 OFFCURVE",
"467.113 610 CURVE SMOOTH",
"555.788 610 OFFCURVE",
"621.38 573.242 OFFCURVE",
"652.851 483 CURVE"
);
},
{
closed = 1;
nodes = (
"524.839 779.553 OFFCURVE",
"557.047 805.735 OFFCURVE",
"563.858 839.973 CURVE SMOOTH",
"570.468 873.204 OFFCURVE",
"548.876 900.393 OFFCURVE",
"515.876 900.393 CURVE SMOOTH",
"481.876 900.393 OFFCURVE",
"450.468 873.204 OFFCURVE",
"443.858 839.973 CURVE SMOOTH",
"437.047 805.735 OFFCURVE",
"457.839 779.553 OFFCURVE",
"491.839 779.553 CURVE SMOOTH"
);
}
);
width = 766.5;
},
{
anchors = (
{
name = bottom;
position = "{348.77, 0}";
},
{
name = top;
position = "{488.009, 700}";
}
);
hints = (
{
place = "{-18.57, -59.57}";
type = Stem;
},
{
horizontal = 1;
place = "{608.43, -20}";
target = down;
type = TopGhost;
},
{
horizontal = 1;
place = "{-90.57, 21}";
target = up;
type = BottomGhost;
},
{
place = "{286.68, -21.918}";
type = Stem;
},
{
horizontal = 1;
place = "{692.002, -21.918}";
type = Stem;
}
);
layerId = "6E968933-CD79-43C6-9231-80D77C940F4D";
paths = (
{
closed = 1;
nodes = (
"739.017 509 LINE",
"711.886 629 OFFCURVE",
"623.401 707 OFFCURVE",
"475.401 707 CURVE SMOOTH",
"279.401 707 OFFCURVE",
"109.161 560 OFFCURVE",
"67.39 350 CURVE SMOOTH",
"25.618 140 OFFCURVE",
"137.378 -7 OFFCURVE",
"333.378 -7 CURVE SMOOTH",
"492.378 -7 OFFCURVE",
"634.871 91 OFFCURVE",
"704.509 240 CURVE",
"728.18 359 LINE",
"406.18 359 LINE",
"402.201 339 LINE",
"702.201 339 LINE",
"682.907 242 LINE",
"614.264 98 OFFCURVE",
"478.356 13 OFFCURVE",
"337.356 13 CURVE SMOOTH",
"162.356 13 OFFCURVE",
"47.817 141 OFFCURVE",
"89.39 350 CURVE SMOOTH",
"131.161 560 OFFCURVE",
"296.423 687 OFFCURVE",
"471.423 687 CURVE SMOOTH",
"611.423 687 OFFCURVE",
"697.908 609 OFFCURVE",
"719.624 502 CURVE"
);
},
{
closed = 1;
nodes = (
"520.238 776.561 OFFCURVE",
"537.007 790.481 OFFCURVE",
"540.171 806.39 CURVE SMOOTH",
"543.533 823.293 OFFCURVE",
"532.302 837.213 OFFCURVE",
"515.302 837.213 CURVE SMOOTH",
"499.302 837.213 OFFCURVE",
"482.533 823.293 OFFCURVE",
"479.171 806.39 CURVE SMOOTH",
"476.007 790.481 OFFCURVE",
"487.238 776.561 OFFCURVE",
"503.238 776.561 CURVE SMOOTH"
);
}
);
width = 763.5006;
},
{
anchors = (
{
name = bottom;
position = "{325.973, 1}";
},
{
name = top;
position = "{465.013, 700}";
}
);
hints = (
{
place = "{-73.865, -41.865}";
type = Stem;
},
{
place = "{171.135, 89.135}";
type = Stem;
},
{
horizontal = 1;
place = "{-96.865, 64.135}";
type = Stem;
},
{
horizontal = 1;
place = "{175.135, 36.135}";
type = Stem;
},
{
horizontal = 1;
place = "{453.135, 70.135}";
type = Stem;
},
{
place = "{206.385, 57.28}";
type = Stem;
},
{
horizontal = 1;
place = "{689.668, 57.28}";
type = Stem;
}
);
layerId = "BAF31694-0472-4296-B0EA-1654553C45D2";
paths = (
{
closed = 1;
nodes = (
"759.822 508 LINE",
"740.288 631 OFFCURVE",
"629.406 707 OFFCURVE",
"474.406 707 CURVE SMOOTH",
"263.406 707 OFFCURVE",
"88.967 559 OFFCURVE",
"47.394 350 CURVE SMOOTH",
"5.821 141 OFFCURVE",
"122.382 -7 OFFCURVE",
"334.382 -7 CURVE SMOOTH",
"505.382 -7 OFFCURVE",
"635.472 94 OFFCURVE",
"703.761 196 CURVE",
"744.538 401 LINE",
"416.538 401 LINE",
"389.486 265 LINE",
"557.486 265 LINE",
"551.718 236 LINE",
"507.38 179 OFFCURVE",
"447.821 141 OFFCURVE",
"376.821 141 CURVE SMOOTH",
"255.821 141 OFFCURVE",
"199.132 223 OFFCURVE",
"224.394 350 CURVE SMOOTH",
"247.865 468 OFFCURVE",
"342.967 559 OFFCURVE",
"450.967 559 CURVE SMOOTH",
"521.417 559 OFFCURVE",
"568.246 530.981 OFFCURVE",
"588.263 470 CURVE"
);
},
{
closed = 1;
nodes = (
"522.231 781.533 OFFCURVE",
"561.56 813.351 OFFCURVE",
"569.867 855.111 CURVE SMOOTH",
"578.371 897.866 OFFCURVE",
"551.898 930.678 OFFCURVE",
"508.898 930.678 CURVE SMOOTH",
"466.898 930.678 OFFCURVE",
"428.371 897.866 OFFCURVE",
"419.867 855.111 CURVE SMOOTH",
"411.56 813.351 OFFCURVE",
"437.231 781.533 OFFCURVE",
"479.231 781.533 CURVE SMOOTH"
);
}
);
width = 747.50109;
},
{
anchors = (
{
name = bottom;
position = "{342.774, 0}";
},
{
name = top;
position = "{482.012, 700}";
}
);
hints = (
{
place = "{315.634, -12.366}";
type = Stem;
},
{
horizontal = 1;
place = "{172.634, -20}";
target = down;
type = TopGhost;
},
{
horizontal = 1;
place = "{-89.366, 21}";
target = up;
type = BottomGhost;
},
{
place = "{257.384, 11.849}";
type = Stem;
},
{
horizontal = 1;
place = "{691.805, 11.849}";
type = Stem;
}
);
layerId = "9F107B1E-3A61-4335-981B-27DD48125C7E";
paths = (
{
closed = 1;
nodes = (
"755.413 516 LINE",
"726.481 637 OFFCURVE",
"620.405 707 OFFCURVE",
"482.405 707 CURVE SMOOTH",
"286.405 707 OFFCURVE",
"104.165 560 OFFCURVE",
"62.393 350 CURVE SMOOTH",
"20.621 140 OFFCURVE",
"144.381 -7 OFFCURVE",
"340.381 -7 CURVE SMOOTH",
"497.381 -7 OFFCURVE",
"641.676 90 OFFCURVE",
"713.33 224 CURVE",
"743.167 374 LINE",
"422.167 374 LINE",
"409.238 309 LINE",
"649.238 309 LINE",
"633.126 228 LINE",
"575.837 126 OFFCURVE",
"468.703 65 OFFCURVE",
"354.703 65 CURVE SMOOTH",
"202.703 65 OFFCURVE",
"108.782 176 OFFCURVE",
"143.393 350 CURVE SMOOTH",
"178.203 525 OFFCURVE",
"316.282 636 OFFCURVE",
"468.282 636 CURVE SMOOTH",
"571.282 636 OFFCURVE",
"650.691 590.513 OFFCURVE",
"680.241 490 CURVE"
);
},
{
closed = 1;
nodes = (
"524.362 777.169 OFFCURVE",
"550.549 798.216 OFFCURVE",
"555.931 825.275 CURVE SMOOTH",
"561.314 852.334 OFFCURVE",
"543.899 875.385 OFFCURVE",
"516.899 875.385 CURVE SMOOTH",
"488.899 875.385 OFFCURVE",
"463.314 852.334 OFFCURVE",
"457.931 825.275 CURVE SMOOTH",
"452.549 798.216 OFFCURVE",
"469.362 777.169 OFFCURVE",
"497.362 777.169 CURVE SMOOTH"
);
}
);
width = 769.50073;
}
);
leftMetricsKey = G;
rightMetricsKey = G;
unicode = 0120;
},
{
glyphname = H;
lastChange = "2021-09-02 15:54:38 +0000";
layers = (
{
guideLines = (
{
position = "{16.89, 699.66}";
}
);
hints = (
{
place = "{15.381, 44.381}";
type = Stem;
},
{
place = "{456.381, 44.381}";
type = Stem;
},
{
horizontal = 1;
place = "{236.381, 23.381}";
type = Stem;
},
{
horizontal = 1;
place = "{-69.619, 21}";
target = up;
type = BottomGhost;
},
{
horizontal = 1;
place = "{630.381, -20}";
target = down;
type = TopGhost;
}
);
layerId = "0CF0EA28-C756-4A9E-9D7C-CFEF350B4CFE";
paths = (
{
closed = 1;
nodes = (
"25.27 0 LINE",
"139.27 0 LINE",
"200.337 307 LINE",
"535.337 307 LINE",
"474.27 0 LINE",
"588.27 0 LINE",
"727.509 700 LINE",
"613.509 700 LINE",
"554.233 402 LINE",
"219.233 402 LINE",
"278.509 700 LINE",
"164.509 700 LINE"
);
}
);
width = 713;
},
{
hints = (
{
place = "{44.381, -47.619}";
type = Stem;
},
{
place = "{489.381, -47.619}";
type = Stem;
},
{
horizontal = 1;
place = "{-69.619, 21}";
target = up;
type = BottomGhost;
},
{
horizontal = 1;
place = "{630.381, -20}";
target = down;
type = TopGhost;
}
);
layerId = "6E968933-CD79-43C6-9231-80D77C940F4D";
paths = (
{
closed = 1;
nodes = (
"45.27 0 LINE",
"67.27 0 LINE",
"136.89 350 LINE",
"583.89 350 LINE",
"514.27 0 LINE",
"536.27 0 LINE",
"675.509 700 LINE",
"653.509 700 LINE",
"587.868 370 LINE",
"140.868 370 LINE",
"206.509 700 LINE",
"184.509 700 LINE"
);
}
);
width = 680.99596;
},
{
hints = (
{
place = "{-16.619, 106.381}";
type = Stem;
},
{
place = "{420.381, 106.381}";
type = Stem;
},
{
horizontal = 1;
place = "{216.381, 71.381}";
type = Stem;
},
{
horizontal = 1;
place = "{-69.619, 21}";
target = up;
type = BottomGhost;
},
{
horizontal = 1;
place = "{630.381, -20}";
target = down;
type = TopGhost;
}
);
layerId = "BAF31694-0472-4296-B0EA-1654553C45D2";
paths = (
{
closed = 1;
nodes = (
"5.271 0 LINE",
"179.271 0 LINE",
"235.364 282 LINE",
"499.364 282 LINE",
"443.271 0 LINE",
"617.271 0 LINE",
"756.509 700 LINE",
"582.509 700 LINE",
"528.405 428 LINE",
"264.405 428 LINE",
"318.509 700 LINE",
"144.509 700 LINE"
);
}
);
width = 722;
},
{
hints = (
{
place = "{302.381, 10.381}";
type = Stem;
},
{
place = "{331.381, -3.619}";
type = Stem;
},
{
horizontal = 1;
place = "{-69.619, 21}";
target = up;
type = BottomGhost;
},
{
horizontal = 1;
place = "{630.381, -20}";
target = down;
type = TopGhost;
}
);
layerId = "9F107B1E-3A61-4335-981B-27DD48125C7E";
paths = (
{
closed = 1;
nodes = (
"35.27 0 LINE",
"115.27 0 LINE",
"179.122 321 LINE",
"554.122 321 LINE",
"490.27 0 LINE",
"570.27 0 LINE",
"709.509 700 LINE",
"629.509 700 LINE",
"568.045 391 LINE",
"193.045 391 LINE",
"254.509 700 LINE",
"174.509 700 LINE"
);
}
);
width = 704.99724;
}
);
unicode = 0048;
},
{
glyphname = I;
lastChange = "2021-09-02 15:54:38 +0000";
layers = (
{
anchors = (
{
name = ogonek;
position = "{139.47, 1}";
},
{
name = top;
position = "{221.509, 700}";
}
);
hints = (
{
place = "{15.381, 44.381}";
type = Stem;
},
{
horizontal = 1;
place = "{-69.619, 21}";
target = up;
type = BottomGhost;
},
{
horizontal = 1;
place = "{630.381, -20}";
target = down;
type = TopGhost;
}
);
layerId = "0CF0EA28-C756-4A9E-9D7C-CFEF350B4CFE";
paths = (
{
closed = 1;
nodes = (
"25.27 0 LINE",
"139.27 0 LINE",
"278.509 700 LINE",
"164.509 700 LINE"
);
}
);
width = 264;
},
{
anchors = (
{
name = ogonek;
position = "{67.271, 0}";
},
{
name = top;
position = "{195.509, 700}";
}
);
hints = (
{
place = "{35.381, -47.619}";
type = Stem;
},
{
horizontal = 1;
place = "{-69.619, 21}";
target = up;
type = BottomGhost;
},
{
horizontal = 1;
place = "{630.381, -20}";
target = down;
type = TopGhost;
}
);
layerId = "6E968933-CD79-43C6-9231-80D77C940F4D";
paths = (
{
closed = 1;
nodes = (
"45.27 0 LINE",
"67.27 0 LINE",
"206.509 700 LINE",
"184.509 700 LINE"
);
}
);
width = 211.99894;
},
{
anchors = (
{
name = ogonek;
position = "{180.47, 1}";
},
{
name = top;
position = "{231.509, 700}";
}
);
hints = (
{
place = "{-16.619, 106.381}";
type = Stem;
},
{
horizontal = 1;
place = "{-69.619, 21}";
target = up;
type = BottomGhost;
},
{
horizontal = 1;
place = "{630.381, -20}";
target = down;
type = TopGhost;
}
);
layerId = "BAF31694-0472-4296-B0EA-1654553C45D2";
paths = (
{
closed = 1;
nodes = (
"5.271 0 LINE",
"179.271 0 LINE",
"318.509 700 LINE",
"144.509 700 LINE"
);
}
);
width = 284.00378;
},
{
anchors = (
{
name = ogonek;
position = "{114.47, 1}";
},
{
name = top;
position = "{213.509, 700}";
}
);
hints = (
{
place = "{23.381, 10.381}";
type = Stem;
},
{
horizontal = 1;
place = "{-69.619, 21}";
target = up;
type = BottomGhost;
},
{
horizontal = 1;
place = "{630.381, -20}";
target = down;
type = TopGhost;
}
);
layerId = "9F107B1E-3A61-4335-981B-27DD48125C7E";
paths = (
{
closed = 1;
nodes = (
"35.27 0 LINE",
"115.27 0 LINE",
"254.509 700 LINE",
"174.509 700 LINE"
);
}
);
width = 250.00335;
}
);
leftMetricsKey = H;
rightMetricsKey = H;
unicode = 0049;
},
